<svg width="10" height="11" viewBox="0 0 10 11" fill="none" xmlns="http://www.w3.org/2000/svg">
<path d="M6.375 0.820312C6.375 0.734375 6.33203 0.648438 6.26758 0.583984C6.20312 0.519531 6.11719 0.476562 6.03125 0.476562H0.53125C0.423828 0.476562 0.337891 0.519531 0.273438 0.583984C0.208984 0.648438 0.1875 0.734375 0.1875 0.820312V1.67969C0.1875 1.78711 0.208984 1.87305 0.273438 1.9375C0.337891 2.00195 0.423828 2.02344 0.53125 2.02344H6.03125C6.11719 2.02344 6.20312 2.00195 6.26758 1.9375C6.33203 1.87305 6.375 1.78711 6.375 1.67969V0.820312ZM0.1875 3.57031C0.1875 3.48438 0.208984 3.39844 0.273438 3.33398C0.337891 3.26953 0.423828 3.22656 0.53125 3.22656H9.46875C9.55469 3.22656 9.64062 3.26953 9.70508 3.33398C9.76953 3.39844 9.8125 3.48438 9.8125 3.57031V4.42969C9.8125 4.53711 9.76953 4.62305 9.70508 4.6875C9.64062 4.75195 9.55469 4.77344 9.46875 4.77344H0.53125C0.423828 4.77344 0.337891 4.75195 0.273438 4.6875C0.208984 4.62305 0.1875 4.53711 0.1875 4.42969V3.57031ZM0.53125 10.2734C0.423828 10.2734 0.337891 10.252 0.273438 10.1875C0.208984 10.123 0.1875 10.0371 0.1875 9.92969V9.07031C0.1875 8.98438 0.208984 8.89844 0.273438 8.83398C0.337891 8.76953 0.423828 8.72656 0.53125 8.72656H9.46875C9.55469 8.72656 9.64062 8.76953 9.70508 8.83398C9.76953 8.89844 9.8125 8.98438 9.8125 9.07031V9.92969C9.8125 10.0371 9.76953 10.123 9.70508 10.1875C9.64062 10.252 9.55469 10.2734 9.46875 10.2734H0.53125ZM6.03125 5.97656C6.11719 5.97656 6.20312 6.01953 6.26758 6.08398C6.33203 6.14844 6.375 6.23438 6.375 6.32031V7.17969C6.375 7.28711 6.33203 7.37305 6.26758 7.4375C6.20312 7.50195 6.11719 7.52344 6.03125 7.52344H0.53125C0.423828 7.52344 0.337891 7.50195 0.273438 7.4375C0.208984 7.37305 0.1875 7.28711 0.1875 7.17969V6.32031C0.1875 6.23438 0.208984 6.14844 0.273438 6.08398C0.337891 6.01953 0.423828 5.97656 0.53125 5.97656H6.03125Z" fill="currentColor"/>
</svg>
