<svg width="10" height="12" viewBox="0 0 10 12" fill="none" xmlns="http://www.w3.org/2000/svg">
<path d="M9.625 8.60938C9.625 8.78125 9.56055 8.93164 9.43164 9.01758C9.38867 9.18945 9.36719 9.44727 9.36719 9.8125C9.36719 10.1992 9.38867 10.457 9.43164 10.6074C9.56055 10.7363 9.625 10.8652 9.625 11.0156V11.3594C9.625 11.5098 9.56055 11.6387 9.47461 11.7246C9.36719 11.832 9.23828 11.875 9.10938 11.875H2.0625C1.48242 11.875 0.988281 11.6816 0.601562 11.2734C0.193359 10.8867 0 10.3926 0 9.8125V2.9375C0 2.37891 0.193359 1.88477 0.601562 1.47656C0.988281 1.08984 1.48242 0.875 2.0625 0.875H9.10938C9.23828 0.875 9.36719 0.939453 9.47461 1.02539C9.56055 1.13281 9.625 1.26172 9.625 1.39062V8.60938ZM2.75 3.75391V4.18359C2.75 4.22656 2.75 4.24805 2.79297 4.26953C2.81445 4.3125 2.83594 4.3125 2.87891 4.3125H7.43359C7.45508 4.3125 7.47656 4.3125 7.51953 4.26953C7.54102 4.24805 7.5625 4.22656 7.5625 4.18359V3.75391C7.5625 3.73242 7.54102 3.71094 7.51953 3.66797C7.47656 3.64648 7.45508 3.625 7.43359 3.625H2.87891C2.83594 3.625 2.81445 3.64648 2.79297 3.66797C2.75 3.71094 2.75 3.73242 2.75 3.75391ZM2.75 5.12891V5.55859C2.75 5.60156 2.75 5.62305 2.79297 5.64453C2.81445 5.6875 2.83594 5.6875 2.87891 5.6875H7.43359C7.45508 5.6875 7.47656 5.6875 7.51953 5.64453C7.54102 5.62305 7.5625 5.60156 7.5625 5.55859V5.12891C7.5625 5.10742 7.54102 5.08594 7.51953 5.04297C7.47656 5.02148 7.45508 5 7.43359 5H2.87891C2.83594 5 2.81445 5.02148 2.79297 5.04297C2.75 5.08594 2.75 5.10742 2.75 5.12891ZM8.18555 10.5C8.16406 10.3281 8.16406 10.0918 8.16406 9.8125C8.16406 9.55469 8.16406 9.31836 8.18555 9.125H2.0625C1.86914 9.125 1.69727 9.21094 1.56836 9.33984C1.43945 9.46875 1.375 9.64062 1.375 9.8125C1.375 10.0059 1.43945 10.1777 1.56836 10.3066C1.69727 10.4355 1.86914 10.5 2.0625 10.5H8.18555Z" fill="#FF224A"/>
</svg>
