<svg width="11" height="11" viewBox="0 0 11 11" fill="none" xmlns="http://www.w3.org/2000/svg">
<path d="M5.32812 0.046875C6.27344 0.046875 7.17578 0.304688 7.99219 0.777344C8.80859 1.25 9.45312 1.89453 9.92578 2.71094C10.3984 3.52734 10.6562 4.42969 10.6562 5.375C10.6562 6.3418 10.3984 7.22266 9.92578 8.03906C9.45312 8.85547 8.80859 9.52148 7.99219 9.99414C7.17578 10.4668 6.27344 10.7031 5.32812 10.7031C4.36133 10.7031 3.48047 10.4668 2.66406 9.99414C1.84766 9.52148 1.18164 8.85547 0.708984 8.03906C0.236328 7.22266 0 6.3418 0 5.375C0 4.42969 0.236328 3.52734 0.708984 2.71094C1.18164 1.89453 1.84766 1.25 2.66406 0.777344C3.48047 0.304688 4.36133 0.046875 5.32812 0.046875ZM5.32812 9.32812C6.03711 9.32812 6.70312 9.15625 7.30469 8.8125C7.90625 8.46875 8.40039 7.97461 8.74414 7.37305C9.08789 6.77148 9.28125 6.10547 9.28125 5.375C9.28125 4.66602 9.08789 4 8.74414 3.39844C8.40039 2.79688 7.90625 2.30273 7.30469 1.95898C6.70312 1.61523 6.03711 1.42188 5.32812 1.42188C4.59766 1.42188 3.93164 1.61523 3.33008 1.95898C2.72852 2.30273 2.23438 2.79688 1.89062 3.39844C1.54688 4 1.375 4.66602 1.375 5.375C1.375 6.10547 1.54688 6.77148 1.89062 7.37305C2.23438 7.97461 2.72852 8.46875 3.33008 8.8125C3.93164 9.15625 4.59766 9.32812 5.32812 9.32812ZM5.32812 2.625C5.82227 2.625 6.27344 2.75391 6.70312 2.99023C7.13281 3.24805 7.45508 3.57031 7.71289 4C7.94922 4.42969 8.07812 4.88086 8.07812 5.375C8.07812 5.89062 7.94922 6.3418 7.71289 6.77148C7.45508 7.20117 7.13281 7.52344 6.70312 7.75977C6.27344 8.01758 5.82227 8.125 5.32812 8.125C4.8125 8.125 4.36133 8.01758 3.93164 7.75977C3.50195 7.52344 3.17969 7.20117 2.94336 6.77148C2.68555 6.3418 2.57812 5.89062 2.57812 5.375C2.57812 4.88086 2.68555 4.42969 2.94336 4C3.17969 3.57031 3.50195 3.24805 3.93164 2.99023C4.36133 2.75391 4.8125 2.625 5.32812 2.625ZM5.32812 6.75C5.69336 6.75 6.01562 6.62109 6.29492 6.3418C6.55273 6.08398 6.70312 5.76172 6.70312 5.375C6.70312 5.00977 6.55273 4.6875 6.29492 4.4082C6.01562 4.15039 5.69336 4 5.32812 4C4.94141 4 4.61914 4.15039 4.36133 4.4082C4.08203 4.6875 3.95312 5.00977 3.95312 5.375C3.95312 5.76172 4.08203 6.08398 4.36133 6.3418C4.61914 6.62109 4.94141 6.75 5.32812 6.75Z" fill="#FF224A"/>
</svg>
