<svg width="10" height="12" viewBox="0 0 10 12" fill="none" xmlns="http://www.w3.org/2000/svg">
<path d="M9.625 8.10938C9.625 8.28125 9.56055 8.43164 9.43164 8.51758C9.38867 8.68945 9.36719 8.94727 9.36719 9.3125C9.36719 9.69922 9.38867 9.95703 9.43164 10.1074C9.56055 10.2363 9.625 10.3652 9.625 10.5156V10.8594C9.625 11.0098 9.56055 11.1387 9.47461 11.2246C9.36719 11.332 9.23828 11.375 9.10938 11.375H2.0625C1.48242 11.375 0.988281 11.1816 0.601562 10.7734C0.193359 10.3867 0 9.89258 0 9.3125V2.4375C0 1.87891 0.193359 1.38477 0.601562 0.976562C0.988281 0.589844 1.48242 0.375 2.0625 0.375H9.10938C9.23828 0.375 9.36719 0.439453 9.47461 0.525391C9.56055 0.632812 9.625 0.761719 9.625 0.890625V8.10938ZM2.75 3.25391V3.68359C2.75 3.72656 2.75 3.74805 2.79297 3.76953C2.81445 3.8125 2.83594 3.8125 2.87891 3.8125H7.43359C7.45508 3.8125 7.47656 3.8125 7.51953 3.76953C7.54102 3.74805 7.5625 3.72656 7.5625 3.68359V3.25391C7.5625 3.23242 7.54102 3.21094 7.51953 3.16797C7.47656 3.14648 7.45508 3.125 7.43359 3.125H2.87891C2.83594 3.125 2.81445 3.14648 2.79297 3.16797C2.75 3.21094 2.75 3.23242 2.75 3.25391ZM2.75 4.62891V5.05859C2.75 5.10156 2.75 5.12305 2.79297 5.14453C2.81445 5.1875 2.83594 5.1875 2.87891 5.1875H7.43359C7.45508 5.1875 7.47656 5.1875 7.51953 5.14453C7.54102 5.12305 7.5625 5.10156 7.5625 5.05859V4.62891C7.5625 4.60742 7.54102 4.58594 7.51953 4.54297C7.47656 4.52148 7.45508 4.5 7.43359 4.5H2.87891C2.83594 4.5 2.81445 4.52148 2.79297 4.54297C2.75 4.58594 2.75 4.60742 2.75 4.62891ZM8.18555 10C8.16406 9.82812 8.16406 9.5918 8.16406 9.3125C8.16406 9.05469 8.16406 8.81836 8.18555 8.625H2.0625C1.86914 8.625 1.69727 8.71094 1.56836 8.83984C1.43945 8.96875 1.375 9.14062 1.375 9.3125C1.375 9.50586 1.43945 9.67773 1.56836 9.80664C1.69727 9.93555 1.86914 10 2.0625 10H8.18555Z" fill="#FF6E6E"/>
</svg>
