<svg width="12" height="11" viewBox="0 0 12 11" fill="none" xmlns="http://www.w3.org/2000/svg">
<path d="M6 0.5625C6.98828 0.5625 7.91211 0.777344 8.75 1.16406C9.58789 1.57227 10.2539 2.10938 10.748 2.79688C11.2422 3.48438 11.5 4.21484 11.5 5.03125C11.5 5.84766 11.2422 6.59961 10.748 7.28711C10.2539 7.97461 9.58789 8.51172 8.75 8.89844C7.91211 9.30664 6.98828 9.5 6 9.5C5.18359 9.5 4.43164 9.37109 3.70117 9.0918C3.31445 9.39258 2.92773 9.62891 2.51953 9.80078C1.91797 10.0586 1.29492 10.1875 0.671875 10.1875C0.585938 10.1875 0.542969 10.166 0.521484 10.0801C0.478516 10.0156 0.5 9.95117 0.542969 9.88672C0.671875 9.75781 0.822266 9.56445 1.03711 9.26367C1.38086 8.76953 1.5957 8.29688 1.72461 7.8457C1.33789 7.45898 1.03711 7.00781 0.822266 6.53516C0.607422 6.0625 0.5 5.56836 0.5 5.03125C0.5 4.21484 0.736328 3.48438 1.23047 2.79688C1.72461 2.10938 2.39062 1.57227 3.22852 1.16406C4.06641 0.777344 4.99023 0.5625 6 0.5625Z" fill="currentColor"/>
</svg>
