<svg width="12" height="9" viewBox="0 0 12 9" fill="none" xmlns="http://www.w3.org/2000/svg">
<path d="M11.2852 2.97852C10.7695 3.38672 9.65234 4.20312 7.97656 5.40625L7.76172 5.57812C7.41797 5.83594 7.16016 6.0293 6.94531 6.13672C6.60156 6.35156 6.2793 6.4375 6 6.4375C5.69922 6.4375 5.39844 6.35156 5.05469 6.1582C4.83984 6.05078 4.58203 5.85742 4.23828 5.59961L4.02344 5.40625C2.2832 4.16016 1.1875 3.34375 0.714844 2.97852C0.671875 2.95703 0.607422 2.95703 0.564453 2.97852C0.521484 3 0.5 3.04297 0.5 3.08594V7.46875C0.5 7.76953 0.585938 8.00586 0.800781 8.19922C0.994141 8.41406 1.23047 8.5 1.53125 8.5H10.4688C10.748 8.5 10.9844 8.41406 11.1992 8.19922C11.3926 8.00586 11.5 7.76953 11.5 7.46875V3.08594C11.5 3.04297 11.457 3 11.4141 2.95703C11.3711 2.93555 11.3281 2.93555 11.2852 2.97852ZM6 5.75C5.80664 5.75 5.57031 5.66406 5.3125 5.49219C5.14062 5.40625 4.92578 5.25586 4.64648 5.01953L4.43164 4.86914C2.66992 3.58008 1.4668 2.69922 0.84375 2.20508L0.693359 2.09766C0.564453 2.01172 0.5 1.86133 0.5 1.68945V1.28125C0.5 1.00195 0.585938 0.765625 0.800781 0.550781C0.994141 0.357422 1.23047 0.25 1.53125 0.25H10.4688C10.748 0.25 10.9844 0.357422 11.1992 0.550781C11.3926 0.765625 11.5 1.00195 11.5 1.28125V1.68945C11.5 1.86133 11.4355 2.01172 11.3066 2.09766L11.1992 2.18359C10.5762 2.67773 9.37305 3.58008 7.56836 4.86914L7.35352 5.01953C7.05273 5.25586 6.83789 5.40625 6.6875 5.49219C6.4082 5.66406 6.17188 5.75 6 5.75Z" fill="currentColor"/>
</svg>
