<svg width="11" height="12" viewBox="0 0 11 12" fill="none" xmlns="http://www.w3.org/2000/svg">
<path d="M10.0332 1.8418C10.5918 2.40039 10.8926 3.06641 10.9785 3.79688C11.0645 4.57031 10.8496 5.34375 10.377 6.11719L7.5625 7.0625H9.66797L8.6582 8.07227L5.5 9.125H7.60547C7.08984 9.61914 6.48828 9.98438 5.75781 10.1992C5.15625 10.4141 4.51172 10.5 3.82422 10.5C3.22266 10.5 2.72852 10.4355 2.29883 10.3066L0.880859 11.7246C0.773438 11.832 0.644531 11.875 0.515625 11.875C0.365234 11.875 0.236328 11.832 0.150391 11.7246C0.0429688 11.6387 0 11.5098 0 11.3594C0 11.2305 0.0429688 11.1016 0.150391 10.9941L5.73633 5.42969C5.7793 5.36523 5.82227 5.2793 5.82227 5.19336C5.82227 5.10742 5.7793 5.02148 5.71484 4.93555C5.65039 4.87109 5.56445 4.82812 5.47852 4.82812C5.39258 4.82812 5.30664 4.87109 5.24219 4.93555L1.39648 8.75977C1.31055 8.00781 1.35352 7.25586 1.54688 6.50391C1.76172 5.60156 2.16992 4.82812 2.77148 4.22656L4.61914 2.40039C5.24219 1.77734 5.9082 1.34766 6.5957 1.08984C7.24023 0.875 7.8418 0.832031 8.44336 0.960938C9.04492 1.08984 9.56055 1.39062 10.0332 1.8418Z" fill="#FF224A"/>
</svg>
