<svg width="9" height="12" viewBox="0 0 9 12" fill="none" xmlns="http://www.w3.org/2000/svg">
<path d="M4.64062 1.39062C4.64062 1.82031 4.79102 2.25 5.0918 2.63672C5.26367 2.89453 5.58594 3.25977 6.10156 3.71094C6.55273 4.14062 6.89648 4.48438 7.11133 4.7207C7.45508 5.15039 7.73438 5.55859 7.92773 5.98828C8.14258 6.54688 8.25 7.12695 8.25 7.75C8.25 8.50195 8.05664 9.18945 7.69141 9.8125C7.30469 10.457 6.81055 10.9512 6.1875 11.3164C5.54297 11.7031 4.85547 11.875 4.125 11.875C3.37305 11.875 2.68555 11.7031 2.0625 11.3164C1.41797 10.9512 0.923828 10.457 0.558594 9.8125C0.171875 9.18945 0 8.50195 0 7.75C0 7.16992 0.107422 6.61133 0.365234 6.05273C0.580078 5.60156 0.837891 5.19336 1.18164 4.84961C1.26758 4.74219 1.39648 4.69922 1.54688 4.69922C1.67578 4.69922 1.80469 4.76367 1.91211 4.84961C1.99805 4.93555 2.0625 5.06445 2.0625 5.21484V7.04102C2.0625 7.42773 2.19141 7.77148 2.44922 8.0293C2.70703 8.30859 3.0293 8.4375 3.41602 8.4375C3.80273 8.4375 4.125 8.30859 4.4043 8.05078C4.66211 7.79297 4.8125 7.44922 4.8125 7.0625C4.8125 6.76172 4.70508 6.48242 4.51172 6.20312C4.38281 6.03125 4.16797 5.79492 3.86719 5.47266C3.4375 5.08594 3.1582 4.76367 3.0293 4.50586C2.77148 4.11914 2.68555 3.66797 2.77148 3.17383C2.83594 2.57227 3.13672 1.88477 3.69531 1.11133C3.78125 0.982422 3.88867 0.896484 4.06055 0.875C4.21094 0.875 4.33984 0.917969 4.46875 1.00391C4.57617 1.08984 4.64062 1.21875 4.64062 1.39062Z" fill="#FF224A"/>
</svg>
