<svg width="11" height="12" viewBox="0 0 11 12" fill="none" xmlns="http://www.w3.org/2000/svg">
<path d="M10.0332 1.3418C10.5918 1.90039 10.8926 2.56641 10.9785 3.29688C11.0645 4.07031 10.8496 4.84375 10.377 5.61719L7.5625 6.5625H9.66797L8.6582 7.57227L5.5 8.625H7.60547C7.08984 9.11914 6.48828 9.48438 5.75781 9.69922C5.15625 9.91406 4.51172 10 3.82422 10C3.22266 10 2.72852 9.93555 2.29883 9.80664L0.880859 11.2246C0.773438 11.332 0.644531 11.375 0.515625 11.375C0.365234 11.375 0.236328 11.332 0.150391 11.2246C0.0429688 11.1387 0 11.0098 0 10.8594C0 10.7305 0.0429688 10.6016 0.150391 10.4941L5.73633 4.92969C5.7793 4.86523 5.82227 4.7793 5.82227 4.69336C5.82227 4.60742 5.7793 4.52148 5.71484 4.43555C5.65039 4.37109 5.56445 4.32812 5.47852 4.32812C5.39258 4.32812 5.30664 4.37109 5.24219 4.43555L1.39648 8.25977C1.31055 7.50781 1.35352 6.75586 1.54688 6.00391C1.76172 5.10156 2.16992 4.32812 2.77148 3.72656L4.61914 1.90039C5.24219 1.27734 5.9082 0.847656 6.5957 0.589844C7.24023 0.375 7.8418 0.332031 8.44336 0.460938C9.04492 0.589844 9.56055 0.890625 10.0332 1.3418Z" fill="#FF6E6E"/>
</svg>
