<svg width="12" height="11" viewBox="0 0 12 11" fill="none" xmlns="http://www.w3.org/2000/svg">
<path d="M10.9258 1.22852C11.3555 1.61523 11.6777 2.06641 11.8496 2.60352C12.0215 3.16211 12.043 3.69922 11.9141 4.25781C11.7852 4.81641 11.5273 5.28906 11.1406 5.67578L6.99414 9.97266C6.84375 10.123 6.67188 10.1875 6.5 10.1875C6.30664 10.1875 6.13477 10.123 6.00586 9.97266L1.85938 5.69727C1.45117 5.28906 1.19336 4.81641 1.06445 4.25781C0.935547 3.69922 0.978516 3.16211 1.15039 2.60352C1.32227 2.06641 1.62305 1.61523 2.07422 1.22852C2.46094 0.90625 2.89062 0.691406 3.38477 0.605469C3.85742 0.519531 4.35156 0.5625 4.82422 0.712891C5.29688 0.884766 5.70508 1.14258 6.07031 1.50781L6.5 1.9375L6.92969 1.50781C7.27344 1.14258 7.70312 0.884766 8.17578 0.712891C8.64844 0.5625 9.12109 0.519531 9.61523 0.605469C10.0879 0.691406 10.5391 0.90625 10.9258 1.22852Z" fill="#FF224A"/>
</svg>
