<svg width="10" height="11" viewBox="0 0 10 11" fill="none" xmlns="http://www.w3.org/2000/svg">
<path d="M5 2.9043C3.625 2.9043 2.5293 4.02148 2.5293 5.375C2.5293 6.75 3.625 7.8457 5 7.8457C6.35352 7.8457 7.4707 6.75 7.4707 5.375C7.4707 4.02148 6.35352 2.9043 5 2.9043ZM5 6.98633C4.11914 6.98633 3.38867 6.27734 3.38867 5.375C3.38867 4.49414 4.09766 3.78516 5 3.78516C5.88086 3.78516 6.58984 4.49414 6.58984 5.375C6.58984 6.27734 5.88086 6.98633 5 6.98633ZM8.13672 2.81836C8.13672 2.49609 7.87891 2.23828 7.55664 2.23828C7.23438 2.23828 6.97656 2.49609 6.97656 2.81836C6.97656 3.14062 7.23438 3.39844 7.55664 3.39844C7.87891 3.39844 8.13672 3.14062 8.13672 2.81836ZM9.76953 3.39844C9.72656 2.625 9.55469 1.9375 8.99609 1.37891C8.4375 0.820312 7.75 0.648438 6.97656 0.605469C6.18164 0.5625 3.79688 0.5625 3.00195 0.605469C2.22852 0.648438 1.5625 0.820312 0.982422 1.37891C0.423828 1.9375 0.251953 2.625 0.208984 3.39844C0.166016 4.19336 0.166016 6.57812 0.208984 7.37305C0.251953 8.14648 0.423828 8.8125 0.982422 9.39258C1.5625 9.95117 2.22852 10.123 3.00195 10.166C3.79688 10.209 6.18164 10.209 6.97656 10.166C7.75 10.123 8.4375 9.95117 8.99609 9.39258C9.55469 8.8125 9.72656 8.14648 9.76953 7.37305C9.8125 6.57812 9.8125 4.19336 9.76953 3.39844ZM8.73828 8.21094C8.58789 8.64062 8.24414 8.96289 7.83594 9.13477C7.19141 9.39258 5.6875 9.32812 5 9.32812C4.29102 9.32812 2.78711 9.39258 2.16406 9.13477C1.73438 8.96289 1.41211 8.64062 1.24023 8.21094C0.982422 7.58789 1.04688 6.08398 1.04688 5.375C1.04688 4.6875 0.982422 3.18359 1.24023 2.53906C1.41211 2.13086 1.73438 1.80859 2.16406 1.63672C2.78711 1.37891 4.29102 1.44336 5 1.44336C5.6875 1.44336 7.19141 1.37891 7.83594 1.63672C8.24414 1.78711 8.56641 2.13086 8.73828 2.53906C8.99609 3.18359 8.93164 4.6875 8.93164 5.375C8.93164 6.08398 8.99609 7.58789 8.73828 8.21094Z" fill="currentColor"/>
</svg>
