<svg width="10" height="12" viewBox="0 0 10 12" fill="none" xmlns="http://www.w3.org/2000/svg">
<path d="M8.59375 5.6875C8.87305 5.6875 9.10938 5.79492 9.32422 5.98828C9.51758 6.20312 9.625 6.43945 9.625 6.71875V10.8438C9.625 11.1445 9.51758 11.3809 9.32422 11.5742C9.10938 11.7891 8.87305 11.875 8.59375 11.875H1.03125C0.730469 11.875 0.494141 11.7891 0.300781 11.5742C0.0859375 11.3809 0 11.1445 0 10.8438V6.71875C0 6.43945 0.0859375 6.20312 0.300781 5.98828C0.494141 5.79492 0.730469 5.6875 1.03125 5.6875H1.54688V4.14062C1.54688 3.56055 1.67578 3.02344 1.97656 2.50781C2.27734 2.01367 2.66406 1.62695 3.17969 1.32617C3.67383 1.02539 4.21094 0.875 4.8125 0.875C5.39258 0.875 5.92969 1.02539 6.44531 1.32617C6.93945 1.62695 7.32617 2.01367 7.62695 2.50781C7.92773 3.02344 8.07812 3.56055 8.07812 4.14062V5.6875H8.59375ZM6.35938 5.6875V4.14062C6.35938 3.71094 6.20898 3.3457 5.9082 3.04492C5.60742 2.74414 5.24219 2.59375 4.8125 2.59375C4.38281 2.59375 4.01758 2.74414 3.7168 3.04492C3.41602 3.3457 3.26562 3.71094 3.26562 4.14062V5.6875H6.35938Z" fill="#FF224A"/>
</svg>
