<svg width="12" height="12" viewBox="0 0 12 12" fill="none" xmlns="http://www.w3.org/2000/svg">
<path d="M7.52539 4.84961C7.375 4.7207 7.22461 4.61328 7.07422 4.48438C6.98828 4.44141 6.92383 4.44141 6.83789 4.44141C6.75195 4.44141 6.6875 4.48438 6.64453 4.52734L6.17188 4.97852C6 5.15039 5.91406 5.36523 5.93555 5.62305C5.93555 5.75195 5.97852 5.83789 6.06445 5.88086C6.15039 5.94531 6.21484 6.00977 6.30078 6.07422C6.60156 6.375 6.75195 6.74023 6.75195 7.16992C6.75195 7.59961 6.60156 7.96484 6.30078 8.26562L4.86133 9.70508C4.56055 10.0059 4.19531 10.1562 3.76562 10.1562C3.33594 10.1562 2.9707 10.0059 2.66992 9.70508C2.36914 9.4043 2.21875 9.03906 2.21875 8.60938C2.21875 8.17969 2.39062 7.81445 2.69141 7.51367L2.9707 7.21289C3.05664 7.12695 3.09961 6.99805 3.05664 6.86914C2.92773 6.50391 2.8418 6.11719 2.8418 5.73047C2.82031 5.60156 2.73438 5.49414 2.60547 5.42969C2.47656 5.38672 2.34766 5.4082 2.26172 5.49414L1.44531 6.31055C1.01562 6.74023 0.736328 7.21289 0.607422 7.77148C0.457031 8.33008 0.457031 8.88867 0.607422 9.44727C0.736328 10.0059 1.01562 10.5 1.44531 10.9297C1.875 11.3594 2.36914 11.6387 2.92773 11.7676C3.48633 11.918 4.04492 11.918 4.60352 11.7676C5.16211 11.6387 5.63477 11.3594 6.06445 10.9297L7.52539 9.46875C7.93359 9.06055 8.21289 8.56641 8.36328 8.00781C8.49219 7.44922 8.49219 6.89062 8.36328 6.33203C8.21289 5.77344 7.93359 5.2793 7.52539 4.84961ZM10.5547 1.82031C10.9629 2.25 11.2422 2.74414 11.3926 3.30273C11.5215 3.86133 11.5215 4.41992 11.3926 4.97852C11.2422 5.53711 10.9629 6.03125 10.5547 6.43945L9.73828 7.25586C9.63086 7.36328 9.50195 7.38477 9.37305 7.32031C9.24414 7.27734 9.1582 7.16992 9.1582 7.01953C9.13672 6.63281 9.07227 6.26758 8.94336 5.88086C8.90039 5.75195 8.92188 5.64453 9.0293 5.53711L9.30859 5.23633C9.60938 4.93555 9.75977 4.5918 9.75977 4.16211C9.75977 3.73242 9.63086 3.36719 9.33008 3.06641C9.0293 2.76562 8.66406 2.59375 8.23438 2.59375C7.80469 2.59375 7.43945 2.74414 7.13867 3.04492L5.69922 4.48438C5.39844 4.78516 5.24805 5.15039 5.24805 5.58008C5.24805 6.00977 5.39844 6.375 5.69922 6.67578C5.76367 6.76172 5.84961 6.82617 5.93555 6.86914C6.02148 6.93359 6.06445 7.01953 6.06445 7.12695C6.06445 7.38477 6 7.59961 5.82812 7.77148L5.35547 8.22266C5.29102 8.28711 5.22656 8.33008 5.14062 8.33008C5.05469 8.33008 4.99023 8.30859 4.92578 8.26562C4.75391 8.1582 4.60352 8.0293 4.47461 7.90039C4.04492 7.4707 3.76562 6.97656 3.63672 6.41797C3.48633 5.85938 3.48633 5.30078 3.63672 4.74219C3.76562 4.18359 4.04492 3.71094 4.47461 3.28125L5.93555 1.82031C6.34375 1.41211 6.83789 1.13281 7.39648 0.982422C7.95508 0.853516 8.51367 0.853516 9.07227 0.982422C9.63086 1.13281 10.125 1.41211 10.5547 1.82031Z" fill="#FF224A"/>
</svg>
