<svg width="11" height="10" viewBox="0 0 11 10" fill="none" xmlns="http://www.w3.org/2000/svg">
<path d="M9.96875 9.6875C10.248 9.6875 10.4844 9.60156 10.6992 9.38672C10.8926 9.19336 11 8.95703 11 8.65625V1.09375C11 0.814453 10.8926 0.578125 10.6992 0.363281C10.4844 0.169922 10.248 0.0625 9.96875 0.0625H1.03125C0.730469 0.0625 0.494141 0.169922 0.300781 0.363281C0.0859375 0.578125 0 0.814453 0 1.09375V8.65625C0 8.95703 0.0859375 9.19336 0.300781 9.38672C0.494141 9.60156 0.730469 9.6875 1.03125 9.6875H9.96875ZM2.75 1.95312C2.98633 1.95312 3.17969 2.03906 3.35156 2.21094C3.52344 2.38281 3.60938 2.57617 3.60938 2.8125C3.60938 3.07031 3.52344 3.26367 3.35156 3.43555C3.17969 3.60742 2.98633 3.67188 2.75 3.67188C2.49219 3.67188 2.29883 3.60742 2.12695 3.43555C1.95508 3.26367 1.89062 3.07031 1.89062 2.8125C1.89062 2.57617 1.95508 2.38281 2.12695 2.21094C2.29883 2.03906 2.49219 1.95312 2.75 1.95312ZM2.75 4.01562C2.98633 4.01562 3.17969 4.10156 3.35156 4.27344C3.52344 4.44531 3.60938 4.63867 3.60938 4.875C3.60938 5.13281 3.52344 5.32617 3.35156 5.49805C3.17969 5.66992 2.98633 5.73438 2.75 5.73438C2.49219 5.73438 2.29883 5.66992 2.12695 5.49805C1.95508 5.32617 1.89062 5.13281 1.89062 4.875C1.89062 4.63867 1.95508 4.44531 2.12695 4.27344C2.29883 4.10156 2.49219 4.01562 2.75 4.01562ZM2.75 6.07812C2.98633 6.07812 3.17969 6.16406 3.35156 6.33594C3.52344 6.50781 3.60938 6.70117 3.60938 6.9375C3.60938 7.19531 3.52344 7.38867 3.35156 7.56055C3.17969 7.73242 2.98633 7.79688 2.75 7.79688C2.49219 7.79688 2.29883 7.73242 2.12695 7.56055C1.95508 7.38867 1.89062 7.19531 1.89062 6.9375C1.89062 6.70117 1.95508 6.50781 2.12695 6.33594C2.29883 6.16406 2.49219 6.07812 2.75 6.07812ZM8.9375 3.15625C8.9375 3.24219 8.89453 3.30664 8.85156 3.34961C8.80859 3.39258 8.74414 3.41406 8.67969 3.41406H4.38281C4.29688 3.41406 4.23242 3.39258 4.18945 3.34961C4.14648 3.30664 4.125 3.24219 4.125 3.15625V2.46875C4.125 2.4043 4.14648 2.33984 4.18945 2.29688C4.23242 2.25391 4.29688 2.21094 4.38281 2.21094H8.67969C8.74414 2.21094 8.80859 2.25391 8.85156 2.29688C8.89453 2.33984 8.9375 2.4043 8.9375 2.46875V3.15625ZM8.9375 5.21875C8.9375 5.30469 8.89453 5.36914 8.85156 5.41211C8.80859 5.45508 8.74414 5.47656 8.67969 5.47656H4.38281C4.29688 5.47656 4.23242 5.45508 4.18945 5.41211C4.14648 5.36914 4.125 5.30469 4.125 5.21875V4.53125C4.125 4.4668 4.14648 4.40234 4.18945 4.35938C4.23242 4.31641 4.29688 4.27344 4.38281 4.27344H8.67969C8.74414 4.27344 8.80859 4.31641 8.85156 4.35938C8.89453 4.40234 8.9375 4.4668 8.9375 4.53125V5.21875ZM8.9375 7.28125C8.9375 7.36719 8.89453 7.43164 8.85156 7.47461C8.80859 7.51758 8.74414 7.53906 8.67969 7.53906H4.38281C4.29688 7.53906 4.23242 7.51758 4.18945 7.47461C4.14648 7.43164 4.125 7.36719 4.125 7.28125V6.59375C4.125 6.5293 4.14648 6.46484 4.18945 6.42188C4.23242 6.37891 4.29688 6.33594 4.38281 6.33594H8.67969C8.74414 6.33594 8.80859 6.37891 8.85156 6.42188C8.89453 6.46484 8.9375 6.5293 8.9375 6.59375V7.28125Z" fill="currentColor"/>
</svg>
