<svg width="11" height="12" viewBox="0 0 11 12" fill="none" xmlns="http://www.w3.org/2000/svg">
<path d="M0.257812 3.55469C0.0859375 3.46875 0 3.33984 0 3.125C0 2.93164 0.0859375 2.78125 0.257812 2.69531L5.26367 0.417969C5.41406 0.353516 5.56445 0.353516 5.73633 0.417969L10.7422 2.69531C10.9141 2.78125 11 2.93164 11 3.125C11 3.33984 10.9141 3.46875 10.7422 3.55469L5.73633 5.83203C5.56445 5.91797 5.41406 5.91797 5.26367 5.83203L0.257812 3.55469ZM10.7422 5.44531C10.9141 5.53125 11 5.68164 11 5.89648C11 6.11133 10.9141 6.24023 10.7422 6.30469L5.73633 8.58203C5.56445 8.66797 5.41406 8.66797 5.26367 8.58203L0.257812 6.30469C0.0859375 6.24023 0 6.11133 0 5.89648C0 5.68164 0.0859375 5.53125 0.257812 5.44531L1.52539 4.88672L4.98438 6.45508C5.15625 6.54102 5.32812 6.5625 5.5 6.5625C5.67188 6.5625 5.84375 6.54102 6.01562 6.45508L9.49609 4.88672L10.7422 5.44531ZM10.7422 8.19531C10.9141 8.28125 11 8.43164 11 8.625C11 8.83984 10.9141 8.96875 10.7422 9.05469L5.73633 11.332C5.56445 11.418 5.41406 11.418 5.26367 11.332L0.257812 9.05469C0.0859375 8.96875 0 8.83984 0 8.625C0 8.43164 0.0859375 8.28125 0.257812 8.19531L1.50391 7.63672L4.98438 9.20508C5.15625 9.29102 5.32812 9.3125 5.5 9.3125C5.67188 9.3125 5.84375 9.29102 6.01562 9.20508L9.49609 7.63672L10.7422 8.19531Z" fill="#FF6E6E"/>
</svg>
