<svg width="11" height="12" viewBox="0 0 11 12" fill="none" xmlns="http://www.w3.org/2000/svg">
<path d="M11 1.0625V8.625C11 9.01172 10.7852 9.35547 10.3984 9.61328C9.99023 9.87109 9.49609 10 8.9375 10C8.35742 10 7.86328 9.87109 7.47656 9.61328C7.06836 9.35547 6.875 9.01172 6.875 8.625C6.875 8.23828 7.06836 7.91602 7.47656 7.6582C7.86328 7.40039 8.35742 7.25 8.9375 7.25C9.15234 7.25 9.36719 7.29297 9.625 7.33594V3.36133L4.125 4.97266V10C4.125 10.3867 3.91016 10.7305 3.52344 10.9883C3.11523 11.2461 2.62109 11.375 2.0625 11.375C1.48242 11.375 0.988281 11.2461 0.601562 10.9883C0.193359 10.7305 0 10.3867 0 10C0 9.61328 0.193359 9.29102 0.601562 9.0332C0.988281 8.77539 1.48242 8.625 2.0625 8.625C2.27734 8.625 2.49219 8.66797 2.75 8.71094V3.10352C2.75 2.95312 2.79297 2.82422 2.87891 2.69531C2.96484 2.56641 3.07227 2.48047 3.22266 2.4375L10.0977 0.396484C10.3125 0.353516 10.5273 0.396484 10.7207 0.525391C10.8926 0.654297 11 0.847656 11 1.0625Z" fill="#FF224A"/>
</svg>
