<svg width="12" height="11" viewBox="0 0 12 11" fill="none" xmlns="http://www.w3.org/2000/svg">
<path d="M1.875 1.9375C2.73438 1.9375 3.55078 2.15234 4.28125 2.58203C5.01172 3.01172 5.61328 3.61328 6.04297 4.34375C6.47266 5.07422 6.6875 5.89062 6.6875 6.75V9.84375C6.6875 9.95117 6.64453 10.0371 6.58008 10.1016C6.51562 10.166 6.42969 10.1875 6.34375 10.1875H5.65625C5.54883 10.1875 5.46289 10.166 5.39844 10.1016C5.33398 10.0371 5.3125 9.95117 5.3125 9.84375V6.75C4.43164 6.75 3.61523 6.53516 2.88477 6.10547C2.1543 5.67578 1.57422 5.0957 1.14453 4.36523C0.714844 3.63477 0.5 2.81836 0.5 1.9375H1.875ZM10.125 0.5625H11.5C11.5 1.37891 11.3066 2.15234 10.9199 2.83984C10.5332 3.54883 10.0176 4.12891 9.37305 4.55859C8.70703 5.00977 7.97656 5.26758 7.18164 5.35352C6.94531 4.49414 6.51562 3.7207 5.91406 3.0332C6.34375 2.30273 6.92383 1.70117 7.67578 1.25C8.40625 0.798828 9.22266 0.5625 10.125 0.5625Z" fill="currentColor"/>
</svg>
