<svg width="12" height="11" viewBox="0 0 12 11" fill="none" xmlns="http://www.w3.org/2000/svg">
<path d="M0.84375 2.625C0.736328 2.625 0.650391 2.60352 0.585938 2.53906C0.521484 2.47461 0.5 2.38867 0.5 2.28125V0.90625C0.5 0.820312 0.521484 0.734375 0.585938 0.669922C0.650391 0.605469 0.736328 0.5625 0.84375 0.5625H9.78125C9.86719 0.5625 9.95312 0.605469 10.0176 0.669922C10.082 0.734375 10.125 0.820312 10.125 0.90625V2.28125C10.125 2.38867 10.082 2.47461 10.0176 2.53906C9.95312 2.60352 9.86719 2.625 9.78125 2.625H0.84375ZM11.1562 4.34375C11.2422 4.34375 11.3281 4.38672 11.3926 4.45117C11.457 4.51562 11.5 4.60156 11.5 4.6875V6.0625C11.5 6.16992 11.457 6.25586 11.3926 6.32031C11.3281 6.38477 11.2422 6.40625 11.1562 6.40625H2.21875C2.11133 6.40625 2.02539 6.38477 1.96094 6.32031C1.89648 6.25586 1.875 6.16992 1.875 6.0625V4.6875C1.875 4.60156 1.89648 4.51562 1.96094 4.45117C2.02539 4.38672 2.11133 4.34375 2.21875 4.34375H11.1562ZM9.78125 8.125C9.86719 8.125 9.95312 8.16797 10.0176 8.23242C10.082 8.29688 10.125 8.38281 10.125 8.46875V9.84375C10.125 9.95117 10.082 10.0371 10.0176 10.1016C9.95312 10.166 9.86719 10.1875 9.78125 10.1875H0.84375C0.736328 10.1875 0.650391 10.166 0.585938 10.1016C0.521484 10.0371 0.5 9.95117 0.5 9.84375V8.46875C0.5 8.38281 0.521484 8.29688 0.585938 8.23242C0.650391 8.16797 0.736328 8.125 0.84375 8.125H9.78125Z" fill="currentColor"/>
</svg>
