<svg width="10" height="12" viewBox="0 0 10 12" fill="none" xmlns="http://www.w3.org/2000/svg">
<path d="M5 6.375C4.48438 6.375 4.0332 6.26758 3.60352 6.00977C3.17383 5.77344 2.85156 5.45117 2.61523 5.02148C2.35742 4.5918 2.25 4.14062 2.25 3.625C2.25 3.13086 2.35742 2.67969 2.61523 2.25C2.85156 1.82031 3.17383 1.49805 3.60352 1.24023C4.0332 1.00391 4.48438 0.875 5 0.875C5.49414 0.875 5.94531 1.00391 6.375 1.24023C6.80469 1.49805 7.12695 1.82031 7.38477 2.25C7.62109 2.67969 7.75 3.13086 7.75 3.625C7.75 4.14062 7.62109 4.5918 7.38477 5.02148C7.12695 5.45117 6.80469 5.77344 6.375 6.00977C5.94531 6.26758 5.49414 6.375 5 6.375ZM6.93359 7.0625C7.44922 7.0625 7.92188 7.19141 8.37305 7.44922C8.80273 7.70703 9.16797 8.07227 9.42578 8.50195C9.68359 8.95312 9.8125 9.42578 9.8125 9.94141V10.8438C9.8125 11.1445 9.70508 11.3809 9.51172 11.5742C9.29688 11.7891 9.06055 11.875 8.78125 11.875H1.21875C0.917969 11.875 0.681641 11.7891 0.488281 11.5742C0.273438 11.3809 0.1875 11.1445 0.1875 10.8438V9.94141C0.1875 9.42578 0.316406 8.95312 0.574219 8.50195C0.832031 8.07227 1.17578 7.70703 1.62695 7.44922C2.05664 7.19141 2.55078 7.0625 3.06641 7.0625H3.43164C3.92578 7.29883 4.44141 7.40625 5 7.40625C5.53711 7.40625 6.05273 7.29883 6.56836 7.0625H6.93359Z" fill="currentColor"/>
</svg>
