<svg width="14" height="11" viewBox="0 0 14 11" fill="none" xmlns="http://www.w3.org/2000/svg">
<path d="M2.0625 4.6875C1.67578 4.6875 1.35352 4.55859 1.0957 4.2793C0.816406 4.02148 0.6875 3.69922 0.6875 3.3125C0.6875 2.94727 0.816406 2.625 1.0957 2.3457C1.35352 2.08789 1.67578 1.9375 2.0625 1.9375C2.42773 1.9375 2.75 2.08789 3.0293 2.3457C3.28711 2.625 3.4375 2.94727 3.4375 3.3125C3.4375 3.69922 3.28711 4.02148 3.0293 4.2793C2.75 4.55859 2.42773 4.6875 2.0625 4.6875ZM11.6875 4.6875C11.3008 4.6875 10.9785 4.55859 10.7207 4.2793C10.4414 4.02148 10.3125 3.69922 10.3125 3.3125C10.3125 2.94727 10.4414 2.625 10.7207 2.3457C10.9785 2.08789 11.3008 1.9375 11.6875 1.9375C12.0527 1.9375 12.375 2.08789 12.6543 2.3457C12.9121 2.625 13.0625 2.94727 13.0625 3.3125C13.0625 3.69922 12.9121 4.02148 12.6543 4.2793C12.375 4.55859 12.0527 4.6875 11.6875 4.6875ZM12.375 5.375C12.7402 5.375 13.0625 5.52539 13.3418 5.7832C13.5996 6.0625 13.75 6.38477 13.75 6.75V7.4375C13.75 7.63086 13.6641 7.80273 13.5352 7.93164C13.4062 8.06055 13.2344 8.125 13.0625 8.125H11.6445C11.5586 7.63086 11.3867 7.17969 11.1074 6.75C10.8066 6.3418 10.4629 6.01953 10.0332 5.7832C10.291 5.52539 10.6133 5.375 11 5.375H12.375ZM6.875 5.375C6.44531 5.375 6.03711 5.26758 5.67188 5.05273C5.28516 4.83789 5.00586 4.55859 4.79102 4.17188C4.57617 3.80664 4.46875 3.39844 4.46875 2.96875C4.46875 2.53906 4.57617 2.15234 4.79102 1.76562C5.00586 1.40039 5.28516 1.09961 5.67188 0.884766C6.03711 0.669922 6.44531 0.5625 6.875 0.5625C7.30469 0.5625 7.69141 0.669922 8.07812 0.884766C8.44336 1.09961 8.74414 1.40039 8.95898 1.76562C9.17383 2.15234 9.28125 2.53906 9.28125 2.96875C9.28125 3.39844 9.17383 3.80664 8.95898 4.17188C8.74414 4.55859 8.44336 4.83789 8.07812 5.05273C7.69141 5.26758 7.30469 5.375 6.875 5.375ZM8.5293 6.0625C8.95898 6.0625 9.36719 6.19141 9.75391 6.40625C10.1406 6.62109 10.4414 6.92188 10.6562 7.30859C10.8711 7.69531 11 8.10352 11 8.5332V9.15625C11 9.45703 10.8926 9.69336 10.6992 9.88672C10.4844 10.1016 10.248 10.1875 9.96875 10.1875H3.78125C3.48047 10.1875 3.24414 10.1016 3.05078 9.88672C2.83594 9.69336 2.75 9.45703 2.75 9.15625V8.5332C2.75 8.10352 2.85742 7.69531 3.07227 7.30859C3.28711 6.92188 3.58789 6.62109 3.97461 6.40625C4.36133 6.19141 4.76953 6.0625 5.2207 6.0625H5.39258C5.86523 6.29883 6.35938 6.40625 6.875 6.40625C7.36914 6.40625 7.86328 6.29883 8.35742 6.0625H8.5293ZM3.7168 5.7832C3.28711 6.01953 2.92188 6.3418 2.64258 6.75C2.3418 7.17969 2.16992 7.63086 2.10547 8.125H0.6875C0.494141 8.125 0.322266 8.06055 0.193359 7.93164C0.0644531 7.80273 0 7.63086 0 7.4375V6.75C0 6.38477 0.128906 6.0625 0.408203 5.7832C0.666016 5.52539 0.988281 5.375 1.375 5.375H2.75C3.11523 5.375 3.4375 5.52539 3.7168 5.7832Z" fill="#FF224A"/>
</svg>
