<svg width="24" height="24" viewBox="0 0 24 24" fill="none" xmlns="http://www.w3.org/2000/svg">
<path d="M13.4472 9.39443C13.9412 9.14744 14.1414 8.54676 13.8944 8.05279C13.6474 7.55881 13.0468 7.35858 12.5528 7.60557L13.4472 9.39443ZM12.5528 16.3944C13.0468 16.6414 13.6474 16.4412 13.8944 15.9472C14.1414 15.4532 13.9412 14.8526 13.4472 14.6056L12.5528 16.3944ZM9.44721 11.3944L13.4472 9.39443L12.5528 7.60557L8.55279 9.60557L9.44721 11.3944ZM13.4472 14.6056L9.44721 12.6056L8.55279 14.3944L12.5528 16.3944L13.4472 14.6056Z" fill="currentColor"/>
<circle cx="6" cy="12" r="3" stroke="currentColor" stroke-width="2"/>
<circle cx="16" cy="7" r="3" stroke="currentColor" stroke-width="2"/>
<circle cx="16" cy="17" r="3" stroke="currentColor" stroke-width="2"/>
</svg>
