<svg width="32" height="32" viewBox="0 0 32 32" fill="none" xmlns="http://www.w3.org/2000/svg">
<path d="M13.6456 12.0728H12.1414L9.97235 13.4662V14.9151L12.0135 13.6111H12.0647V20.8H13.6456V12.0728ZM18.8956 20.9194C20.7408 20.9194 22.0277 19.6665 22.0277 17.9322C22.0277 16.2532 20.8601 15.0429 19.2749 15.0429C18.5675 15.0429 17.9411 15.3242 17.6172 15.7077H17.5661L17.8175 13.3938H21.5718V12.0728H16.5093L16.0533 16.5728L17.4809 16.8072C17.7749 16.4833 18.3289 16.266 18.853 16.2702C19.8118 16.2745 20.5022 16.9819 20.4979 17.9705C20.5022 18.9464 19.8289 19.641 18.8956 19.641C18.1073 19.641 17.4724 19.1424 17.417 18.4265H15.8829C15.9255 19.8753 17.1911 20.9194 18.8956 20.9194Z"/>
<path fill-rule="evenodd" clip-rule="evenodd" d="M23.7419 9.67C23.3921 9.24264 23.3877 8.61235 23.7782 8.22183C24.1687 7.8313 24.8054 7.82879 25.1623 8.25029C26.9325 10.3411 28 13.0459 28 16C28 22.6274 22.6274 28 16 28C9.37258 28 4 22.6274 4 16C4 9.37258 9.37258 4 16 4C16.6327 4 17.2539 4.04896 17.8602 4.1433C18.6066 4.25947 18.84 5.16002 18.3058 5.69419L18.2044 5.79556C17.9716 6.02841 17.6395 6.12824 17.313 6.08542C16.8833 6.02907 16.445 6 16 6C10.4772 6 6 10.4772 6 16C6 21.5228 10.4772 26 16 26C21.5228 26 26 21.5228 26 16C26 13.5981 25.1532 11.3941 23.7419 9.67Z" fill="currentColor"/>
<path d="M16 1.92815L16 8.04173C16 8.85797 16.9251 9.33039 17.5863 8.8518L21.8658 5.75425C22.4217 5.35192 22.4165 4.52207 21.8556 4.12678L17.5761 1.11076C16.9136 0.643863 16 1.11768 16 1.92815Z" fill="currentColor"/>
</svg>
