<svg width="24" height="24" viewBox="0 0 24 24" fill="none" xmlns="http://www.w3.org/2000/svg">
<path d="M20.7071 4.70711C21.0976 4.31658 21.0976 3.68342 20.7071 3.29289C20.3166 2.90237 19.6834 2.90237 19.2929 3.29289L20.7071 4.70711ZM3.29289 19.2929C2.90237 19.6834 2.90237 20.3166 3.29289 20.7071C3.68342 21.0976 4.31658 21.0976 4.70711 20.7071L3.29289 19.2929ZM19.2929 3.29289L3.29289 19.2929L4.70711 20.7071L20.7071 4.70711L19.2929 3.29289Z" fill="#323E48"/>
<path d="M19.2929 20.7071C19.6834 21.0976 20.3166 21.0976 20.7071 20.7071C21.0976 20.3166 21.0976 19.6834 20.7071 19.2929L19.2929 20.7071ZM4.70711 3.2929C4.31658 2.90237 3.68342 2.90237 3.29289 3.2929C2.90237 3.68342 2.90237 4.31658 3.29289 4.70711L4.70711 3.2929ZM20.7071 19.2929L4.70711 3.2929L3.29289 4.70711L19.2929 20.7071L20.7071 19.2929Z" fill="#323E48"/>
</svg>
