<svg width="40" height="40" viewBox="0 0 40 40" fill="none" xmlns="http://www.w3.org/2000/svg">
<path fill-rule="evenodd" clip-rule="evenodd" d="M29.8995 10.1005C29.509 10.491 29.5122 11.1218 29.8718 11.5411C31.8218 13.8147 33 16.7698 33 20C33 27.1797 27.1797 33 20 33C12.8203 33 7 27.1797 7 20C7 12.8203 12.8203 7 20 7C20.7438 7 21.473 7.06246 22.1826 7.18243C22.5165 7.23887 22.8604 7.13964 23.0998 6.9002L23.1773 6.82272C23.7114 6.28856 23.4794 5.38597 22.7365 5.24903C21.8492 5.08547 20.9346 5 20 5C11.7157 5 5 11.7157 5 20C5 28.2843 11.7157 35 20 35C28.2843 35 35 28.2843 35 20C35 16.2175 33.5999 12.762 31.2898 10.1234C30.926 9.70789 30.29 9.70998 29.8995 10.1005Z" fill="#FF224A"/>
<path d="M16.767 14.3636H14.7614L11.8693 16.2216V18.1534L14.5909 16.4148H14.6591V26H16.767V14.3636ZM23.767 26.1591C26.2273 26.1591 27.9432 24.4886 27.9432 22.1761C27.9432 19.9375 26.3864 18.3239 24.2727 18.3239C23.3295 18.3239 22.4943 18.6989 22.0625 19.2102H21.9943L22.3295 16.125H27.3352V14.3636H20.5852L19.9773 20.3636L21.8807 20.6761C22.2727 20.2443 23.0114 19.9545 23.7102 19.9602C24.9886 19.9659 25.9091 20.9091 25.9034 22.2273C25.9091 23.5284 25.0114 24.4545 23.767 24.4545C22.7159 24.4545 21.8693 23.7898 21.7955 22.8352H19.75C19.8068 24.767 21.4943 26.1591 23.767 26.1591Z" fill="#323E48"/>
<path d="M20 1.85472L20 10.1176C20 10.9191 20.8957 11.3949 21.5598 10.9463L27.757 6.75973C28.3483 6.36026 28.3429 5.48779 27.7467 5.09563L21.5495 1.01926C20.8846 0.581875 20 1.05882 20 1.85472Z" fill="#FF224A"/>
</svg>
