<svg width="12" height="12" viewBox="0 0 12 12" fill="none" xmlns="http://www.w3.org/2000/svg">
<path fill-rule="evenodd" clip-rule="evenodd" d="M0.5 3.9375C0.5 2.79841 1.42341 1.875 2.5625 1.875H4.28125C4.4711 1.875 4.625 2.0289 4.625 2.21875V2.90625C4.625 3.0961 4.4711 3.25 4.28125 3.25H2.5625C2.1828 3.25 1.875 3.5578 1.875 3.9375V8.0625C1.875 8.4422 2.1828 8.75 2.5625 8.75H4.28125C4.4711 8.75 4.625 8.9039 4.625 9.09375V9.78125C4.625 9.9711 4.4711 10.125 4.28125 10.125H2.5625C1.42341 10.125 0.5 9.20159 0.5 8.0625V3.9375Z" fill="currentColor"/>
<path fill-rule="evenodd" clip-rule="evenodd" d="M7.35415 2.19834C7.48839 2.0641 7.70604 2.0641 7.84028 2.19834L11.3993 5.75737C11.4664 5.82449 11.5 5.91246 11.5 6.00043C11.5 6.0884 11.4664 6.17638 11.3993 6.24351L7.84028 9.80254C7.70604 9.93678 7.48839 9.93678 7.35415 9.80254L6.62494 9.07334C6.4907 8.9391 6.4907 8.72145 6.62494 8.5872L8.35233 6.85982H4.28125C4.0914 6.85982 3.9375 6.70591 3.9375 6.51607V5.48482C3.9375 5.29497 4.0914 5.14107 4.28125 5.14107H8.35233L6.62494 3.41368C6.4907 3.27944 6.4907 3.06178 6.62494 2.92754L7.35415 2.19834Z" fill="currentColor"/>
</svg>
