<svg width="24" height="24" viewBox="0 0 24 24" fill="none" xmlns="http://www.w3.org/2000/svg">
<circle cx="12" cy="12" r="8" stroke="white" stroke-width="2"/>
<path d="M11.1328 14.2685V14.0994C11.1361 13.5194 11.1875 13.0571 11.2869 12.7124C11.3897 12.3677 11.5388 12.0893 11.7344 11.8771C11.9299 11.665 12.1652 11.4728 12.4403 11.3004C12.6458 11.1679 12.8298 11.0303 12.9922 10.8878C13.1546 10.7453 13.2839 10.5878 13.38 10.4155C13.4761 10.2398 13.5241 10.0443 13.5241 9.82884C13.5241 9.60014 13.4695 9.39962 13.3601 9.22727C13.2507 9.05492 13.1032 8.92235 12.9176 8.82955C12.7353 8.73674 12.5331 8.69034 12.3111 8.69034C12.0956 8.69034 11.8918 8.7384 11.6996 8.83452C11.5073 8.92732 11.3499 9.06652 11.2273 9.25213C11.1046 9.43442 11.0384 9.66146 11.0284 9.93324H9C9.01657 9.27036 9.17566 8.72348 9.47727 8.29261C9.77888 7.85843 10.1783 7.53527 10.6754 7.32315C11.1726 7.10772 11.7211 7 12.321 7C12.9806 7 13.5639 7.10938 14.071 7.32812C14.5781 7.54356 14.9759 7.85677 15.2642 8.26776C15.5526 8.67874 15.6967 9.17424 15.6967 9.75426C15.6967 10.142 15.6321 10.4867 15.5028 10.7884C15.3769 11.0866 15.1996 11.3518 14.9709 11.5838C14.7422 11.8125 14.4721 12.0196 14.1605 12.2053C13.8987 12.361 13.6832 12.5234 13.5142 12.6925C13.3485 12.8615 13.2242 13.0571 13.1413 13.2791C13.0618 13.5012 13.0204 13.7746 13.017 14.0994V14.2685H11.1328ZM12.1172 17.4503C11.7857 17.4503 11.5024 17.3343 11.267 17.1023C11.035 16.867 10.9207 16.5852 10.924 16.2571C10.9207 15.9323 11.035 15.6539 11.267 15.4219C11.5024 15.1899 11.7857 15.0739 12.1172 15.0739C12.4321 15.0739 12.7088 15.1899 12.9474 15.4219C13.1861 15.6539 13.3071 15.9323 13.3104 16.2571C13.3071 16.4759 13.2491 16.6764 13.1364 16.8587C13.027 17.0376 12.8828 17.1818 12.7038 17.2912C12.5249 17.3973 12.3293 17.4503 12.1172 17.4503Z" fill="white"/>
</svg>
