<svg width="36" height="36" viewBox="0 0 36 36" fill="none" xmlns="http://www.w3.org/2000/svg">
<path d="M0 21.5898V27.8098C0 28.3498 0.44 28.7798 0.98 28.7998C7.02 29.0098 12.99 31.5598 17.31 35.6698C17.7 36.0398 18.31 36.0498 18.7 35.6698C20.22 34.2398 21.91 32.9898 23.74 31.9698C17.82 25.5898 9.37 21.5898 0 21.5898Z" fill="#FF224A"/>
<path d="M0 10.791V17.991C10.83 17.991 20.55 22.801 27.15 30.391C29.63 29.461 32.29 28.911 35.07 28.811C27.22 17.911 14.43 10.791 0 10.791Z" fill="#FF224A"/>
<path d="M13.36 1.66016C9.33 0.64016 5.18 0.09016 1.02 0.000160023C0.46 -0.00983998 0 0.45016 0 1.01016V7.19016C14.46 7.19016 27.41 13.7902 36 24.1202V13.7802C29.63 8.07016 21.9 3.84016 13.36 1.66016Z" fill="#FF224A"/>
<path d="M23.55 1.45016C28.03 3.46016 32.21 6.03016 36 9.07016V1.01016C36 0.45016 35.54 -0.00983998 34.98 0.000160023C31.06 0.07016 27.23 0.58016 23.55 1.45016Z" fill="#FF224A"/>
</svg>
