<svg width="24" height="24" viewBox="0 0 24 24" fill="none" xmlns="http://www.w3.org/2000/svg">
<path d="M17 13L17 20" stroke="currentColor" stroke-linecap="round" stroke-linejoin="bevel"/>
<path d="M20 12C20 7.58172 16.4183 4 12 4C7.58172 4 4 7.58172 4 12" stroke="currentColor" stroke-linecap="round" stroke-linejoin="round"/>
<path d="M20 15V18" stroke="currentColor" stroke-linecap="round" stroke-linejoin="round"/>
<path d="M4 15V16" stroke="currentColor" stroke-linecap="round" stroke-linejoin="round"/>
<path d="M10.3536 19.3536C10.5488 19.1583 10.5488 18.8417 10.3536 18.6464C10.1583 18.4512 9.84171 18.4512 9.64645 18.6464L10.3536 19.3536ZM7 22L6.64645 22.3536C6.84171 22.5488 7.15829 22.5488 7.35355 22.3536L7 22ZM4.35355 18.6464C4.15829 18.4512 3.84171 18.4512 3.64645 18.6464C3.45118 18.8417 3.45118 19.1583 3.64645 19.3536L4.35355 18.6464ZM7.5 13C7.5 12.7239 7.27614 12.5 7 12.5C6.72386 12.5 6.5 12.7239 6.5 13H7.5ZM9.64645 18.6464L6.64645 21.6464L7.35355 22.3536L10.3536 19.3536L9.64645 18.6464ZM7.35355 21.6464L4.35355 18.6464L3.64645 19.3536L6.64645 22.3536L7.35355 21.6464ZM7.5 22V13H6.5V22H7.5Z" fill="currentColor"/>
</svg>
