<svg width="24" height="24" viewBox="0 0 24 24" fill="none" xmlns="http://www.w3.org/2000/svg">
<path d="M7.35355 19.3536C7.54882 19.1583 7.54882 18.8417 7.35355 18.6464C7.15829 18.4512 6.84171 18.4512 6.64645 18.6464L7.35355 19.3536ZM4 22L3.64645 22.3536C3.84171 22.5488 4.15829 22.5488 4.35355 22.3536L4 22ZM1.35355 18.6464C1.15829 18.4512 0.841709 18.4512 0.646447 18.6464C0.451184 18.8417 0.451184 19.1583 0.646447 19.3536L1.35355 18.6464ZM4 7V6.5C3.72386 6.5 3.5 6.72386 3.5 7H4ZM20 7H20.5C20.5 6.72386 20.2761 6.5 20 6.5V7ZM20 17V17.5C20.2761 17.5 20.5 17.2761 20.5 17H20ZM7 16.5C6.72386 16.5 6.5 16.7239 6.5 17C6.5 17.2761 6.72386 17.5 7 17.5V16.5ZM6.64645 18.6464L3.64645 21.6464L4.35355 22.3536L7.35355 19.3536L6.64645 18.6464ZM4.35355 21.6464L1.35355 18.6464L0.646447 19.3536L3.64645 22.3536L4.35355 21.6464ZM4 7.5H20V6.5H4V7.5ZM19.5 7V17H20.5V7H19.5ZM20 16.5H7V17.5H20V16.5ZM4.5 22V7H3.5V22H4.5Z" fill="currentColor"/>
<path d="M14.25 11.567C14.5833 11.7594 14.5833 12.2406 14.25 12.433L11.25 14.1651C10.9167 14.3575 10.5 14.117 10.5 13.7321L10.5 10.2679C10.5 9.88305 10.9167 9.64249 11.25 9.83494L14.25 11.567Z" fill="currentColor"/>
</svg>
