<svg width="24" height="24" viewBox="0 0 24 24" fill="none" xmlns="http://www.w3.org/2000/svg">
<path d="M7.70711 19.7071C8.09763 19.3166 8.09763 18.6834 7.70711 18.2929C7.31658 17.9024 6.68342 17.9024 6.29289 18.2929L7.70711 19.7071ZM4 22L3.29289 22.7071C3.68342 23.0976 4.31658 23.0976 4.70711 22.7071L4 22ZM1.70711 18.2929C1.31658 17.9024 0.683418 17.9024 0.292893 18.2929C-0.0976311 18.6834 -0.0976311 19.3166 0.292893 19.7071L1.70711 18.2929ZM4 7V6C3.44772 6 3 6.44772 3 7H4ZM20 7H21C21 6.44772 20.5523 6 20 6V7ZM20 17V18C20.5523 18 21 17.5523 21 17H20ZM9 16C8.44772 16 8 16.4477 8 17C8 17.5523 8.44772 18 9 18V16ZM6.29289 18.2929L3.29289 21.2929L4.70711 22.7071L7.70711 19.7071L6.29289 18.2929ZM4.70711 21.2929L1.70711 18.2929L0.292893 19.7071L3.29289 22.7071L4.70711 21.2929ZM4 8H20V6H4V8ZM19 7V17H21V7H19ZM20 16H9V18H20V16ZM5 22V7H3V22H5Z" fill="currentColor"/>
<path d="M14.25 11.567C14.5833 11.7594 14.5833 12.2406 14.25 12.433L11.25 14.1651C10.9167 14.3575 10.5 14.117 10.5 13.7321L10.5 10.2679C10.5 9.88305 10.9167 9.64249 11.25 9.83494L14.25 11.567Z" fill="currentColor"/>
</svg>
