<svg width="10" height="11" fill="none" xmlns="http://www.w3.org/2000/svg"><path d="M6.375.82a.345.345 0 0 0-.107-.236.345.345 0 0 0-.237-.107h-5.5a.356.356 0 0 0-.258.107.323.323 0 0 0-.086.236v.86c0 .107.022.193.086.258.065.064.15.085.258.085h5.5a.323.323 0 0 0 .237-.086.356.356 0 0 0 .107-.257V.82ZM.187 3.57c0-.086.022-.172.086-.236a.356.356 0 0 1 .258-.107H9.47c.086 0 .172.043.236.107.065.064.107.15.107.236v.86a.356.356 0 0 1-.107.258.323.323 0 0 1-.236.085H.53c-.107 0-.193-.021-.258-.085-.064-.065-.086-.15-.086-.258v-.86Zm.344 6.703c-.107 0-.193-.021-.258-.085-.064-.065-.086-.15-.086-.258v-.86c0-.086.022-.172.086-.236a.356.356 0 0 1 .258-.107H9.47c.086 0 .172.043.236.107.065.064.107.15.107.236v.86a.356.356 0 0 1-.107.258.323.323 0 0 1-.236.085H.53Zm5.5-4.296c.086 0 .172.043.237.107.064.064.107.15.107.236v.86a.356.356 0 0 1-.107.258.323.323 0 0 1-.237.085h-5.5c-.107 0-.193-.021-.258-.085-.064-.065-.086-.15-.086-.258v-.86c0-.086.022-.172.086-.236a.356.356 0 0 1 .258-.107h5.5Z" fill="currentColor"/></svg>