<svg width="10" height="12" fill="none" xmlns="http://www.w3.org/2000/svg"><path d="M9.625 8.61c0 .171-.064.322-.193.408-.043.171-.065.43-.065.794 0 .387.022.645.065.795.129.13.193.258.193.409v.343c0 .15-.064.28-.15.366a.503.503 0 0 1-.366.15H2.063c-.58 0-1.075-.193-1.461-.602-.409-.386-.602-.88-.602-1.46V2.936c0-.558.193-1.052.602-1.46a2.01 2.01 0 0 1 1.46-.602H9.11a.61.61 0 0 1 .366.15.61.61 0 0 1 .15.366v7.218ZM2.75 3.753v.43c0 .043 0 .064.043.086.021.043.043.043.086.043h4.555c.021 0 .043 0 .086-.043.021-.022.043-.043.043-.086v-.43c0-.022-.022-.043-.043-.086-.043-.022-.065-.043-.086-.043H2.879c-.043 0-.065.021-.086.043-.043.043-.043.064-.043.086Zm0 1.375v.43c0 .043 0 .064.043.086.021.043.043.043.086.043h4.555c.021 0 .043 0 .086-.043.021-.022.043-.043.043-.086v-.43c0-.022-.022-.043-.043-.086C7.477 5.021 7.455 5 7.434 5H2.879c-.043 0-.065.021-.086.043-.043.043-.043.064-.043.086ZM8.186 10.5c-.022-.172-.022-.408-.022-.688 0-.257 0-.494.022-.687H2.063a.7.7 0 0 0-.495 1.182.68.68 0 0 0 .494.193h6.124Z" fill="#FF224A"/></svg>