<svg width="10" height="12" fill="none" xmlns="http://www.w3.org/2000/svg"><path d="M9.625 8.066c0 .215-.086.366-.215.43-.043.129-.043.387-.043.752 0 .387 0 .645.043.817.13.15.215.279.215.408v.343a.517.517 0 0 1-.172.409.518.518 0 0 1-.387.15H2.062c-.601 0-1.095-.193-1.482-.58-.387-.387-.58-.88-.58-1.482V2.436c0-.58.193-1.074.58-1.46C.967.59 1.46.375 2.063.375h7.003c.172 0 .301.064.409.15a.63.63 0 0 1 .15.409v7.132ZM3.094 3.47v.687c0 .108.021.194.086.258.064.065.15.086.257.086H4.47v2.406c0 .108.021.194.086.258.064.065.15.086.258.086H5.5a.323.323 0 0 0 .236-.086.356.356 0 0 0 .108-.258V4.5h1.031a.323.323 0 0 0 .236-.086.356.356 0 0 0 .108-.258V3.47a.345.345 0 0 0-.108-.237.345.345 0 0 0-.236-.107H5.844V2.094a.345.345 0 0 0-.108-.237.345.345 0 0 0-.236-.107h-.688a.356.356 0 0 0-.257.107.323.323 0 0 0-.086.237v1.031H3.437a.356.356 0 0 0-.257.107.323.323 0 0 0-.086.237ZM8.186 10V8.625H2.063a.68.68 0 0 0-.495.193.68.68 0 0 0-.193.495c0 .214.064.365.193.494.13.129.28.193.494.193h6.124Z" fill="currentColor"/></svg>