<svg width="10" height="12" fill="none" xmlns="http://www.w3.org/2000/svg"><path d="M4.813 11.375c-.387 0-.71-.129-.967-.387-.28-.258-.409-.601-.409-.988h2.75c0 .387-.15.73-.408.988-.279.258-.601.387-.966.387Zm4.619-3.223c.129.15.193.323.193.494a.666.666 0 0 1-.193.473.68.68 0 0 1-.495.194H.688a.647.647 0 0 1-.494-.194A.667.667 0 0 1 0 8.646c0-.171.064-.343.193-.494l.065-.086a4.26 4.26 0 0 0 .73-1.01c.258-.558.387-1.31.387-2.212 0-.817.258-1.547.773-2.17a3.446 3.446 0 0 1 1.977-1.16v-.452a.7.7 0 0 1 .688-.688.69.69 0 0 1 .472.216.69.69 0 0 1 .215.473v.45c.795.173 1.46.56 1.977 1.16.515.624.773 1.354.773 2.17 0 .903.129 1.655.387 2.214.15.343.386.666.73 1.01.022.042.043.085.065.085Z" fill="currentColor"/></svg>