<svg width="10" height="12" fill="none" xmlns="http://www.w3.org/2000/svg"><path d="M.445 5a.272.272 0 0 0-.193.086.244.244 0 0 0-.065.172v5.586c0 .3.086.537.301.73.194.215.43.301.73.301h7.563c.28 0 .516-.086.73-.3.194-.194.302-.43.302-.731V5.258c0-.065-.043-.13-.086-.172C9.684 5.043 9.619 5 9.555 5H.445Zm9.367-.945c0 .086-.042.15-.085.193a.244.244 0 0 1-.172.064H.445c-.086 0-.15-.021-.193-.064-.043-.043-.065-.107-.065-.193V3.28c0-.28.086-.515.301-.73.194-.194.43-.301.73-.301H2.25V1.133c0-.065.021-.13.064-.172a.272.272 0 0 1 .194-.086h.86c.064 0 .128.043.171.086.043.043.086.107.086.172V2.25h2.75V1.133c0-.065.021-.13.064-.172a.272.272 0 0 1 .194-.086h.86c.064 0 .128.043.171.086.043.043.086.107.086.172V2.25h1.031c.28 0 .516.107.73.3.194.216.302.452.302.731v.774Z" fill="currentColor"/></svg>