<svg width="12" height="11" fill="none" xmlns="http://www.w3.org/2000/svg"><path d="M6 .563c.988 0 1.912.214 2.75.601.838.408 1.504.945 1.998 1.633.494.687.752 1.418.752 2.234 0 .817-.258 1.569-.752 2.256-.494.688-1.16 1.225-1.998 1.611-.838.409-1.762.602-2.75.602a6.32 6.32 0 0 1-2.299-.408c-.387.3-.773.537-1.181.709a4.674 4.674 0 0 1-1.848.386c-.086 0-.129-.021-.15-.107-.043-.064-.022-.129.021-.193.129-.13.28-.323.494-.623.344-.494.559-.967.688-1.418a4.47 4.47 0 0 1-.903-1.31A3.569 3.569 0 0 1 .5 5.03c0-.816.236-1.547.73-2.234.495-.688 1.16-1.225 1.999-1.633A6.544 6.544 0 0 1 6 .563Z" fill="currentColor"/></svg>