<svg width="12" height="9" fill="none" xmlns="http://www.w3.org/2000/svg"><path d="M11.285 2.979c-.515.408-1.633 1.224-3.308 2.427l-.215.172c-.344.258-.602.451-.817.559-.343.215-.666.3-.945.3-.3 0-.602-.085-.945-.279-.215-.107-.473-.3-.817-.558l-.215-.194A130.144 130.144 0 0 1 .715 2.98a.183.183 0 0 0-.15 0 .118.118 0 0 0-.065.107v4.383c0 .3.086.537.3.73.194.215.43.301.731.301h8.938c.279 0 .515-.086.73-.3.194-.194.301-.43.301-.731V3.086c0-.043-.043-.086-.086-.129-.043-.021-.086-.021-.129.022ZM6 5.75c-.193 0-.43-.086-.688-.258-.171-.086-.386-.236-.666-.472l-.214-.15C2.67 3.58 1.467 2.7.844 2.204l-.15-.107C.563 2.012.5 1.86.5 1.689v-.408c0-.279.086-.515.3-.73.194-.194.43-.301.731-.301h8.938c.279 0 .515.107.73.3.194.216.301.452.301.731v.408c0 .172-.065.323-.193.409l-.108.086c-.623.494-1.826 1.396-3.63 2.685l-.215.15a6.02 6.02 0 0 1-.667.473c-.279.172-.515.258-.687.258Z" fill="currentColor"/></svg>