<svg width="11" height="12" fill="none" xmlns="http://www.w3.org/2000/svg"><path d="M10.033 1.842c.559.558.86 1.224.946 1.955.086.773-.13 1.547-.602 2.32l-2.815.946h2.106l-1.01 1.01L5.5 9.124h2.105a4.421 4.421 0 0 1-1.847 1.074c-.602.215-1.246.301-1.934.301-.601 0-1.095-.065-1.525-.193L.88 11.725a.503.503 0 0 1-.365.15c-.15 0-.28-.043-.366-.15-.107-.086-.15-.215-.15-.366 0-.129.043-.257.15-.365L5.736 5.43a.45.45 0 0 0 .086-.237.446.446 0 0 0-.107-.257.345.345 0 0 0-.236-.108.345.345 0 0 0-.237.108L1.396 8.76a6.166 6.166 0 0 1 .15-2.256c.216-.902.624-1.676 1.225-2.277L4.62 2.4c.623-.623 1.29-1.052 1.977-1.31C7.24.875 7.842.832 8.443.96c.602.13 1.118.43 1.59.882Z" fill="#FF224A"/></svg>