<svg width="12" height="11" fill="none" xmlns="http://www.w3.org/2000/svg"><path d="M10.926 1.229c.43.386.752.837.924 1.375.171.558.193 1.095.064 1.654a2.875 2.875 0 0 1-.773 1.418L6.994 9.973a.686.686 0 0 1-.494.214.622.622 0 0 1-.494-.214L1.859 5.697a2.901 2.901 0 0 1-.795-1.44C.936 3.7.98 3.163 1.15 2.605c.172-.538.473-.989.924-1.375a2.753 2.753 0 0 1 1.31-.624 2.99 2.99 0 0 1 1.44.108c.473.172.881.43 1.246.795l.43.43.43-.43A3.178 3.178 0 0 1 8.176.713c.472-.15.945-.193 1.44-.108.472.086.923.301 1.31.624Z" fill="#FF224A"/></svg>