<svg width="10" height="11" fill="none" xmlns="http://www.w3.org/2000/svg"><path d="M5 2.904a2.471 2.471 0 0 0-2.47 2.471A2.457 2.457 0 0 0 5 7.845a2.471 2.471 0 0 0 2.47-2.47A2.485 2.485 0 0 0 5 2.905Zm0 4.082a1.61 1.61 0 0 1-1.611-1.611c0-.88.709-1.59 1.611-1.59.88 0 1.59.71 1.59 1.59 0 .902-.71 1.611-1.59 1.611Zm3.137-4.168a.578.578 0 0 0-.58-.58.578.578 0 0 0-.58.58c0 .323.257.58.58.58.322 0 .58-.257.58-.58Zm1.633.58c-.043-.773-.215-1.46-.774-2.02C8.437.82 7.75.649 6.976.606c-.794-.042-3.18-.042-3.974 0-.773.043-1.44.215-2.02.774-.558.558-.73 1.246-.773 2.02-.043.794-.043 3.18 0 3.974.043.773.215 1.44.773 2.02.58.558 1.247.73 2.02.773.795.043 3.18.043 3.975 0 .773-.043 1.46-.215 2.02-.773.558-.58.73-1.247.773-2.02.043-.795.043-3.18 0-3.975ZM8.738 8.211c-.15.43-.494.752-.902.924-.645.258-2.149.193-2.836.193-.709 0-2.213.065-2.836-.193a1.629 1.629 0 0 1-.924-.924c-.258-.623-.193-2.127-.193-2.836 0-.688-.065-2.191.193-2.836.172-.408.494-.73.924-.902.623-.258 2.127-.194 2.836-.194.688 0 2.191-.064 2.836.194.408.15.73.494.902.902.258.645.194 2.148.194 2.836 0 .709.064 2.213-.194 2.836Z" fill="currentColor"/></svg>