<svg width="12" height="12" fill="none" xmlns="http://www.w3.org/2000/svg"><path d="M7.525 4.85c-.15-.13-.3-.237-.45-.366-.087-.043-.151-.043-.237-.043a.272.272 0 0 0-.193.086l-.473.452a.783.783 0 0 0-.236.644c0 .129.043.215.128.258.086.064.15.129.237.193.3.301.45.666.45 1.096 0 .43-.15.795-.45 1.096l-1.44 1.44c-.3.3-.666.45-1.095.45-.43 0-.795-.15-1.096-.45-.3-.302-.451-.667-.451-1.097 0-.43.172-.795.472-1.095l.28-.301c.086-.086.129-.215.086-.344a3.45 3.45 0 0 1-.215-1.139.415.415 0 0 0-.237-.3c-.128-.043-.257-.022-.343.064l-.817.817c-.43.43-.709.902-.838 1.46a3.169 3.169 0 0 0 0 1.676c.13.559.409 1.053.838 1.483.43.43.924.709 1.483.838.558.15 1.117.15 1.676 0 .558-.13 1.03-.409 1.46-.838l1.461-1.461c.409-.408.688-.903.838-1.461a3.68 3.68 0 0 0 0-1.676 3.411 3.411 0 0 0-.838-1.482Zm3.03-3.03c.408.43.687.924.838 1.483a3.68 3.68 0 0 1 0 1.676 3.224 3.224 0 0 1-.838 1.46l-.817.817c-.107.107-.236.129-.365.064a.303.303 0 0 1-.215-.3 4.259 4.259 0 0 0-.215-1.14c-.043-.128-.021-.235.086-.343l.28-.3c.3-.301.45-.645.45-1.075 0-.43-.128-.795-.429-1.096-.3-.3-.666-.472-1.096-.472-.43 0-.795.15-1.095.45l-1.44 1.44c-.3.301-.45.666-.45 1.096 0 .43.15.795.45 1.096.065.086.15.15.237.193.085.065.128.15.128.258 0 .258-.064.473-.236.644l-.473.452c-.064.064-.128.107-.214.107a.363.363 0 0 1-.215-.064 2.575 2.575 0 0 1-.451-.366 3.032 3.032 0 0 1-.838-1.482 3.169 3.169 0 0 1 0-1.676c.129-.558.408-1.031.838-1.46l1.46-1.462A3.224 3.224 0 0 1 7.397.982a3.68 3.68 0 0 1 1.676 0c.559.15 1.053.43 1.483.838Z" fill="currentColor"/></svg>