<svg width="11" height="12" fill="none" xmlns="http://www.w3.org/2000/svg"><path d="M.258 3.555C.086 3.469 0 3.34 0 3.125c0-.193.086-.344.258-.43L5.264.418c.15-.064.3-.064.472 0l5.006 2.277a.451.451 0 0 1 .258.43c0 .215-.086.344-.258.43L5.736 5.832c-.172.086-.322.086-.472 0L.258 3.555Zm10.484 1.89c.172.086.258.237.258.451 0 .215-.086.344-.258.409L5.736 8.582c-.172.086-.322.086-.472 0L.258 6.305C.086 6.24 0 6.11 0 5.896c0-.214.086-.365.258-.45l1.267-.56 3.46 1.57c.171.085.343.106.515.106s.344-.021.516-.107l3.48-1.568 1.246.558Zm0 2.75a.451.451 0 0 1 .258.43c0 .215-.086.344-.258.43l-5.006 2.277c-.172.086-.322.086-.472 0L.258 9.055C.086 8.969 0 8.84 0 8.625c0-.193.086-.344.258-.43l1.246-.558 3.48 1.568c.172.086.344.107.516.107.172 0 .344-.021.516-.107l3.48-1.568 1.246.558Z" fill="#FF6E6E"/></svg>