<svg width="10" height="12" fill="none" xmlns="http://www.w3.org/2000/svg"><path d="M8.594 5.688c.279 0 .515.107.73.3.194.215.301.451.301.73v4.126c0 .3-.107.537-.3.73a.973.973 0 0 1-.731.301H1.03c-.3 0-.537-.086-.73-.3-.215-.194-.301-.43-.301-.731V6.719c0-.28.086-.516.3-.73.194-.194.43-.301.731-.301h.516V4.14c0-.58.129-1.118.43-1.633.3-.494.687-.881 1.203-1.182A3.062 3.062 0 0 1 4.812.875c.58 0 1.118.15 1.633.451.494.3.881.688 1.182 1.182.3.515.451 1.053.451 1.633v1.546h.516Zm-2.235 0V4.14c0-.43-.15-.795-.45-1.096-.302-.3-.667-.451-1.096-.451-.43 0-.795.15-1.096.45-.301.302-.451.667-.451 1.097v1.546h3.093Z" fill="currentColor"/></svg>