<svg width="11" height="10" fill="none" xmlns="http://www.w3.org/2000/svg"><path d="M9.969 9.688c.279 0 .515-.086.73-.301.194-.194.301-.43.301-.73V1.093c0-.28-.107-.516-.3-.73-.216-.194-.452-.301-.731-.301H1.03c-.3 0-.537.107-.73.3a.973.973 0 0 0-.301.73v7.563c0 .301.086.537.3.73.194.216.43.302.731.302H9.97ZM2.75 1.952c.236 0 .43.086.602.258a.813.813 0 0 1 .257.602.826.826 0 0 1-.257.623.793.793 0 0 1-.602.236c-.258 0-.451-.065-.623-.236-.172-.172-.236-.366-.236-.623 0-.237.064-.43.236-.602a.826.826 0 0 1 .623-.258Zm0 2.063c.236 0 .43.086.602.257a.813.813 0 0 1 .257.602.826.826 0 0 1-.257.623.793.793 0 0 1-.602.236c-.258 0-.451-.064-.623-.236s-.236-.365-.236-.623c0-.236.064-.43.236-.602a.826.826 0 0 1 .623-.257Zm0 2.062c.236 0 .43.086.602.258a.813.813 0 0 1 .257.601.826.826 0 0 1-.257.624.793.793 0 0 1-.602.236c-.258 0-.451-.065-.623-.236-.172-.172-.236-.366-.236-.623 0-.237.064-.43.236-.602a.826.826 0 0 1 .623-.258Zm6.188-2.922c0 .086-.043.15-.086.194a.244.244 0 0 1-.172.064H4.383c-.086 0-.15-.021-.194-.064-.043-.043-.064-.108-.064-.194V2.47c0-.065.021-.13.064-.172a.272.272 0 0 1 .194-.086H8.68c.064 0 .129.043.172.086.043.043.085.107.085.172v.687Zm0 2.063c0 .086-.043.15-.086.193a.244.244 0 0 1-.172.065H4.383c-.086 0-.15-.022-.194-.065-.043-.043-.064-.107-.064-.193V4.53c0-.064.021-.129.064-.172a.272.272 0 0 1 .194-.086H8.68c.064 0 .129.043.172.086.043.043.085.108.085.172v.688Zm0 2.062c0 .086-.043.15-.086.194a.244.244 0 0 1-.172.064H4.383c-.086 0-.15-.021-.194-.064-.043-.043-.064-.108-.064-.194v-.687c0-.065.021-.13.064-.172a.272.272 0 0 1 .194-.086H8.68c.064 0 .129.043.172.086.043.043.085.107.085.172v.687Z" fill="#FF224A"/></svg>