<svg width="11" height="10" fill="none" xmlns="http://www.w3.org/2000/svg"><path d="M2.75 1.867c0 .108.021.194.086.258.064.064.15.086.258.086h7.562a.323.323 0 0 0 .237-.086.356.356 0 0 0 .107-.258v-.86a.345.345 0 0 0-.107-.236.345.345 0 0 0-.237-.107H3.094a.356.356 0 0 0-.258.107.323.323 0 0 0-.086.237v.86Zm.344 3.781c-.108 0-.194-.021-.258-.085-.065-.065-.086-.15-.086-.258v-.86c0-.086.021-.172.086-.236a.356.356 0 0 1 .258-.107h7.562c.086 0 .172.043.237.107.064.064.107.15.107.236v.86a.356.356 0 0 1-.107.258.323.323 0 0 1-.237.085H3.094Zm0 3.438c-.108 0-.194-.022-.258-.086-.065-.064-.086-.15-.086-.258v-.86c0-.085.021-.171.086-.236a.356.356 0 0 1 .258-.107h7.562c.086 0 .172.043.237.107.064.065.107.15.107.237v.86a.356.356 0 0 1-.107.257.323.323 0 0 1-.237.086H3.094ZM.344 2.469c-.108 0-.194-.022-.258-.086C.02 2.318 0 2.233 0 2.125V.75C0 .664.021.578.086.514A.356.356 0 0 1 .344.406h1.375c.086 0 .172.043.236.108.065.064.107.15.107.236v1.375a.356.356 0 0 1-.107.258.323.323 0 0 1-.236.086H.344Zm0 3.437c-.108 0-.194-.021-.258-.086C.02 5.756 0 5.67 0 5.562V4.188c0-.085.021-.171.086-.236a.356.356 0 0 1 .258-.107h1.375c.086 0 .172.043.236.107.065.065.107.15.107.236v1.375a.356.356 0 0 1-.107.258.323.323 0 0 1-.236.086H.344Zm0 3.438c-.108 0-.194-.022-.258-.086C.02 9.193 0 9.108 0 9V7.625c0-.086.021-.172.086-.236a.356.356 0 0 1 .258-.108h1.375c.086 0 .172.043.236.108.065.064.107.15.107.236V9a.356.356 0 0 1-.107.258.323.323 0 0 1-.236.086H.344Z" fill="currentColor"/></svg>