<svg width="11" height="12" fill="none" xmlns="http://www.w3.org/2000/svg"><path d="M11 1.563v7.562c0 .387-.215.73-.602.988-.408.258-.902.387-1.46.387-.58 0-1.075-.129-1.461-.387-.409-.258-.602-.601-.602-.988s.193-.709.602-.967c.386-.258.88-.408 1.46-.408.215 0 .43.043.688.086V3.86l-5.5 1.612V10.5c0 .387-.215.73-.602.988-.408.258-.902.387-1.46.387-.58 0-1.075-.129-1.461-.387C.193 11.23 0 10.887 0 10.5s.193-.709.602-.967c.386-.258.88-.408 1.46-.408.215 0 .43.043.688.086V3.604c0-.15.043-.28.129-.409a.593.593 0 0 1 .344-.257L10.098.896c.214-.042.43 0 .623.13.172.128.279.322.279.536Z" fill="#FF224A"/></svg>