<svg width="13" height="9" fill="none" xmlns="http://www.w3.org/2000/svg"><path d="M11.86.25a.61.61 0 0 1 .365.15.61.61 0 0 1 .15.366v6.703c0 .3-.107.537-.3.73a.973.973 0 0 1-.731.301H1.204a1.15 1.15 0 0 1-.86-.344A1.15 1.15 0 0 1 0 7.296V1.454c0-.129.043-.258.15-.365a.518.518 0 0 1 .366-.15h.859V.766c0-.13.043-.258.15-.366a.518.518 0 0 1 .366-.15h9.968ZM1.202 7.469c.043 0 .065 0 .108-.043s.064-.086.064-.13V1.97h-.344v5.328c0 .043 0 .086.043.129.043.043.086.043.13.043Zm5.07-.344a.244.244 0 0 0 .172-.064.272.272 0 0 0 .086-.194v-.172c0-.064-.043-.129-.086-.172-.043-.043-.107-.085-.172-.085H3.008a.272.272 0 0 0-.194.085.244.244 0 0 0-.064.172v.172c0 .086.021.15.064.194.043.043.108.064.194.064h3.265Zm4.47 0a.244.244 0 0 0 .171-.064.273.273 0 0 0 .086-.194v-.172c0-.064-.043-.129-.086-.172-.043-.043-.107-.085-.172-.085H7.477a.272.272 0 0 0-.194.085.244.244 0 0 0-.064.172v.172c0 .086.021.15.064.194.043.043.108.064.194.064h3.265Zm-4.47-2.063a.244.244 0 0 0 .172-.064.272.272 0 0 0 .086-.193v-.172c0-.065-.043-.13-.086-.172-.043-.043-.107-.086-.172-.086H3.008a.272.272 0 0 0-.194.086.244.244 0 0 0-.064.172v.172c0 .086.021.15.064.193.043.043.108.064.194.064h3.265Zm4.47 0a.244.244 0 0 0 .171-.064.273.273 0 0 0 .086-.193v-.172c0-.065-.043-.13-.086-.172-.043-.043-.107-.086-.172-.086H7.477a.272.272 0 0 0-.194.086.244.244 0 0 0-.064.172v.172c0 .086.021.15.064.193.043.043.108.064.194.064h3.265Zm0-2.062a.244.244 0 0 0 .171-.064.273.273 0 0 0 .086-.194v-.86c0-.064-.043-.128-.086-.171-.043-.043-.107-.086-.172-.086H3.008a.272.272 0 0 0-.194.086.244.244 0 0 0-.064.172v.86c0 .085.021.15.064.193.043.043.108.064.194.064h7.734Z" fill="#FF224A"/></svg>