<svg width="12" height="11" fill="none" xmlns="http://www.w3.org/2000/svg"><path d="M11.328 5.375c0-.945-.258-1.848-.73-2.664A5.219 5.219 0 0 0 8.664.777 5.284 5.284 0 0 0 6 .047c-.967 0-1.848.258-2.664.73A5.276 5.276 0 0 0 1.38 2.711a5.263 5.263 0 0 0-.71 2.664c0 .967.237 1.848.71 2.664a5.333 5.333 0 0 0 1.955 1.955 5.206 5.206 0 0 0 2.664.71c.945 0 1.848-.237 2.664-.71a5.276 5.276 0 0 0 1.934-1.955c.472-.816.73-1.697.73-2.664ZM6.15 1.809c.387 0 .795.107 1.182.3.387.194.688.452.945.795.237.344.366.71.366 1.096 0 .473-.15.838-.409 1.139-.171.172-.43.386-.795.601a9.426 9.426 0 0 0-.408.258.347.347 0 0 0-.172.3v.022c0 .086-.043.15-.086.194a.244.244 0 0 1-.171.064H5.398c-.085 0-.15-.021-.193-.064-.043-.043-.064-.108-.064-.194v-.086c0-.365.129-.687.386-.966.13-.15.387-.323.752-.538l.043-.021c.237-.129.408-.236.494-.322a.499.499 0 0 0 .194-.408c0-.194-.108-.366-.322-.495-.215-.129-.43-.214-.667-.214-.257 0-.494.085-.687.214-.129.108-.322.301-.537.559-.043.064-.108.107-.172.107-.086 0-.129-.021-.172-.064l-.752-.559c-.064-.043-.107-.086-.107-.15-.022-.064 0-.129.043-.193.3-.452.644-.795 1.031-1.01.408-.236.902-.365 1.482-.365ZM6 7.137c.258 0 .494.107.688.3.193.194.3.43.3.688 0 .28-.107.516-.3.709a.94.94 0 0 1-.688.28.955.955 0 0 1-.988-.989.94.94 0 0 1 .279-.688c.193-.193.43-.3.709-.3Z" fill="currentColor"/></svg>