<svg width="14" height="12" fill="none" xmlns="http://www.w3.org/2000/svg"><path d="M13.316 3.432c.215.386.323.795.28 1.224-.043.43-.194.817-.473 1.139-.3.322-.644.516-1.074.559-.108.021-.215.021-.301.021-.3 0-.601-.064-.88-.193-.28-.13-.516-.301-.688-.516a2.502 2.502 0 0 1-.73.516c-.28.129-.58.193-.882.193-.3 0-.601-.064-.859-.193-.28-.13-.516-.301-.709-.516a2.72 2.72 0 0 1-.709.516c-.28.129-.58.193-.88.193-.323 0-.624-.064-.882-.193-.279-.13-.515-.301-.709-.516a2.72 2.72 0 0 1-.709.516c-.279.129-.58.193-.88.193-.086 0-.194 0-.28-.021a1.603 1.603 0 0 1-1.096-.56 2.001 2.001 0 0 1-.472-1.138c-.043-.43.064-.838.3-1.224L2.08 1.197a.621.621 0 0 1 .236-.236c.108-.043.215-.086.344-.086h8.68c.107 0 .215.043.322.086.107.064.193.15.258.236l1.396 2.235Zm-1.546 3.63c.128 0 .236 0 .365-.021.107 0 .236-.043.365-.086v4.232a.7.7 0 0 1-.688.688H2.188a.68.68 0 0 1-.495-.193.68.68 0 0 1-.193-.495V6.955c.129.043.236.086.365.086.108.021.237.021.365.021.172 0 .387-.021.645-.085v2.148h8.25V6.977c.215.064.43.085.645.085Z" fill="#FF224A"/></svg>