<svg width="12" height="11" fill="none" xmlns="http://www.w3.org/2000/svg"><path d="M.844 2.625c-.108 0-.194-.021-.258-.086C.52 2.475.5 2.39.5 2.281V.906C.5.82.521.734.586.67A.356.356 0 0 1 .844.562H9.78c.086 0 .172.043.237.108.064.064.107.15.107.236v1.375a.356.356 0 0 1-.107.258.323.323 0 0 1-.237.086H.844Zm10.312 1.719c.086 0 .172.043.237.107.064.065.107.15.107.237v1.375a.356.356 0 0 1-.107.257.323.323 0 0 1-.237.086H2.22c-.108 0-.194-.021-.258-.086-.065-.064-.086-.15-.086-.258V4.688c0-.085.021-.171.086-.236a.356.356 0 0 1 .258-.107h8.937ZM9.781 8.125c.086 0 .172.043.237.107.064.065.107.15.107.237v1.375a.356.356 0 0 1-.107.258.323.323 0 0 1-.237.085H.844c-.108 0-.194-.021-.258-.085C.52 10.037.5 9.952.5 9.844V8.469c0-.086.021-.172.086-.237a.356.356 0 0 1 .258-.107H9.78Z" fill="currentColor"/></svg>