<svg width="12" height="11" fill="none" xmlns="http://www.w3.org/2000/svg"><path d="M1.875 1.938c.86 0 1.676.214 2.406.644a4.944 4.944 0 0 1 1.762 1.762c.43.73.644 1.547.644 2.406v3.094a.356.356 0 0 1-.107.258.323.323 0 0 1-.236.085h-.688c-.107 0-.193-.021-.258-.085-.064-.065-.085-.15-.085-.258V6.75c-.881 0-1.698-.215-2.428-.645a4.826 4.826 0 0 1-1.74-1.74A4.718 4.718 0 0 1 .5 1.937h1.375Zm8.25-1.375H11.5c0 .816-.193 1.59-.58 2.277a4.78 4.78 0 0 1-3.738 2.514 5.859 5.859 0 0 0-1.268-2.32A5.001 5.001 0 0 1 7.676 1.25a4.576 4.576 0 0 1 2.449-.688Z" fill="currentColor"/></svg>