<svg width="13" height="13" fill="none" xmlns="http://www.w3.org/2000/svg"><path d="m8.543 6.25 3.516 3.516c.21.21.316.492.316.773 0 .316-.105.598-.316.809l-.774.773c-.246.211-.527.316-.808.316-.317 0-.563-.105-.774-.316L6.188 8.605l-3.516 3.516a1.09 1.09 0 0 1-.774.316c-.316 0-.597-.105-.808-.316l-.774-.773A1.114 1.114 0 0 1 0 10.539c0-.281.105-.562.316-.773L3.832 6.25.316 2.734A1.034 1.034 0 0 1 0 1.961c0-.281.105-.563.316-.809L1.09.38c.21-.211.492-.317.808-.317.282 0 .563.106.774.317l3.515 3.516L9.704.379c.211-.211.457-.317.774-.317.28 0 .562.106.808.317l.774.773c.21.246.316.528.316.809 0 .316-.105.562-.316.773L8.543 6.25Z" fill="#323E48"/></svg>