<svg width="10" height="12" fill="none" xmlns="http://www.w3.org/2000/svg"><path d="M6.746 7.406c.516 0 .988.13 1.44.387.43.258.794.623 1.052 1.053.258.45.387.924.387 1.44v.558c0 .3-.107.537-.3.73a.973.973 0 0 1-.731.301H1.03c-.3 0-.537-.086-.73-.3-.215-.194-.301-.43-.301-.731v-.559c0-.515.129-.988.387-1.44a2.91 2.91 0 0 1 1.052-1.052 2.78 2.78 0 0 1 1.44-.387c.172 0 .43.065.73.15a3.621 3.621 0 0 0 1.203.193 3.621 3.621 0 0 0 1.204-.192c.3-.086.537-.15.73-.15Zm1.848 3.438v-.559c0-.494-.194-.924-.559-1.289-.365-.365-.795-.559-1.289-.559-.086 0-.236.043-.43.086a4.811 4.811 0 0 1-1.503.258c-.473 0-.989-.086-1.504-.258-.215-.043-.366-.085-.43-.085-.516 0-.945.193-1.31.558a1.753 1.753 0 0 0-.538 1.29v.558h7.563ZM4.813 7.063a2.977 2.977 0 0 1-1.547-.409 3.212 3.212 0 0 1-1.14-1.138 2.977 2.977 0 0 1-.407-1.547c0-.559.129-1.074.408-1.547.28-.473.666-.838 1.139-1.117a2.996 2.996 0 0 1 3.093 0c.473.279.838.644 1.118 1.117a2.996 2.996 0 0 1 0 3.094c-.28.472-.645.859-1.118 1.138-.472.28-.988.409-1.546.409Zm0-5.157a2.01 2.01 0 0 0-1.461.602 1.995 1.995 0 0 0-.602 1.46c0 .58.193 1.075.602 1.462.386.408.88.601 1.46.601.56 0 1.053-.193 1.461-.601a2.01 2.01 0 0 0 .602-1.461c0-.559-.215-1.053-.602-1.461-.408-.387-.902-.602-1.46-.602Z" fill="currentColor"/></svg>