<svg width="14" height="12" fill="none" xmlns="http://www.w3.org/2000/svg"><path d="M13.406 5.344c.086 0 .172.043.237.107.064.065.107.15.107.237v.687a.356.356 0 0 1-.107.258.323.323 0 0 1-.237.086h-1.375v1.375a.356.356 0 0 1-.107.258.323.323 0 0 1-.236.085H11c-.107 0-.193-.021-.258-.085-.064-.065-.086-.15-.086-.258V6.719H9.281c-.107 0-.193-.022-.258-.086-.064-.065-.085-.15-.085-.258v-.688c0-.085.021-.171.085-.236a.356.356 0 0 1 .258-.107h1.375V3.969c0-.086.022-.172.086-.237A.356.356 0 0 1 11 3.625h.688c.085 0 .171.043.236.107.064.065.107.15.107.237v1.375h1.375ZM4.812 6.375c-.515 0-.966-.107-1.396-.365a2.432 2.432 0 0 1-.988-.989c-.258-.43-.365-.88-.365-1.396 0-.494.107-.945.365-1.375.236-.43.558-.752.988-1.01A2.82 2.82 0 0 1 4.813.875a2.8 2.8 0 0 1 1.375.365c.43.258.751.58 1.01 1.01a2.82 2.82 0 0 1 0 2.771c-.259.43-.58.752-1.01.989-.43.258-.881.365-1.375.365Zm1.934.688c.516 0 .988.128 1.44.386.43.258.794.623 1.052 1.053.258.451.387.924.387 1.44v.902c0 .3-.107.537-.3.73a.973.973 0 0 1-.731.301H1.03c-.3 0-.537-.086-.73-.3-.215-.194-.301-.43-.301-.731V9.94c0-.515.129-.988.387-1.439a2.91 2.91 0 0 1 1.052-1.053 2.78 2.78 0 0 1 1.44-.386h.365c.494.236 1.01.343 1.568.343.538 0 1.053-.107 1.569-.343h.365Z" fill="#FF224A"/></svg>