<svg width="10" height="12" fill="none" xmlns="http://www.w3.org/2000/svg"><path d="M5 6.375c-.516 0-.967-.107-1.396-.365a2.432 2.432 0 0 1-.989-.989c-.258-.43-.365-.88-.365-1.396 0-.494.107-.945.365-1.375.237-.43.559-.752.989-1.01A2.82 2.82 0 0 1 5 .875a2.8 2.8 0 0 1 1.375.365c.43.258.752.58 1.01 1.01.236.43.365.88.365 1.375 0 .516-.129.967-.365 1.396-.258.43-.58.752-1.01.989-.43.258-.88.365-1.375.365Zm1.934.688c.515 0 .988.128 1.439.386.43.258.795.623 1.053 1.053.258.451.386.924.386 1.44v.902c0 .3-.107.537-.3.73a.973.973 0 0 1-.73.301H1.218c-.301 0-.537-.086-.73-.3-.216-.194-.301-.43-.301-.731V9.94c0-.515.128-.988.386-1.439a2.91 2.91 0 0 1 1.053-1.053 2.78 2.78 0 0 1 1.44-.386h.365c.494.236 1.01.343 1.568.343.537 0 1.053-.107 1.568-.343h.366Z" fill="currentColor"/></svg>