<svg width="14" height="11" fill="none" xmlns="http://www.w3.org/2000/svg"><path d="M2.063 4.688c-.387 0-.71-.13-.967-.409-.28-.258-.409-.58-.409-.966 0-.366.13-.688.409-.967a1.33 1.33 0 0 1 .966-.409c.366 0 .688.15.967.409.258.279.409.601.409.966 0 .387-.15.71-.409.967-.279.28-.601.409-.966.409Zm9.624 0c-.386 0-.708-.13-.966-.409-.28-.258-.409-.58-.409-.966 0-.366.13-.688.409-.967a1.33 1.33 0 0 1 .966-.409c.366 0 .688.15.967.409.258.279.409.601.409.966 0 .387-.15.71-.409.967-.279.28-.601.409-.966.409Zm.688.687c.365 0 .688.15.967.408.258.28.408.602.408.967v.688a.7.7 0 0 1-.688.687h-1.417a3.606 3.606 0 0 0-.538-1.375c-.3-.408-.644-.73-1.074-.967A1.33 1.33 0 0 1 11 5.375h1.375Zm-5.5 0c-.43 0-.838-.107-1.203-.322a2.174 2.174 0 0 1-.881-.881 2.406 2.406 0 0 1 0-2.406c.215-.366.494-.666.88-.881a2.406 2.406 0 0 1 3.287 3.287 2.312 2.312 0 0 1-.88.88 2.406 2.406 0 0 1-1.203.323Zm1.654.688c.43 0 .838.128 1.225.343.387.215.687.516.902.903.215.386.344.795.344 1.224v.623c0 .301-.107.537-.3.73a.973.973 0 0 1-.731.302H3.78c-.3 0-.537-.086-.73-.301-.215-.194-.301-.43-.301-.73v-.624c0-.43.107-.838.322-1.224.215-.387.516-.688.903-.903a2.526 2.526 0 0 1 1.246-.343h.172c.472.236.966.343 1.482.343.494 0 .988-.107 1.482-.343h.172Zm-4.812-.28c-.43.237-.795.559-1.074.967-.301.43-.473.88-.538 1.375H.688a.68.68 0 0 1-.495-.193A.68.68 0 0 1 0 7.437V6.75c0-.365.129-.688.408-.967a1.33 1.33 0 0 1 .967-.408H2.75c.365 0 .688.15.967.408Z" fill="#FF224A"/></svg>