<svg width="12" height="12" fill="none" xmlns="http://www.w3.org/2000/svg"><path fill-rule="evenodd" clip-rule="evenodd" d="M.5 3.938c0-1.14.923-2.063 2.063-2.063H4.28c.19 0 .344.154.344.344v.687c0 .19-.154.344-.344.344H2.563a.687.687 0 0 0-.688.688v4.124c0 .38.308.688.688.688H4.28c.19 0 .344.154.344.344v.687c0 .19-.154.344-.344.344H2.563A2.062 2.062 0 0 1 .5 8.062V3.939Z" fill="currentColor"/><path fill-rule="evenodd" clip-rule="evenodd" d="M7.354 2.198a.344.344 0 0 1 .486 0l3.56 3.56a.343.343 0 0 1 0 .486L7.84 9.803a.344.344 0 0 1-.486 0l-.73-.73a.344.344 0 0 1 0-.486L8.353 6.86h-4.07a.344.344 0 0 1-.345-.344V5.485c0-.19.154-.344.344-.344h4.071L6.625 3.414a.344.344 0 0 1 0-.486l.73-.73Z" fill="currentColor"/></svg>