<svg width="32" height="32" fill="none" xmlns="http://www.w3.org/2000/svg"><path d="M13.646 12.073H12.14l-2.169 1.393v1.45l2.042-1.305h.05V20.8h1.582v-8.727Zm5.25 8.846c1.845 0 3.132-1.253 3.132-2.987 0-1.679-1.168-2.89-2.753-2.89-.707 0-1.334.282-1.658.666h-.05l.25-2.314h3.755v-1.321h-5.063l-.456 4.5 1.428.234c.294-.324.848-.541 1.372-.537.959.005 1.65.712 1.645 1.7.004.976-.67 1.671-1.602 1.671-.789 0-1.424-.499-1.479-1.214h-1.534c.043 1.448 1.308 2.492 3.013 2.492Z"/><path fill-rule="evenodd" clip-rule="evenodd" d="M23.742 9.67c-.35-.427-.354-1.058.036-1.448.39-.39 1.027-.393 1.384.028A11.952 11.952 0 0 1 28 16c0 6.627-5.373 12-12 12S4 22.627 4 16 9.373 4 16 4c.633 0 1.254.049 1.86.143.747.116.98 1.017.446 1.551l-.102.102a1.06 1.06 0 0 1-.891.29C16.883 6.028 16.445 6 16 6 10.477 6 6 10.477 6 16s4.477 10 10 10 10-4.477 10-10a9.959 9.959 0 0 0-2.258-6.33Z" fill="currentColor"/><path d="M16 1.928v6.114a1 1 0 0 0 1.586.81l4.28-3.098a1 1 0 0 0-.01-1.627l-4.28-3.016A1 1 0 0 0 16 1.928Z" fill="currentColor"/></svg>