<svg width="24" height="24" fill="none" xmlns="http://www.w3.org/2000/svg"><circle cx="12" cy="12" r="8" stroke="currentColor" stroke-width="2"/><path d="M11.133 14.268V14.1c.003-.58.055-1.042.154-1.387.103-.344.252-.623.447-.835.196-.212.431-.404.706-.577.206-.132.39-.27.552-.412.163-.143.292-.3.388-.473.096-.175.144-.37.144-.586 0-.229-.054-.43-.164-.602a1.092 1.092 0 0 0-.442-.397 1.317 1.317 0 0 0-.607-.14c-.215 0-.42.048-.611.145-.193.092-.35.232-.473.417a1.28 1.28 0 0 0-.199.681H9c.017-.663.176-1.21.477-1.64a2.734 2.734 0 0 1 1.198-.97A4.096 4.096 0 0 1 12.321 7c.66 0 1.243.11 1.75.328.507.216.905.529 1.193.94.289.41.433.906.433 1.486 0 .388-.065.733-.194 1.034a2.52 2.52 0 0 1-.532.796 4.123 4.123 0 0 1-.81.621 3.28 3.28 0 0 0-.647.488c-.165.168-.29.364-.373.586-.08.222-.12.496-.124.82v.17h-1.884Zm.984 3.182c-.331 0-.615-.116-.85-.348a1.144 1.144 0 0 1-.343-.845 1.122 1.122 0 0 1 .343-.835c.235-.232.519-.348.85-.348.315 0 .592.116.83.348a1.14 1.14 0 0 1 .19 1.437c-.11.179-.254.323-.433.432a1.13 1.13 0 0 1-.587.16Z" fill="currentColor"/></svg>