<svg width="40" height="40" fill="none" xmlns="http://www.w3.org/2000/svg"><path fill-rule="evenodd" clip-rule="evenodd" d="M10.128 11.541c.36-.42.363-1.05-.027-1.44-.391-.391-1.027-.393-1.39.022A14.943 14.943 0 0 0 5 20c0 8.284 6.716 15 15 15 8.284 0 15-6.716 15-15 0-8.284-6.716-15-15-15-.935 0-1.85.085-2.736.249-.743.137-.975 1.04-.441 1.574l.077.077c.24.24.584.339.917.282C18.527 7.062 19.257 7 20 7c7.18 0 13 5.82 13 13s-5.82 13-13 13S7 27.18 7 20c0-3.23 1.178-6.185 3.128-8.459Z" fill="#FF224A"/><path d="M16.767 14.364h-2.006l-2.892 1.858v1.931l2.722-1.738h.068V26h2.108V14.364Zm7 11.795c2.46 0 4.176-1.67 4.176-3.983 0-2.238-1.557-3.852-3.67-3.852-.944 0-1.779.375-2.21.886h-.069l.335-3.085h5.006v-1.761h-6.75l-.608 6 1.904.312c.392-.432 1.13-.721 1.83-.716 1.278.006 2.198.95 2.192 2.267.006 1.301-.892 2.227-2.136 2.227-1.051 0-1.898-.664-1.971-1.619H19.75c.057 1.932 1.744 3.324 4.017 3.324Z" fill="#fff"/><path d="M20 1.855v8.263a1 1 0 0 1-1.56.828L12.243 6.76a1 1 0 0 1 .01-1.664l6.198-4.077A1 1 0 0 1 20 1.855Z" fill="#FF224A"/></svg>