<svg width="24" height="24" fill="none" xmlns="http://www.w3.org/2000/svg"><rect x="7" y="3" width="10" height="18" rx="2" stroke="currentColor" stroke-linecap="round" stroke-linejoin="round"/><path d="M10.384 11.68a.5.5 0 0 0-.768.64l.768-.64Zm4.048-1.428a.5.5 0 1 0-.864-.504l.864.504ZM11.667 14l-.384.32a.5.5 0 0 0 .816-.068L11.667 14Zm1.901-4.252-2.333 4 .864.504 2.333-4-.864-.504Zm-1.517 3.932-1.667-2-.768.64 1.667 2 .768-.64ZM7 5a2 2 0 0 1 2-2h6a2 2 0 0 1 2 2v1H7V5ZM17 19a2 2 0 0 1-2 2H9a2 2 0 0 1-2-2v-1h10v1Z" fill="currentColor"/></svg>