<svg width="24" height="24" fill="none" xmlns="http://www.w3.org/2000/svg"><path d="M4 4V3a1 1 0 0 0-1 1h1Zm8 2-.555.832a1 1 0 0 0 1.11 0L12 6Zm8-2h1a1 1 0 0 0-1-1v1Zm0 13v1a1 1 0 0 0 1-1h-1Zm-8 3.5-.707.707a1 1 0 0 0 1.414 0L12 20.5ZM4 17H3a1 1 0 0 0 1 1v-1ZM4 5c3.825 0 6.127.953 7.445 1.832l1.11-1.664C10.873 4.047 8.175 3 4 3v2Zm8.555 1.832C13.86 5.962 16.657 5 20 5V3c-3.657 0-6.86 1.038-8.555 2.168l1.11 1.664ZM19 4V16.999L20 17h1V4h-2Zm1 12c-4.38 0-7.121 2.207-8.707 3.793l1.414 1.414C14.121 19.793 16.381 18 20 18v-2Zm-7.293 3.793C11.121 18.207 8.381 16 4 16v2c3.62 0 5.879 1.793 7.293 3.207l1.414-1.414ZM5 17V4.001L4 4H3V17h2Z" fill="currentColor"/></svg>