<svg width="40" height="40" fill="none" xmlns="http://www.w3.org/2000/svg"><path fill-rule="evenodd" clip-rule="evenodd" d="M29.9 10.1c-.391.391-.388 1.022-.028 1.441A12.95 12.95 0 0 1 33 20c0 7.18-5.82 13-13 13S7 27.18 7 20 12.82 7 20 7c.744 0 1.473.062 2.183.182.334.057.677-.042.917-.282l.077-.077c.534-.534.302-1.437-.44-1.574A15.085 15.085 0 0 0 20 5C11.716 5 5 11.716 5 20c0 8.284 6.716 15 15 15 8.284 0 15-6.716 15-15 0-3.782-1.4-7.238-3.71-9.877-.364-.415-1-.413-1.39-.022Z" fill="currentColor"/><path d="M16.767 14.364h-2.006l-2.892 1.858v1.931l2.722-1.738h.068V26h2.108V14.364Zm7 11.795c2.46 0 4.176-1.67 4.176-3.983 0-2.238-1.557-3.852-3.67-3.852-.944 0-1.779.375-2.21.886h-.069l.335-3.085h5.006v-1.761h-6.75l-.608 6 1.904.312c.392-.432 1.13-.721 1.83-.716 1.278.006 2.198.95 2.192 2.267.006 1.301-.892 2.227-2.136 2.227-1.051 0-1.898-.664-1.971-1.619H19.75c.057 1.932 1.744 3.324 4.017 3.324Z" fill="#323E48"/><path d="M20 1.855v8.263a1 1 0 0 0 1.56.828l6.197-4.186a1 1 0 0 0-.01-1.664l-6.198-4.077A1 1 0 0 0 20 1.855Z" fill="currentColor"/></svg>