<svg width="10" height="12" viewBox="0 0 10 12" fill="none" xmlns="http://www.w3.org/2000/svg">
<path d="M4.8125 11.375C4.42578 11.375 4.10352 11.2461 3.8457 10.9883C3.56641 10.7305 3.4375 10.3867 3.4375 10H6.1875C6.1875 10.3867 6.03711 10.7305 5.7793 10.9883C5.5 11.2461 5.17773 11.375 4.8125 11.375ZM9.43164 8.15234C9.56055 8.30273 9.625 8.47461 9.625 8.64648C9.625 8.81836 9.56055 8.99023 9.43164 9.11914C9.30273 9.24805 9.13086 9.3125 8.9375 9.3125H0.6875C0.472656 9.3125 0.322266 9.24805 0.193359 9.11914C0.0644531 8.99023 0 8.81836 0 8.64648C0 8.47461 0.0644531 8.30273 0.193359 8.15234L0.257812 8.06641C0.580078 7.72266 0.816406 7.40039 0.988281 7.05664C1.24609 6.49805 1.375 5.74609 1.375 4.84375C1.375 4.02734 1.63281 3.29688 2.14844 2.67383C2.66406 2.07227 3.30859 1.68555 4.125 1.51367V1.0625C4.125 0.890625 4.18945 0.71875 4.31836 0.589844C4.44727 0.460938 4.61914 0.375 4.8125 0.375C4.98438 0.375 5.15625 0.460938 5.28516 0.589844C5.41406 0.71875 5.5 0.890625 5.5 1.0625V1.51367C6.29492 1.68555 6.96094 2.07227 7.47656 2.67383C7.99219 3.29688 8.25 4.02734 8.25 4.84375C8.25 5.74609 8.37891 6.49805 8.63672 7.05664C8.78711 7.40039 9.02344 7.72266 9.36719 8.06641C9.38867 8.10938 9.41016 8.15234 9.43164 8.15234Z" fill="white"/>
</svg>
