<svg width="10" height="12" viewBox="0 0 10 12" fill="none" xmlns="http://www.w3.org/2000/svg">
<path d="M9.625 8.06641C9.625 8.28125 9.53906 8.43164 9.41016 8.49609C9.36719 8.625 9.36719 8.88281 9.36719 9.24805C9.36719 9.63477 9.36719 9.89258 9.41016 10.0645C9.53906 10.2148 9.625 10.3438 9.625 10.4727V10.8164C9.625 10.9883 9.56055 11.1387 9.45312 11.2246C9.3457 11.332 9.2168 11.375 9.06641 11.375H2.0625C1.46094 11.375 0.966797 11.1816 0.580078 10.7949C0.193359 10.4082 0 9.91406 0 9.3125V2.4375C0 1.85742 0.193359 1.36328 0.580078 0.976562C0.966797 0.589844 1.46094 0.375 2.0625 0.375H9.06641C9.23828 0.375 9.36719 0.439453 9.47461 0.525391C9.56055 0.632812 9.625 0.761719 9.625 0.933594V8.06641ZM3.09375 3.46875V4.15625C3.09375 4.26367 3.11523 4.34961 3.17969 4.41406C3.24414 4.47852 3.33008 4.5 3.4375 4.5H4.46875V6.90625C4.46875 7.01367 4.49023 7.09961 4.55469 7.16406C4.61914 7.22852 4.70508 7.25 4.8125 7.25H5.5C5.58594 7.25 5.67188 7.22852 5.73633 7.16406C5.80078 7.09961 5.84375 7.01367 5.84375 6.90625V4.5H6.875C6.96094 4.5 7.04688 4.47852 7.11133 4.41406C7.17578 4.34961 7.21875 4.26367 7.21875 4.15625V3.46875C7.21875 3.38281 7.17578 3.29688 7.11133 3.23242C7.04688 3.16797 6.96094 3.125 6.875 3.125H5.84375V2.09375C5.84375 2.00781 5.80078 1.92188 5.73633 1.85742C5.67188 1.79297 5.58594 1.75 5.5 1.75H4.8125C4.70508 1.75 4.61914 1.79297 4.55469 1.85742C4.49023 1.92188 4.46875 2.00781 4.46875 2.09375V3.125H3.4375C3.33008 3.125 3.24414 3.16797 3.17969 3.23242C3.11523 3.29688 3.09375 3.38281 3.09375 3.46875ZM8.18555 10V8.625H2.0625C1.86914 8.625 1.69727 8.68945 1.56836 8.81836C1.43945 8.94727 1.375 9.11914 1.375 9.3125C1.375 9.52734 1.43945 9.67773 1.56836 9.80664C1.69727 9.93555 1.84766 10 2.0625 10H8.18555Z" fill="#FF6E6E"/>
</svg>
