<svg width="11" height="11" viewBox="0 0 11 11" fill="none" xmlns="http://www.w3.org/2000/svg">
<path d="M5.5 0.5625C6.48828 0.5625 7.41211 0.777344 8.25 1.16406C9.08789 1.57227 9.75391 2.10938 10.248 2.79688C10.7422 3.48438 11 4.21484 11 5.03125C11 5.84766 10.7422 6.59961 10.248 7.28711C9.75391 7.97461 9.08789 8.51172 8.25 8.89844C7.41211 9.30664 6.48828 9.5 5.5 9.5C4.68359 9.5 3.93164 9.37109 3.20117 9.0918C2.81445 9.39258 2.42773 9.62891 2.01953 9.80078C1.41797 10.0586 0.794922 10.1875 0.171875 10.1875C0.0859375 10.1875 0.0429688 10.166 0.0214844 10.0801C-0.0214844 10.0156 0 9.95117 0.0429688 9.88672C0.171875 9.75781 0.322266 9.56445 0.537109 9.26367C0.880859 8.76953 1.0957 8.29688 1.22461 7.8457C0.837891 7.45898 0.537109 7.00781 0.322266 6.53516C0.107422 6.0625 0 5.56836 0 5.03125C0 4.21484 0.236328 3.48438 0.730469 2.79688C1.22461 2.10938 1.89062 1.57227 2.72852 1.16406C3.56641 0.777344 4.49023 0.5625 5.5 0.5625Z" fill="#FF224A"/>
</svg>
