<svg width="10" height="12" viewBox="0 0 10 12" fill="none" xmlns="http://www.w3.org/2000/svg">
<path d="M0.445312 5C0.359375 5 0.294922 5.04297 0.251953 5.08594C0.208984 5.12891 0.1875 5.19336 0.1875 5.25781V10.8438C0.1875 11.1445 0.273438 11.3809 0.488281 11.5742C0.681641 11.7891 0.917969 11.875 1.21875 11.875H8.78125C9.06055 11.875 9.29688 11.7891 9.51172 11.5742C9.70508 11.3809 9.8125 11.1445 9.8125 10.8438V5.25781C9.8125 5.19336 9.76953 5.12891 9.72656 5.08594C9.68359 5.04297 9.61914 5 9.55469 5H0.445312ZM9.8125 4.05469C9.8125 4.14062 9.76953 4.20508 9.72656 4.24805C9.68359 4.29102 9.61914 4.3125 9.55469 4.3125H0.445312C0.359375 4.3125 0.294922 4.29102 0.251953 4.24805C0.208984 4.20508 0.1875 4.14062 0.1875 4.05469V3.28125C0.1875 3.00195 0.273438 2.76562 0.488281 2.55078C0.681641 2.35742 0.917969 2.25 1.21875 2.25H2.25V1.13281C2.25 1.06836 2.27148 1.00391 2.31445 0.960938C2.35742 0.917969 2.42188 0.875 2.50781 0.875H3.36719C3.43164 0.875 3.49609 0.917969 3.53906 0.960938C3.58203 1.00391 3.625 1.06836 3.625 1.13281V2.25H6.375V1.13281C6.375 1.06836 6.39648 1.00391 6.43945 0.960938C6.48242 0.917969 6.54688 0.875 6.63281 0.875H7.49219C7.55664 0.875 7.62109 0.917969 7.66406 0.960938C7.70703 1.00391 7.75 1.06836 7.75 1.13281V2.25H8.78125C9.06055 2.25 9.29688 2.35742 9.51172 2.55078C9.70508 2.76562 9.8125 3.00195 9.8125 3.28125V4.05469Z" fill="currentColor"/>
</svg>
