<svg width="12" height="11" viewBox="0 0 12 11" fill="none" xmlns="http://www.w3.org/2000/svg">
<path d="M11.3281 5.375C11.3281 4.4082 11.0703 3.52734 10.5977 2.71094C10.125 1.89453 9.48047 1.25 8.66406 0.777344C7.84766 0.304688 6.94531 0.046875 6 0.046875C5.29102 0.046875 4.625 0.175781 4.00195 0.433594C3.35742 0.691406 2.79883 1.05664 2.32617 1.5293L1.25195 0.455078C1.14453 0.369141 1.01562 0.347656 0.886719 0.390625C0.736328 0.455078 0.671875 0.5625 0.671875 0.712891V3.82812C0.671875 3.93555 0.693359 4.02148 0.757812 4.08594C0.822266 4.15039 0.908203 4.17188 1.01562 4.17188H4.13086C4.28125 4.17188 4.38867 4.10742 4.45312 3.95703C4.49609 3.82812 4.47461 3.69922 4.38867 3.5918L3.29297 2.49609C3.63672 2.15234 4.04492 1.89453 4.51758 1.70117C4.99023 1.5293 5.48438 1.42188 6 1.42188C6.70898 1.42188 7.375 1.61523 7.97656 1.95898C8.57812 2.30273 9.07227 2.79688 9.41602 3.39844C9.75977 4 9.95312 4.66602 9.95312 5.375C9.95312 6.10547 9.75977 6.77148 9.41602 7.37305C9.07227 7.97461 8.57812 8.46875 7.97656 8.8125C7.375 9.15625 6.70898 9.32812 6 9.32812C5.07617 9.32812 4.25977 9.04883 3.55078 8.46875C3.44336 8.4043 3.31445 8.38281 3.18555 8.38281C3.05664 8.38281 2.94922 8.42578 2.86328 8.51172L2.62695 8.74805C2.49805 8.87695 2.45508 9.00586 2.45508 9.15625C2.45508 9.30664 2.51953 9.43555 2.64844 9.52148C3.12109 9.9082 3.63672 10.1875 4.2168 10.4023C4.77539 10.6172 5.37695 10.7031 6 10.7031C6.94531 10.7031 7.84766 10.4668 8.66406 9.99414C9.48047 9.52148 10.125 8.85547 10.5977 8.03906C11.0703 7.22266 11.3281 6.3418 11.3281 5.375ZM7.43945 7.05078C7.35352 7.17969 7.22461 7.24414 7.0957 7.26562C6.94531 7.28711 6.81641 7.24414 6.70898 7.1582L5.3125 6.0625V3.14062C5.3125 3.01172 5.35547 2.88281 5.46289 2.77539C5.54883 2.68945 5.67773 2.625 5.82812 2.625H6.17188C6.30078 2.625 6.42969 2.68945 6.53711 2.77539C6.62305 2.88281 6.6875 3.01172 6.6875 3.14062V5.375L7.56836 6.0625C7.67578 6.14844 7.74023 6.27734 7.76172 6.40625C7.76172 6.55664 7.74023 6.68555 7.6543 6.79297L7.43945 7.05078Z" fill="currentColor"/>
</svg>
