<svg width="14" height="9" viewBox="0 0 14 9" fill="none" xmlns="http://www.w3.org/2000/svg">
<path d="M13.0156 4.11719C13.123 4.28906 13.1875 4.48242 13.1875 4.69727V7.46875C13.1875 7.76953 13.0801 8.00586 12.8867 8.19922C12.6719 8.41406 12.4355 8.5 12.1562 8.5H1.84375C1.54297 8.5 1.30664 8.41406 1.11328 8.19922C0.898438 8.00586 0.8125 7.76953 0.8125 7.46875V4.69727C0.8125 4.48242 0.855469 4.28906 0.984375 4.11719L3.26172 0.701172C3.34766 0.572266 3.45508 0.464844 3.62695 0.378906C3.77734 0.292969 3.94922 0.25 4.12109 0.25H9.87891C10.0508 0.25 10.2012 0.292969 10.373 0.378906C10.5234 0.464844 10.6523 0.572266 10.7383 0.701172L13.0156 4.11719ZM4.29297 1.625L2.4668 4.375H5.10938L5.79688 5.75H8.20312L8.89062 4.375H11.5332L9.70703 1.625H4.29297Z" fill="currentColor"/>
</svg>
