<svg width="11" height="12" viewBox="0 0 11 12" fill="none" xmlns="http://www.w3.org/2000/svg">
<path d="M10.7852 2.85156C10.8281 2.89453 10.8926 2.9375 10.9355 2.98047C10.9785 3.04492 11 3.10938 11 3.17383V3.96875C11 4.07617 10.957 4.16211 10.8926 4.22656C10.8281 4.29102 10.7422 4.3125 10.6562 4.3125H0.34375C0.236328 4.3125 0.150391 4.29102 0.0859375 4.22656C0.0214844 4.16211 0 4.07617 0 3.96875V3.17383C0 3.10938 0.0214844 3.04492 0.0644531 2.98047C0.107422 2.9375 0.150391 2.89453 0.214844 2.85156L5.26367 0.917969C5.41406 0.875 5.56445 0.875 5.73633 0.917969L10.7852 2.85156ZM1.375 5H2.75V8.4375H4.8125V5H6.1875V8.4375H8.25V5H9.625V8.4375H9.96875C10.0547 8.4375 10.1406 8.48047 10.2051 8.54492C10.2695 8.60938 10.3125 8.69531 10.3125 8.78125V9.8125H0.6875V8.78125C0.6875 8.69531 0.708984 8.60938 0.773438 8.54492C0.837891 8.48047 0.923828 8.4375 1.03125 8.4375H1.375V5ZM10.6562 10.5C10.7422 10.5 10.8281 10.543 10.8926 10.6074C10.957 10.6719 11 10.7578 11 10.8438V11.5312C11 11.6387 10.957 11.7246 10.8926 11.7891C10.8281 11.8535 10.7422 11.875 10.6562 11.875H0.34375C0.236328 11.875 0.150391 11.8535 0.0859375 11.7891C0.0214844 11.7246 0 11.6387 0 11.5312V10.8438C0 10.7578 0.0214844 10.6719 0.0859375 10.6074C0.150391 10.543 0.236328 10.5 0.34375 10.5H10.6562Z" fill="#FF224A"/>
</svg>
