<svg width="21" height="11" viewBox="0 0 21 11" fill="none" xmlns="http://www.w3.org/2000/svg">
<path d="M10.0508 10.5V0.5H1.30078C1.08203 0.5 0.894531 0.59375 0.769531 0.71875C0.613281 0.875 0.550781 1.0625 0.550781 1.25V9.75C0.550781 9.96875 0.613281 10.1562 0.769531 10.2812C0.894531 10.4375 1.08203 10.5 1.30078 10.5H10.0508ZM6.26953 8.21875L5.98828 7.21875H4.11328L3.83203 8.21875C3.80078 8.3125 3.73828 8.375 3.67578 8.4375C3.61328 8.5 3.51953 8.5 3.45703 8.5H2.73828C2.61328 8.5 2.48828 8.46875 2.42578 8.34375C2.36328 8.25 2.33203 8.125 2.39453 8L4.17578 2.71875C4.23828 2.5625 4.36328 2.46875 4.55078 2.46875H5.55078C5.73828 2.46875 5.86328 2.5625 5.92578 2.71875L7.70703 8C7.73828 8.125 7.70703 8.25 7.64453 8.34375C7.58203 8.46875 7.48828 8.5 7.36328 8.5H6.64453C6.45703 8.5 6.33203 8.40625 6.26953 8.21875ZM5.05078 3.84375C4.92578 4.28125 4.86328 4.625 4.80078 4.875L4.45703 6.0625H5.64453L5.30078 4.875C5.20703 4.5625 5.11328 4.21875 5.05078 3.84375ZM19.8008 10.5C19.9883 10.5 20.1758 10.4375 20.332 10.2812C20.457 10.1562 20.5508 9.96875 20.5508 9.75V1.25C20.5508 1.0625 20.457 0.875 20.332 0.71875C20.1758 0.59375 19.9883 0.5 19.8008 0.5H11.0508V10.5H19.8008ZM18.6758 3.375C18.7695 3.375 18.8633 3.4375 18.9258 3.5C18.9883 3.5625 19.0508 3.65625 19.0508 3.75V4.25C19.0508 4.375 18.9883 4.46875 18.9258 4.53125C18.8633 4.59375 18.7695 4.625 18.6758 4.625H18.332C18.082 5.375 17.6445 6.09375 16.9883 6.8125C17.2383 7.03125 17.4883 7.21875 17.8008 7.375C17.8633 7.4375 17.9258 7.5 17.957 7.59375C17.957 7.71875 17.957 7.8125 17.9258 7.875L17.6758 8.3125C17.6133 8.40625 17.5508 8.46875 17.457 8.5C17.332 8.53125 17.2383 8.5 17.1445 8.4375C16.7695 8.21875 16.3945 7.96875 16.0508 7.65625C15.6758 7.96875 15.332 8.21875 14.957 8.4375C14.832 8.5 14.7383 8.53125 14.6445 8.5C14.5195 8.46875 14.457 8.40625 14.4258 8.3125L14.1758 7.875C14.1133 7.8125 14.1133 7.71875 14.1445 7.59375C14.1445 7.5 14.207 7.4375 14.3008 7.375C14.582 7.1875 14.8633 7 15.1133 6.8125C14.8633 6.5625 14.6445 6.28125 14.457 6C14.3945 5.9375 14.3633 5.84375 14.3945 5.71875C14.3945 5.625 14.457 5.53125 14.582 5.46875L15.0195 5.21875C15.082 5.15625 15.1758 5.15625 15.2695 5.15625C15.3633 5.1875 15.457 5.25 15.5195 5.3125C15.6445 5.5625 15.832 5.78125 16.0508 5.96875C16.4883 5.53125 16.8008 5.0625 16.9883 4.625H13.4258C13.3008 4.625 13.207 4.59375 13.1445 4.53125C13.082 4.46875 13.0508 4.375 13.0508 4.25V3.75C13.0508 3.65625 13.082 3.5625 13.1445 3.5C13.207 3.4375 13.3008 3.375 13.4258 3.375H15.4258V2.875C15.4258 2.78125 15.457 2.6875 15.5195 2.625C15.582 2.5625 15.6758 2.5 15.8008 2.5H16.3008C16.3945 2.5 16.4883 2.5625 16.5508 2.625C16.6133 2.6875 16.6758 2.78125 16.6758 2.875V3.375H18.6758Z" fill="#FF224A"/>
</svg>
