<svg width="11" height="10" viewBox="0 0 11 10" fill="none" xmlns="http://www.w3.org/2000/svg">
<path d="M2.75 1.86719C2.75 1.97461 2.77148 2.06055 2.83594 2.125C2.90039 2.18945 2.98633 2.21094 3.09375 2.21094H10.6562C10.7422 2.21094 10.8281 2.18945 10.8926 2.125C10.957 2.06055 11 1.97461 11 1.86719V1.00781C11 0.921875 10.957 0.835938 10.8926 0.771484C10.8281 0.707031 10.7422 0.664062 10.6562 0.664062H3.09375C2.98633 0.664062 2.90039 0.707031 2.83594 0.771484C2.77148 0.835938 2.75 0.921875 2.75 1.00781V1.86719ZM3.09375 5.64844C2.98633 5.64844 2.90039 5.62695 2.83594 5.5625C2.77148 5.49805 2.75 5.41211 2.75 5.30469V4.44531C2.75 4.35938 2.77148 4.27344 2.83594 4.20898C2.90039 4.14453 2.98633 4.10156 3.09375 4.10156H10.6562C10.7422 4.10156 10.8281 4.14453 10.8926 4.20898C10.957 4.27344 11 4.35938 11 4.44531V5.30469C11 5.41211 10.957 5.49805 10.8926 5.5625C10.8281 5.62695 10.7422 5.64844 10.6562 5.64844H3.09375ZM3.09375 9.08594C2.98633 9.08594 2.90039 9.06445 2.83594 9C2.77148 8.93555 2.75 8.84961 2.75 8.74219V7.88281C2.75 7.79688 2.77148 7.71094 2.83594 7.64648C2.90039 7.58203 2.98633 7.53906 3.09375 7.53906H10.6562C10.7422 7.53906 10.8281 7.58203 10.8926 7.64648C10.957 7.71094 11 7.79688 11 7.88281V8.74219C11 8.84961 10.957 8.93555 10.8926 9C10.8281 9.06445 10.7422 9.08594 10.6562 9.08594H3.09375ZM0.34375 2.46875C0.236328 2.46875 0.150391 2.44727 0.0859375 2.38281C0.0214844 2.31836 0 2.23242 0 2.125V0.75C0 0.664062 0.0214844 0.578125 0.0859375 0.513672C0.150391 0.449219 0.236328 0.40625 0.34375 0.40625H1.71875C1.80469 0.40625 1.89062 0.449219 1.95508 0.513672C2.01953 0.578125 2.0625 0.664062 2.0625 0.75V2.125C2.0625 2.23242 2.01953 2.31836 1.95508 2.38281C1.89062 2.44727 1.80469 2.46875 1.71875 2.46875H0.34375ZM0.34375 5.90625C0.236328 5.90625 0.150391 5.88477 0.0859375 5.82031C0.0214844 5.75586 0 5.66992 0 5.5625V4.1875C0 4.10156 0.0214844 4.01562 0.0859375 3.95117C0.150391 3.88672 0.236328 3.84375 0.34375 3.84375H1.71875C1.80469 3.84375 1.89062 3.88672 1.95508 3.95117C2.01953 4.01562 2.0625 4.10156 2.0625 4.1875V5.5625C2.0625 5.66992 2.01953 5.75586 1.95508 5.82031C1.89062 5.88477 1.80469 5.90625 1.71875 5.90625H0.34375ZM0.34375 9.34375C0.236328 9.34375 0.150391 9.32227 0.0859375 9.25781C0.0214844 9.19336 0 9.10742 0 9V7.625C0 7.53906 0.0214844 7.45312 0.0859375 7.38867C0.150391 7.32422 0.236328 7.28125 0.34375 7.28125H1.71875C1.80469 7.28125 1.89062 7.32422 1.95508 7.38867C2.01953 7.45312 2.0625 7.53906 2.0625 7.625V9C2.0625 9.10742 2.01953 9.19336 1.95508 9.25781C1.89062 9.32227 1.80469 9.34375 1.71875 9.34375H0.34375Z" fill="#FF6E6E"/>
</svg>
