<svg width="12" height="11" viewBox="0 0 12 11" fill="none" xmlns="http://www.w3.org/2000/svg">
<path d="M10.4688 10.1875C10.748 10.1875 10.9844 10.1016 11.1992 9.88672C11.3926 9.69336 11.5 9.45703 11.5 9.15625V1.59375C11.5 1.31445 11.3926 1.07812 11.1992 0.863281C10.9844 0.669922 10.748 0.5625 10.4688 0.5625H1.53125C1.23047 0.5625 0.994141 0.669922 0.800781 0.863281C0.585938 1.07812 0.5 1.31445 0.5 1.59375V9.15625C0.5 9.45703 0.585938 9.69336 0.800781 9.88672C0.994141 10.1016 1.23047 10.1875 1.53125 10.1875H10.4688ZM3.25 2.45312C3.48633 2.45312 3.67969 2.53906 3.85156 2.71094C4.02344 2.88281 4.10938 3.07617 4.10938 3.3125C4.10938 3.57031 4.02344 3.76367 3.85156 3.93555C3.67969 4.10742 3.48633 4.17188 3.25 4.17188C2.99219 4.17188 2.79883 4.10742 2.62695 3.93555C2.45508 3.76367 2.39062 3.57031 2.39062 3.3125C2.39062 3.07617 2.45508 2.88281 2.62695 2.71094C2.79883 2.53906 2.99219 2.45312 3.25 2.45312ZM3.25 4.51562C3.48633 4.51562 3.67969 4.60156 3.85156 4.77344C4.02344 4.94531 4.10938 5.13867 4.10938 5.375C4.10938 5.63281 4.02344 5.82617 3.85156 5.99805C3.67969 6.16992 3.48633 6.23438 3.25 6.23438C2.99219 6.23438 2.79883 6.16992 2.62695 5.99805C2.45508 5.82617 2.39062 5.63281 2.39062 5.375C2.39062 5.13867 2.45508 4.94531 2.62695 4.77344C2.79883 4.60156 2.99219 4.51562 3.25 4.51562ZM3.25 6.57812C3.48633 6.57812 3.67969 6.66406 3.85156 6.83594C4.02344 7.00781 4.10938 7.20117 4.10938 7.4375C4.10938 7.69531 4.02344 7.88867 3.85156 8.06055C3.67969 8.23242 3.48633 8.29688 3.25 8.29688C2.99219 8.29688 2.79883 8.23242 2.62695 8.06055C2.45508 7.88867 2.39062 7.69531 2.39062 7.4375C2.39062 7.20117 2.45508 7.00781 2.62695 6.83594C2.79883 6.66406 2.99219 6.57812 3.25 6.57812ZM9.4375 3.65625C9.4375 3.74219 9.39453 3.80664 9.35156 3.84961C9.30859 3.89258 9.24414 3.91406 9.17969 3.91406H4.88281C4.79688 3.91406 4.73242 3.89258 4.68945 3.84961C4.64648 3.80664 4.625 3.74219 4.625 3.65625V2.96875C4.625 2.9043 4.64648 2.83984 4.68945 2.79688C4.73242 2.75391 4.79688 2.71094 4.88281 2.71094H9.17969C9.24414 2.71094 9.30859 2.75391 9.35156 2.79688C9.39453 2.83984 9.4375 2.9043 9.4375 2.96875V3.65625ZM9.4375 5.71875C9.4375 5.80469 9.39453 5.86914 9.35156 5.91211C9.30859 5.95508 9.24414 5.97656 9.17969 5.97656H4.88281C4.79688 5.97656 4.73242 5.95508 4.68945 5.91211C4.64648 5.86914 4.625 5.80469 4.625 5.71875V5.03125C4.625 4.9668 4.64648 4.90234 4.68945 4.85938C4.73242 4.81641 4.79688 4.77344 4.88281 4.77344H9.17969C9.24414 4.77344 9.30859 4.81641 9.35156 4.85938C9.39453 4.90234 9.4375 4.9668 9.4375 5.03125V5.71875ZM9.4375 7.78125C9.4375 7.86719 9.39453 7.93164 9.35156 7.97461C9.30859 8.01758 9.24414 8.03906 9.17969 8.03906H4.88281C4.79688 8.03906 4.73242 8.01758 4.68945 7.97461C4.64648 7.93164 4.625 7.86719 4.625 7.78125V7.09375C4.625 7.0293 4.64648 6.96484 4.68945 6.92188C4.73242 6.87891 4.79688 6.83594 4.88281 6.83594H9.17969C9.24414 6.83594 9.30859 6.87891 9.35156 6.92188C9.39453 6.96484 9.4375 7.0293 9.4375 7.09375V7.78125Z" fill="currentColor"/>
</svg>
