<svg width="11" height="10" viewBox="0 0 11 10" fill="none" xmlns="http://www.w3.org/2000/svg">
<path d="M2.75 2.36719C2.75 2.47461 2.77148 2.56055 2.83594 2.625C2.90039 2.68945 2.98633 2.71094 3.09375 2.71094H10.6562C10.7422 2.71094 10.8281 2.68945 10.8926 2.625C10.957 2.56055 11 2.47461 11 2.36719V1.50781C11 1.42188 10.957 1.33594 10.8926 1.27148C10.8281 1.20703 10.7422 1.16406 10.6562 1.16406H3.09375C2.98633 1.16406 2.90039 1.20703 2.83594 1.27148C2.77148 1.33594 2.75 1.42188 2.75 1.50781V2.36719ZM3.09375 6.14844C2.98633 6.14844 2.90039 6.12695 2.83594 6.0625C2.77148 5.99805 2.75 5.91211 2.75 5.80469V4.94531C2.75 4.85938 2.77148 4.77344 2.83594 4.70898C2.90039 4.64453 2.98633 4.60156 3.09375 4.60156H10.6562C10.7422 4.60156 10.8281 4.64453 10.8926 4.70898C10.957 4.77344 11 4.85938 11 4.94531V5.80469C11 5.91211 10.957 5.99805 10.8926 6.0625C10.8281 6.12695 10.7422 6.14844 10.6562 6.14844H3.09375ZM3.09375 9.58594C2.98633 9.58594 2.90039 9.56445 2.83594 9.5C2.77148 9.43555 2.75 9.34961 2.75 9.24219V8.38281C2.75 8.29688 2.77148 8.21094 2.83594 8.14648C2.90039 8.08203 2.98633 8.03906 3.09375 8.03906H10.6562C10.7422 8.03906 10.8281 8.08203 10.8926 8.14648C10.957 8.21094 11 8.29688 11 8.38281V9.24219C11 9.34961 10.957 9.43555 10.8926 9.5C10.8281 9.56445 10.7422 9.58594 10.6562 9.58594H3.09375ZM0.34375 2.96875C0.236328 2.96875 0.150391 2.94727 0.0859375 2.88281C0.0214844 2.81836 0 2.73242 0 2.625V1.25C0 1.16406 0.0214844 1.07812 0.0859375 1.01367C0.150391 0.949219 0.236328 0.90625 0.34375 0.90625H1.71875C1.80469 0.90625 1.89062 0.949219 1.95508 1.01367C2.01953 1.07812 2.0625 1.16406 2.0625 1.25V2.625C2.0625 2.73242 2.01953 2.81836 1.95508 2.88281C1.89062 2.94727 1.80469 2.96875 1.71875 2.96875H0.34375ZM0.34375 6.40625C0.236328 6.40625 0.150391 6.38477 0.0859375 6.32031C0.0214844 6.25586 0 6.16992 0 6.0625V4.6875C0 4.60156 0.0214844 4.51562 0.0859375 4.45117C0.150391 4.38672 0.236328 4.34375 0.34375 4.34375H1.71875C1.80469 4.34375 1.89062 4.38672 1.95508 4.45117C2.01953 4.51562 2.0625 4.60156 2.0625 4.6875V6.0625C2.0625 6.16992 2.01953 6.25586 1.95508 6.32031C1.89062 6.38477 1.80469 6.40625 1.71875 6.40625H0.34375ZM0.34375 9.84375C0.236328 9.84375 0.150391 9.82227 0.0859375 9.75781C0.0214844 9.69336 0 9.60742 0 9.5V8.125C0 8.03906 0.0214844 7.95312 0.0859375 7.88867C0.150391 7.82422 0.236328 7.78125 0.34375 7.78125H1.71875C1.80469 7.78125 1.89062 7.82422 1.95508 7.88867C2.01953 7.95312 2.0625 8.03906 2.0625 8.125V9.5C2.0625 9.60742 2.01953 9.69336 1.95508 9.75781C1.89062 9.82227 1.80469 9.84375 1.71875 9.84375H0.34375Z" fill="#FF224A"/>
</svg>
