<svg width="11" height="11" viewBox="0 0 11 11" fill="none" xmlns="http://www.w3.org/2000/svg">
<path d="M9.96875 0.5625C10.248 0.5625 10.4844 0.669922 10.6992 0.863281C10.8926 1.07812 11 1.31445 11 1.59375V9.15625C11 9.45703 10.8926 9.69336 10.6992 9.88672C10.4844 10.1016 10.248 10.1875 9.96875 10.1875H1.03125C0.730469 10.1875 0.494141 10.1016 0.300781 9.88672C0.0859375 9.69336 0 9.45703 0 9.15625V1.59375C0 1.31445 0.0859375 1.07812 0.300781 0.863281C0.494141 0.669922 0.730469 0.5625 1.03125 0.5625H9.96875ZM9.83984 9.15625C9.86133 9.15625 9.88281 9.15625 9.92578 9.11328C9.94727 9.0918 9.96875 9.07031 9.96875 9.02734V1.72266C9.96875 1.70117 9.94727 1.67969 9.92578 1.63672C9.88281 1.61523 9.86133 1.59375 9.83984 1.59375H1.16016C1.11719 1.59375 1.0957 1.61523 1.07422 1.63672C1.03125 1.67969 1.03125 1.70117 1.03125 1.72266V9.02734C1.03125 9.07031 1.03125 9.0918 1.07422 9.11328C1.0957 9.15625 1.11719 9.15625 1.16016 9.15625H9.83984ZM8.9375 7.17969C8.9375 7.11523 8.89453 7.05078 8.85156 7.00781C8.80859 6.96484 8.74414 6.92188 8.67969 6.92188H4.38281C4.29688 6.92188 4.23242 6.96484 4.18945 7.00781C4.14648 7.05078 4.125 7.11523 4.125 7.17969V7.69531C4.125 7.78125 4.14648 7.8457 4.18945 7.88867C4.23242 7.93164 4.29688 7.95312 4.38281 7.95312H8.67969C8.74414 7.95312 8.80859 7.93164 8.85156 7.88867C8.89453 7.8457 8.9375 7.78125 8.9375 7.69531V7.17969ZM8.9375 5.11719C8.9375 5.05273 8.89453 4.98828 8.85156 4.94531C8.80859 4.90234 8.74414 4.85938 8.67969 4.85938H4.38281C4.29688 4.85938 4.23242 4.90234 4.18945 4.94531C4.14648 4.98828 4.125 5.05273 4.125 5.11719V5.63281C4.125 5.71875 4.14648 5.7832 4.18945 5.82617C4.23242 5.86914 4.29688 5.89062 4.38281 5.89062H8.67969C8.74414 5.89062 8.80859 5.86914 8.85156 5.82617C8.89453 5.7832 8.9375 5.71875 8.9375 5.63281V5.11719ZM8.9375 3.05469C8.9375 2.99023 8.89453 2.92578 8.85156 2.88281C8.80859 2.83984 8.74414 2.79688 8.67969 2.79688H4.38281C4.29688 2.79688 4.23242 2.83984 4.18945 2.88281C4.14648 2.92578 4.125 2.99023 4.125 3.05469V3.57031C4.125 3.65625 4.14648 3.7207 4.18945 3.76367C4.23242 3.80664 4.29688 3.82812 4.38281 3.82812H8.67969C8.74414 3.82812 8.80859 3.80664 8.85156 3.76367C8.89453 3.7207 8.9375 3.65625 8.9375 3.57031V3.05469ZM3.52344 3.3125C3.52344 3.09766 3.4375 2.92578 3.28711 2.77539C3.13672 2.625 2.96484 2.53906 2.75 2.53906C2.53516 2.53906 2.3418 2.625 2.19141 2.77539C2.04102 2.92578 1.97656 3.09766 1.97656 3.3125C1.97656 3.52734 2.04102 3.7207 2.19141 3.87109C2.3418 4.02148 2.53516 4.08594 2.75 4.08594C2.96484 4.08594 3.13672 4.02148 3.28711 3.87109C3.4375 3.7207 3.52344 3.52734 3.52344 3.3125ZM3.52344 5.375C3.52344 5.16016 3.4375 4.98828 3.28711 4.83789C3.13672 4.6875 2.96484 4.60156 2.75 4.60156C2.53516 4.60156 2.3418 4.6875 2.19141 4.83789C2.04102 4.98828 1.97656 5.16016 1.97656 5.375C1.97656 5.58984 2.04102 5.7832 2.19141 5.93359C2.3418 6.08398 2.53516 6.14844 2.75 6.14844C2.96484 6.14844 3.13672 6.08398 3.28711 5.93359C3.4375 5.7832 3.52344 5.58984 3.52344 5.375ZM3.52344 7.4375C3.52344 7.22266 3.4375 7.05078 3.28711 6.90039C3.13672 6.75 2.96484 6.66406 2.75 6.66406C2.53516 6.66406 2.3418 6.75 2.19141 6.90039C2.04102 7.05078 1.97656 7.22266 1.97656 7.4375C1.97656 7.65234 2.04102 7.8457 2.19141 7.99609C2.3418 8.14648 2.53516 8.21094 2.75 8.21094C2.96484 8.21094 3.13672 8.14648 3.28711 7.99609C3.4375 7.8457 3.52344 7.65234 3.52344 7.4375Z" fill="#FF224A"/>
</svg>
