<svg width="11" height="12" viewBox="0 0 11 12" fill="none" xmlns="http://www.w3.org/2000/svg">
<path d="M11 1.5625V9.125C11 9.51172 10.7852 9.85547 10.3984 10.1133C9.99023 10.3711 9.49609 10.5 8.9375 10.5C8.35742 10.5 7.86328 10.3711 7.47656 10.1133C7.06836 9.85547 6.875 9.51172 6.875 9.125C6.875 8.73828 7.06836 8.41602 7.47656 8.1582C7.86328 7.90039 8.35742 7.75 8.9375 7.75C9.15234 7.75 9.36719 7.79297 9.625 7.83594V3.86133L4.125 5.47266V10.5C4.125 10.8867 3.91016 11.2305 3.52344 11.4883C3.11523 11.7461 2.62109 11.875 2.0625 11.875C1.48242 11.875 0.988281 11.7461 0.601562 11.4883C0.193359 11.2305 0 10.8867 0 10.5C0 10.1133 0.193359 9.79102 0.601562 9.5332C0.988281 9.27539 1.48242 9.125 2.0625 9.125C2.27734 9.125 2.49219 9.16797 2.75 9.21094V3.60352C2.75 3.45312 2.79297 3.32422 2.87891 3.19531C2.96484 3.06641 3.07227 2.98047 3.22266 2.9375L10.0977 0.896484C10.3125 0.853516 10.5273 0.896484 10.7207 1.02539C10.8926 1.1543 11 1.34766 11 1.5625Z" fill="#FF224A"/>
</svg>
