<svg width="13" height="9" viewBox="0 0 13 9" fill="none" xmlns="http://www.w3.org/2000/svg">
<path d="M11.8594 0.25C11.9883 0.25 12.1172 0.314453 12.2246 0.400391C12.3105 0.507812 12.375 0.636719 12.375 0.765625V7.46875C12.375 7.76953 12.2676 8.00586 12.0742 8.19922C11.8594 8.41406 11.623 8.5 11.3438 8.5H1.20312C0.859375 8.5 0.580078 8.39258 0.34375 8.15625C0.107422 7.91992 0 7.64062 0 7.29688V1.45312C0 1.32422 0.0429688 1.19531 0.150391 1.08789C0.236328 1.00195 0.365234 0.9375 0.515625 0.9375H1.375V0.765625C1.375 0.636719 1.41797 0.507812 1.52539 0.400391C1.61133 0.314453 1.74023 0.25 1.89062 0.25H11.8594ZM1.20312 7.46875C1.24609 7.46875 1.26758 7.46875 1.31055 7.42578C1.35352 7.38281 1.375 7.33984 1.375 7.29688V1.96875H1.03125V7.29688C1.03125 7.33984 1.03125 7.38281 1.07422 7.42578C1.11719 7.46875 1.16016 7.46875 1.20312 7.46875ZM6.27344 7.125C6.33789 7.125 6.40234 7.10352 6.44531 7.06055C6.48828 7.01758 6.53125 6.95312 6.53125 6.86719V6.69531C6.53125 6.63086 6.48828 6.56641 6.44531 6.52344C6.40234 6.48047 6.33789 6.4375 6.27344 6.4375H3.00781C2.92188 6.4375 2.85742 6.48047 2.81445 6.52344C2.77148 6.56641 2.75 6.63086 2.75 6.69531V6.86719C2.75 6.95312 2.77148 7.01758 2.81445 7.06055C2.85742 7.10352 2.92188 7.125 3.00781 7.125H6.27344ZM10.7422 7.125C10.8066 7.125 10.8711 7.10352 10.9141 7.06055C10.957 7.01758 11 6.95312 11 6.86719V6.69531C11 6.63086 10.957 6.56641 10.9141 6.52344C10.8711 6.48047 10.8066 6.4375 10.7422 6.4375H7.47656C7.39062 6.4375 7.32617 6.48047 7.2832 6.52344C7.24023 6.56641 7.21875 6.63086 7.21875 6.69531V6.86719C7.21875 6.95312 7.24023 7.01758 7.2832 7.06055C7.32617 7.10352 7.39062 7.125 7.47656 7.125H10.7422ZM6.27344 5.0625C6.33789 5.0625 6.40234 5.04102 6.44531 4.99805C6.48828 4.95508 6.53125 4.89062 6.53125 4.80469V4.63281C6.53125 4.56836 6.48828 4.50391 6.44531 4.46094C6.40234 4.41797 6.33789 4.375 6.27344 4.375H3.00781C2.92188 4.375 2.85742 4.41797 2.81445 4.46094C2.77148 4.50391 2.75 4.56836 2.75 4.63281V4.80469C2.75 4.89062 2.77148 4.95508 2.81445 4.99805C2.85742 5.04102 2.92188 5.0625 3.00781 5.0625H6.27344ZM10.7422 5.0625C10.8066 5.0625 10.8711 5.04102 10.9141 4.99805C10.957 4.95508 11 4.89062 11 4.80469V4.63281C11 4.56836 10.957 4.50391 10.9141 4.46094C10.8711 4.41797 10.8066 4.375 10.7422 4.375H7.47656C7.39062 4.375 7.32617 4.41797 7.2832 4.46094C7.24023 4.50391 7.21875 4.56836 7.21875 4.63281V4.80469C7.21875 4.89062 7.24023 4.95508 7.2832 4.99805C7.32617 5.04102 7.39062 5.0625 7.47656 5.0625H10.7422ZM10.7422 3C10.8066 3 10.8711 2.97852 10.9141 2.93555C10.957 2.89258 11 2.82812 11 2.74219V1.88281C11 1.81836 10.957 1.75391 10.9141 1.71094C10.8711 1.66797 10.8066 1.625 10.7422 1.625H3.00781C2.92188 1.625 2.85742 1.66797 2.81445 1.71094C2.77148 1.75391 2.75 1.81836 2.75 1.88281V2.74219C2.75 2.82812 2.77148 2.89258 2.81445 2.93555C2.85742 2.97852 2.92188 3 3.00781 3H10.7422Z" fill="#FF224A"/>
</svg>
