<svg width="12" height="11" viewBox="0 0 12 11" fill="none" xmlns="http://www.w3.org/2000/svg">
<path d="M11.3281 5.375C11.3281 4.42969 11.0703 3.52734 10.5977 2.71094C10.125 1.89453 9.48047 1.25 8.66406 0.777344C7.84766 0.304688 6.94531 0.046875 6 0.046875C5.0332 0.046875 4.15234 0.304688 3.33594 0.777344C2.51953 1.25 1.85352 1.89453 1.38086 2.71094C0.908203 3.52734 0.671875 4.42969 0.671875 5.375C0.671875 6.3418 0.908203 7.22266 1.38086 8.03906C1.85352 8.85547 2.51953 9.52148 3.33594 9.99414C4.15234 10.4668 5.0332 10.7031 6 10.7031C6.94531 10.7031 7.84766 10.4668 8.66406 9.99414C9.48047 9.52148 10.125 8.85547 10.5977 8.03906C11.0703 7.22266 11.3281 6.3418 11.3281 5.375ZM6.15039 1.80859C6.53711 1.80859 6.94531 1.91602 7.33203 2.10938C7.71875 2.30273 8.01953 2.56055 8.27734 2.9043C8.51367 3.24805 8.64258 3.61328 8.64258 4C8.64258 4.47266 8.49219 4.83789 8.23438 5.13867C8.0625 5.31055 7.80469 5.52539 7.43945 5.74023C7.22461 5.86914 7.0957 5.95508 7.03125 5.99805C6.90234 6.08398 6.85938 6.19141 6.85938 6.29883V6.32031C6.85938 6.40625 6.81641 6.4707 6.77344 6.51367C6.73047 6.55664 6.66602 6.57812 6.60156 6.57812H5.39844C5.3125 6.57812 5.24805 6.55664 5.20508 6.51367C5.16211 6.4707 5.14062 6.40625 5.14062 6.32031V6.23438C5.14062 5.86914 5.26953 5.54688 5.52734 5.26758C5.65625 5.11719 5.91406 4.94531 6.2793 4.73047L6.32227 4.70898C6.55859 4.58008 6.73047 4.47266 6.81641 4.38672C6.94531 4.2793 7.00977 4.15039 7.00977 3.97852C7.00977 3.78516 6.90234 3.61328 6.6875 3.48438C6.47266 3.35547 6.25781 3.26953 6.02148 3.26953C5.76367 3.26953 5.52734 3.35547 5.33398 3.48438C5.20508 3.5918 5.01172 3.78516 4.79688 4.04297C4.75391 4.10742 4.68945 4.15039 4.625 4.15039C4.53906 4.15039 4.49609 4.12891 4.45312 4.08594L3.70117 3.52734C3.63672 3.48438 3.59375 3.44141 3.59375 3.37695C3.57227 3.3125 3.59375 3.24805 3.63672 3.18359C3.9375 2.73242 4.28125 2.38867 4.66797 2.17383C5.07617 1.9375 5.57031 1.80859 6.15039 1.80859ZM6 7.13672C6.25781 7.13672 6.49414 7.24414 6.6875 7.4375C6.88086 7.63086 6.98828 7.86719 6.98828 8.125C6.98828 8.4043 6.88086 8.64062 6.6875 8.83398C6.49414 9.02734 6.25781 9.11328 6 9.11328C5.7207 9.11328 5.48438 9.02734 5.29102 8.83398C5.09766 8.64062 5.01172 8.4043 5.01172 8.125C5.01172 7.86719 5.09766 7.63086 5.29102 7.4375C5.48438 7.24414 5.7207 7.13672 6 7.13672Z" fill="currentColor"/>
</svg>
