<svg width="12" height="9" viewBox="0 0 12 9" fill="none" xmlns="http://www.w3.org/2000/svg">
<path d="M4.36719 8.5C4.43164 8.5 4.49609 8.47852 4.53906 8.43555C4.58203 8.39258 4.625 8.32812 4.625 8.24219V7.38281C4.625 7.31836 4.58203 7.25391 4.53906 7.21094C4.49609 7.16797 4.43164 7.125 4.36719 7.125H2.5625C2.36914 7.125 2.19727 7.06055 2.06836 6.93164C1.93945 6.80273 1.875 6.63086 1.875 6.4375V2.3125C1.875 2.14062 1.93945 1.96875 2.06836 1.83984C2.19727 1.71094 2.36914 1.625 2.5625 1.625H4.36719C4.43164 1.625 4.49609 1.60352 4.53906 1.56055C4.58203 1.51758 4.625 1.45312 4.625 1.36719V0.507812C4.625 0.443359 4.58203 0.378906 4.53906 0.335938C4.49609 0.292969 4.43164 0.25 4.36719 0.25H2.5625C1.98242 0.25 1.48828 0.464844 1.10156 0.851562C0.693359 1.25977 0.5 1.75391 0.5 2.3125V6.4375C0.5 7.01758 0.693359 7.51172 1.10156 7.89844C1.48828 8.30664 1.98242 8.5 2.5625 8.5H4.36719ZM6.90234 1.99023C6.77344 1.9043 6.73047 1.77539 6.73047 1.625C6.73047 1.47461 6.77344 1.3457 6.88086 1.23828L7.35352 0.765625C7.43945 0.679688 7.56836 0.615234 7.71875 0.615234C7.84766 0.615234 7.97656 0.679688 8.08398 0.765625L11.3496 4.00977C11.4355 4.11719 11.5 4.24609 11.5 4.375C11.5 4.52539 11.4355 4.6543 11.3496 4.74023L8.08398 7.98438C7.97656 8.0918 7.84766 8.13477 7.71875 8.13477C7.56836 8.13477 7.43945 8.0918 7.35352 7.98438L6.88086 7.51172C6.77344 7.42578 6.73047 7.29688 6.73047 7.14648C6.73047 6.99609 6.77344 6.86719 6.90234 6.75977L8.57812 5.23438H4.45312C4.30273 5.23438 4.17383 5.19141 4.08789 5.08398C3.98047 4.99805 3.9375 4.86914 3.9375 4.71875V4.03125C3.9375 3.90234 3.98047 3.77344 4.08789 3.66602C4.17383 3.58008 4.30273 3.51562 4.45312 3.51562H8.57812L6.90234 1.99023Z" fill="currentColor"/>
</svg>
