<svg width="14" height="12" viewBox="0 0 14 12" fill="none" xmlns="http://www.w3.org/2000/svg">
<path d="M13.3164 3.43164C13.5312 3.81836 13.6387 4.22656 13.5957 4.65625C13.5527 5.08594 13.4023 5.47266 13.123 5.79492C12.8223 6.11719 12.4785 6.31055 12.0488 6.35352C11.9414 6.375 11.834 6.375 11.748 6.375C11.4473 6.375 11.1465 6.31055 10.8672 6.18164C10.5879 6.05273 10.3516 5.88086 10.1797 5.66602C9.96484 5.88086 9.72852 6.05273 9.44922 6.18164C9.16992 6.31055 8.86914 6.375 8.56836 6.375C8.26758 6.375 7.9668 6.31055 7.70898 6.18164C7.42969 6.05273 7.19336 5.88086 7 5.66602C6.78516 5.88086 6.54883 6.05273 6.29102 6.18164C6.01172 6.31055 5.71094 6.375 5.41016 6.375C5.08789 6.375 4.78711 6.31055 4.5293 6.18164C4.25 6.05273 4.01367 5.88086 3.82031 5.66602C3.60547 5.88086 3.36914 6.05273 3.11133 6.18164C2.83203 6.31055 2.53125 6.375 2.23047 6.375C2.14453 6.375 2.03711 6.375 1.95117 6.35352C1.5 6.31055 1.13477 6.11719 0.855469 5.79492C0.576172 5.47266 0.425781 5.08594 0.382812 4.65625C0.339844 4.22656 0.447266 3.81836 0.683594 3.43164L2.08008 1.19727C2.12305 1.11133 2.20898 1.02539 2.31641 0.960938C2.42383 0.917969 2.53125 0.875 2.66016 0.875H11.3398C11.4473 0.875 11.5547 0.917969 11.6621 0.960938C11.7695 1.02539 11.8555 1.11133 11.9199 1.19727L13.3164 3.43164ZM11.7695 7.0625C11.8984 7.0625 12.0059 7.0625 12.1348 7.04102C12.2422 7.04102 12.3711 6.99805 12.5 6.95508V11.1875C12.5 11.3809 12.4141 11.5527 12.2852 11.6816C12.1562 11.8105 11.9844 11.875 11.8125 11.875H2.1875C1.99414 11.875 1.82227 11.8105 1.69336 11.6816C1.56445 11.5527 1.5 11.3809 1.5 11.1875V6.95508C1.62891 6.99805 1.73633 7.04102 1.86523 7.04102C1.97266 7.0625 2.10156 7.0625 2.23047 7.0625C2.40234 7.0625 2.61719 7.04102 2.875 6.97656V9.125H11.125V6.97656C11.3398 7.04102 11.5547 7.0625 11.7695 7.0625Z" fill="#FF224A"/>
</svg>
