<svg width="12" height="10" viewBox="0 0 12 10" fill="none" xmlns="http://www.w3.org/2000/svg">
<path d="M10.3613 3.14062C10.791 2.81836 11.1777 2.43164 11.4785 1.98047C11.0918 2.15234 10.6406 2.28125 10.1895 2.32422C10.6621 2.04492 11.0059 1.61523 11.1777 1.07812C10.748 1.33594 10.2539 1.5293 9.75977 1.63672C9.33008 1.18555 8.75 0.927734 8.10547 0.927734C6.85938 0.927734 5.84961 1.9375 5.84961 3.18359C5.84961 3.35547 5.87109 3.52734 5.91406 3.69922C4.04492 3.5918 2.36914 2.68945 1.25195 1.33594C1.05859 1.6582 0.951172 2.04492 0.951172 2.47461C0.951172 3.24805 1.33789 3.93555 1.96094 4.34375C1.5957 4.32227 1.23047 4.23633 0.929688 4.06445V4.08594C0.929688 5.18164 1.70312 6.08398 2.73438 6.29883C2.5625 6.3418 2.34766 6.38477 2.1543 6.38477C2.00391 6.38477 1.875 6.36328 1.72461 6.3418C2.00391 7.24414 2.8418 7.88867 3.83008 7.91016C3.05664 8.51172 2.08984 8.87695 1.03711 8.87695C0.84375 8.87695 0.671875 8.85547 0.5 8.83398C1.48828 9.47852 2.66992 9.84375 3.95898 9.84375C8.10547 9.84375 10.3613 6.42773 10.3613 3.44141C10.3613 3.33398 10.3613 3.24805 10.3613 3.14062Z" fill="currentColor"/>
</svg>
