<svg width="13" height="13" viewBox="0 0 13 13" fill="none" xmlns="http://www.w3.org/2000/svg">
<path d="M8.54297 6.25L12.0586 9.76562C12.2695 9.97656 12.375 10.2578 12.375 10.5391C12.375 10.8555 12.2695 11.1367 12.0586 11.3477L11.2852 12.1211C11.0391 12.332 10.7578 12.4375 10.4766 12.4375C10.1602 12.4375 9.91406 12.332 9.70312 12.1211L6.1875 8.60547L2.67188 12.1211C2.46094 12.332 2.17969 12.4375 1.89844 12.4375C1.58203 12.4375 1.30078 12.332 1.08984 12.1211L0.316406 11.3477C0.105469 11.1367 0 10.8555 0 10.5391C0 10.2578 0.105469 9.97656 0.316406 9.76562L3.83203 6.25L0.316406 2.73438C0.105469 2.52344 0 2.27734 0 1.96094C0 1.67969 0.105469 1.39844 0.316406 1.15234L1.08984 0.378906C1.30078 0.167969 1.58203 0.0625 1.89844 0.0625C2.17969 0.0625 2.46094 0.167969 2.67188 0.378906L6.1875 3.89453L9.70312 0.378906C9.91406 0.167969 10.1602 0.0625 10.4766 0.0625C10.7578 0.0625 11.0391 0.167969 11.2852 0.378906L12.0586 1.15234C12.2695 1.39844 12.375 1.67969 12.375 1.96094C12.375 2.27734 12.2695 2.52344 12.0586 2.73438L8.54297 6.25Z" fill="#323E48"/>
</svg>
