<svg width="14" height="12" viewBox="0 0 14 12" fill="none" xmlns="http://www.w3.org/2000/svg">
<path d="M4.8125 6.5625C4.25391 6.5625 3.73828 6.43359 3.26562 6.1543C2.79297 5.875 2.40625 5.48828 2.12695 5.01562C1.84766 4.54297 1.71875 4.02734 1.71875 3.46875C1.71875 2.91016 1.84766 2.39453 2.12695 1.92188C2.40625 1.44922 2.79297 1.08398 3.26562 0.804688C3.73828 0.525391 4.25391 0.375 4.8125 0.375C5.37109 0.375 5.88672 0.525391 6.35938 0.804688C6.83203 1.08398 7.19727 1.44922 7.47656 1.92188C7.75586 2.39453 7.90625 2.91016 7.90625 3.46875C7.90625 4.02734 7.75586 4.54297 7.47656 5.01562C7.19727 5.48828 6.83203 5.875 6.35938 6.1543C5.88672 6.43359 5.37109 6.5625 4.8125 6.5625ZM4.8125 1.40625C4.23242 1.40625 3.73828 1.62109 3.35156 2.00781C2.94336 2.41602 2.75 2.91016 2.75 3.46875C2.75 4.04883 2.94336 4.54297 3.35156 4.92969C3.73828 5.33789 4.23242 5.53125 4.8125 5.53125C5.37109 5.53125 5.86523 5.33789 6.27344 4.92969C6.66016 4.54297 6.875 4.04883 6.875 3.46875C6.875 2.91016 6.66016 2.41602 6.27344 2.00781C5.86523 1.62109 5.37109 1.40625 4.8125 1.40625ZM6.74609 6.90625C7.26172 6.90625 7.73438 7.03516 8.18555 7.29297C8.61523 7.55078 8.98047 7.91602 9.23828 8.3457C9.49609 8.79688 9.625 9.26953 9.625 9.78516V10.3438C9.625 10.6445 9.51758 10.8809 9.32422 11.0742C9.10938 11.2891 8.87305 11.375 8.59375 11.375H1.03125C0.730469 11.375 0.494141 11.2891 0.300781 11.0742C0.0859375 10.8809 0 10.6445 0 10.3438V9.78516C0 9.26953 0.128906 8.79688 0.386719 8.3457C0.644531 7.91602 0.988281 7.55078 1.43945 7.29297C1.86914 7.03516 2.36328 6.90625 2.87891 6.90625C3.05078 6.90625 3.30859 6.9707 3.60938 7.05664C3.80273 7.12109 3.97461 7.16406 4.10352 7.18555C4.31836 7.22852 4.55469 7.25 4.8125 7.25C5.07031 7.25 5.30664 7.22852 5.52148 7.18555C5.65039 7.16406 5.80078 7.12109 6.01562 7.05664C6.31641 6.9707 6.55273 6.90625 6.74609 6.90625ZM8.59375 10.3438V9.78516C8.59375 9.29102 8.40039 8.86133 8.03516 8.49609C7.66992 8.13086 7.24023 7.9375 6.74609 7.9375C6.66016 7.9375 6.50977 7.98047 6.31641 8.02344C5.80078 8.19531 5.28516 8.28125 4.8125 8.28125C4.33984 8.28125 3.82422 8.19531 3.30859 8.02344C3.09375 7.98047 2.94336 7.9375 2.87891 7.9375C2.36328 7.9375 1.93359 8.13086 1.56836 8.49609C1.20312 8.86133 1.03125 9.29102 1.03125 9.78516V10.3438H8.59375ZM13.4062 5.01562C13.4922 5.01562 13.5781 5.05859 13.6426 5.12305C13.707 5.1875 13.75 5.27344 13.75 5.35938V5.70312C13.75 5.81055 13.707 5.89648 13.6426 5.96094C13.5781 6.02539 13.4922 6.04688 13.4062 6.04688H11.8594V7.59375C11.8594 7.70117 11.8164 7.78711 11.752 7.85156C11.6875 7.91602 11.6016 7.9375 11.5156 7.9375H11.1719C11.0645 7.9375 10.9785 7.91602 10.9141 7.85156C10.8496 7.78711 10.8281 7.70117 10.8281 7.59375V6.04688H9.28125C9.17383 6.04688 9.08789 6.02539 9.02344 5.96094C8.95898 5.89648 8.9375 5.81055 8.9375 5.70312V5.35938C8.9375 5.27344 8.95898 5.1875 9.02344 5.12305C9.08789 5.05859 9.17383 5.01562 9.28125 5.01562H10.8281V3.46875C10.8281 3.38281 10.8496 3.29688 10.9141 3.23242C10.9785 3.16797 11.0645 3.125 11.1719 3.125H11.5156C11.6016 3.125 11.6875 3.16797 11.752 3.23242C11.8164 3.29688 11.8594 3.38281 11.8594 3.46875V5.01562H13.4062Z" fill="currentColor"/>
</svg>
