<svg width="14" height="12" viewBox="0 0 14 12" fill="none" xmlns="http://www.w3.org/2000/svg">
<path d="M13.4062 5.34375C13.4922 5.34375 13.5781 5.38672 13.6426 5.45117C13.707 5.51562 13.75 5.60156 13.75 5.6875V6.375C13.75 6.48242 13.707 6.56836 13.6426 6.63281C13.5781 6.69727 13.4922 6.71875 13.4062 6.71875H12.0312V8.09375C12.0312 8.20117 11.9883 8.28711 11.9238 8.35156C11.8594 8.41602 11.7734 8.4375 11.6875 8.4375H11C10.8926 8.4375 10.8066 8.41602 10.7422 8.35156C10.6777 8.28711 10.6562 8.20117 10.6562 8.09375V6.71875H9.28125C9.17383 6.71875 9.08789 6.69727 9.02344 6.63281C8.95898 6.56836 8.9375 6.48242 8.9375 6.375V5.6875C8.9375 5.60156 8.95898 5.51562 9.02344 5.45117C9.08789 5.38672 9.17383 5.34375 9.28125 5.34375H10.6562V3.96875C10.6562 3.88281 10.6777 3.79688 10.7422 3.73242C10.8066 3.66797 10.8926 3.625 11 3.625H11.6875C11.7734 3.625 11.8594 3.66797 11.9238 3.73242C11.9883 3.79688 12.0312 3.88281 12.0312 3.96875V5.34375H13.4062ZM4.8125 6.375C4.29688 6.375 3.8457 6.26758 3.41602 6.00977C2.98633 5.77344 2.66406 5.45117 2.42773 5.02148C2.16992 4.5918 2.0625 4.14062 2.0625 3.625C2.0625 3.13086 2.16992 2.67969 2.42773 2.25C2.66406 1.82031 2.98633 1.49805 3.41602 1.24023C3.8457 1.00391 4.29688 0.875 4.8125 0.875C5.30664 0.875 5.75781 1.00391 6.1875 1.24023C6.61719 1.49805 6.93945 1.82031 7.19727 2.25C7.43359 2.67969 7.5625 3.13086 7.5625 3.625C7.5625 4.14062 7.43359 4.5918 7.19727 5.02148C6.93945 5.45117 6.61719 5.77344 6.1875 6.00977C5.75781 6.26758 5.30664 6.375 4.8125 6.375ZM6.74609 7.0625C7.26172 7.0625 7.73438 7.19141 8.18555 7.44922C8.61523 7.70703 8.98047 8.07227 9.23828 8.50195C9.49609 8.95312 9.625 9.42578 9.625 9.94141V10.8438C9.625 11.1445 9.51758 11.3809 9.32422 11.5742C9.10938 11.7891 8.87305 11.875 8.59375 11.875H1.03125C0.730469 11.875 0.494141 11.7891 0.300781 11.5742C0.0859375 11.3809 0 11.1445 0 10.8438V9.94141C0 9.42578 0.128906 8.95312 0.386719 8.50195C0.644531 8.07227 0.988281 7.70703 1.43945 7.44922C1.86914 7.19141 2.36328 7.0625 2.87891 7.0625H3.24414C3.73828 7.29883 4.25391 7.40625 4.8125 7.40625C5.34961 7.40625 5.86523 7.29883 6.38086 7.0625H6.74609Z" fill="#FF224A"/>
</svg>
