<svg width="14" height="12" viewBox="0 0 14 12" fill="none" xmlns="http://www.w3.org/2000/svg">
<path d="M4.8125 7.0625C4.25391 7.0625 3.73828 6.93359 3.26562 6.6543C2.79297 6.375 2.40625 5.98828 2.12695 5.51562C1.84766 5.04297 1.71875 4.52734 1.71875 3.96875C1.71875 3.41016 1.84766 2.89453 2.12695 2.42188C2.40625 1.94922 2.79297 1.58398 3.26562 1.30469C3.73828 1.02539 4.25391 0.875 4.8125 0.875C5.37109 0.875 5.88672 1.02539 6.35938 1.30469C6.83203 1.58398 7.19727 1.94922 7.47656 2.42188C7.75586 2.89453 7.90625 3.41016 7.90625 3.96875C7.90625 4.52734 7.75586 5.04297 7.47656 5.51562C7.19727 5.98828 6.83203 6.375 6.35938 6.6543C5.88672 6.93359 5.37109 7.0625 4.8125 7.0625ZM4.8125 1.90625C4.23242 1.90625 3.73828 2.12109 3.35156 2.50781C2.94336 2.91602 2.75 3.41016 2.75 3.96875C2.75 4.54883 2.94336 5.04297 3.35156 5.42969C3.73828 5.83789 4.23242 6.03125 4.8125 6.03125C5.37109 6.03125 5.86523 5.83789 6.27344 5.42969C6.66016 5.04297 6.875 4.54883 6.875 3.96875C6.875 3.41016 6.66016 2.91602 6.27344 2.50781C5.86523 2.12109 5.37109 1.90625 4.8125 1.90625ZM6.74609 7.40625C7.26172 7.40625 7.73438 7.53516 8.18555 7.79297C8.61523 8.05078 8.98047 8.41602 9.23828 8.8457C9.49609 9.29688 9.625 9.76953 9.625 10.2852V10.8438C9.625 11.1445 9.51758 11.3809 9.32422 11.5742C9.10938 11.7891 8.87305 11.875 8.59375 11.875H1.03125C0.730469 11.875 0.494141 11.7891 0.300781 11.5742C0.0859375 11.3809 0 11.1445 0 10.8438V10.2852C0 9.76953 0.128906 9.29688 0.386719 8.8457C0.644531 8.41602 0.988281 8.05078 1.43945 7.79297C1.86914 7.53516 2.36328 7.40625 2.87891 7.40625C3.05078 7.40625 3.30859 7.4707 3.60938 7.55664C3.80273 7.62109 3.97461 7.66406 4.10352 7.68555C4.31836 7.72852 4.55469 7.75 4.8125 7.75C5.07031 7.75 5.30664 7.72852 5.52148 7.68555C5.65039 7.66406 5.80078 7.62109 6.01562 7.55664C6.31641 7.4707 6.55273 7.40625 6.74609 7.40625ZM8.59375 10.8438V10.2852C8.59375 9.79102 8.40039 9.36133 8.03516 8.99609C7.66992 8.63086 7.24023 8.4375 6.74609 8.4375C6.66016 8.4375 6.50977 8.48047 6.31641 8.52344C5.80078 8.69531 5.28516 8.78125 4.8125 8.78125C4.33984 8.78125 3.82422 8.69531 3.30859 8.52344C3.09375 8.48047 2.94336 8.4375 2.87891 8.4375C2.36328 8.4375 1.93359 8.63086 1.56836 8.99609C1.20312 9.36133 1.03125 9.79102 1.03125 10.2852V10.8438H8.59375ZM13.4062 5.51562C13.4922 5.51562 13.5781 5.55859 13.6426 5.62305C13.707 5.6875 13.75 5.77344 13.75 5.85938V6.20312C13.75 6.31055 13.707 6.39648 13.6426 6.46094C13.5781 6.52539 13.4922 6.54688 13.4062 6.54688H11.8594V8.09375C11.8594 8.20117 11.8164 8.28711 11.752 8.35156C11.6875 8.41602 11.6016 8.4375 11.5156 8.4375H11.1719C11.0645 8.4375 10.9785 8.41602 10.9141 8.35156C10.8496 8.28711 10.8281 8.20117 10.8281 8.09375V6.54688H9.28125C9.17383 6.54688 9.08789 6.52539 9.02344 6.46094C8.95898 6.39648 8.9375 6.31055 8.9375 6.20312V5.85938C8.9375 5.77344 8.95898 5.6875 9.02344 5.62305C9.08789 5.55859 9.17383 5.51562 9.28125 5.51562H10.8281V3.96875C10.8281 3.88281 10.8496 3.79688 10.9141 3.73242C10.9785 3.66797 11.0645 3.625 11.1719 3.625H11.5156C11.6016 3.625 11.6875 3.66797 11.752 3.73242C11.8164 3.79688 11.8594 3.88281 11.8594 3.96875V5.51562H13.4062Z" fill="#FF224A"/>
</svg>
