<svg width="12" height="9" viewBox="0 0 12 9" fill="none" xmlns="http://www.w3.org/2000/svg">
<path d="M11.6074 1.56055C11.4785 1.04492 11.0703 0.636719 10.5762 0.507812C9.65234 0.25 6 0.25 6 0.25C6 0.25 2.32617 0.25 1.40234 0.507812C0.908203 0.636719 0.5 1.04492 0.371094 1.56055C0.113281 2.46289 0.113281 4.39648 0.113281 4.39648C0.113281 4.39648 0.113281 6.30859 0.371094 7.23242C0.5 7.74805 0.908203 8.13477 1.40234 8.26367C2.32617 8.5 6 8.5 6 8.5C6 8.5 9.65234 8.5 10.5762 8.26367C11.0703 8.13477 11.4785 7.74805 11.6074 7.23242C11.8652 6.30859 11.8652 4.39648 11.8652 4.39648C11.8652 4.39648 11.8652 2.46289 11.6074 1.56055ZM4.79688 6.13672V2.65625L7.84766 4.39648L4.79688 6.13672Z" fill="currentColor"/>
</svg>
