<svg width="24" height="24" viewBox="0 0 24 24" fill="none" xmlns="http://www.w3.org/2000/svg">
<rect x="7" y="3" width="10" height="18" rx="2" stroke="currentColor" stroke-linecap="round" stroke-linejoin="round"/>
<path d="M10.3841 11.6799C10.2073 11.4678 9.89205 11.4391 9.67991 11.6159C9.46777 11.7927 9.43911 12.108 9.61589 12.3201L10.3841 11.6799ZM14.4319 10.2519C14.571 10.0134 14.4905 9.70725 14.2519 9.56811C14.0134 9.42897 13.7073 9.50954 13.5681 9.74806L14.4319 10.2519ZM11.6667 14L11.2826 14.3201C11.3869 14.4453 11.5458 14.5118 11.7083 14.4983C11.8708 14.4847 12.0164 14.3928 12.0986 14.2519L11.6667 14ZM13.5681 9.74806L11.2348 13.7481L12.0986 14.2519L14.4319 10.2519L13.5681 9.74806ZM12.0508 13.6799L10.3841 11.6799L9.61589 12.3201L11.2826 14.3201L12.0508 13.6799Z" fill="currentColor"/>
<path d="M7 5C7 3.89543 7.89543 3 9 3H15C16.1046 3 17 3.89543 17 5V6H7V5Z" fill="currentColor"/>
<path d="M17 19C17 20.1046 16.1046 21 15 21L9 21C7.89543 21 7 20.1046 7 19L7 18L17 18L17 19Z" fill="currentColor"/>
</svg>
