<svg width="32" height="32" viewBox="0 0 32 32" fill="none" xmlns="http://www.w3.org/2000/svg">
<path fill-rule="evenodd" clip-rule="evenodd" d="M8.11598 9.52799C8.46665 9.10131 8.47098 8.47098 8.08045 8.08045C7.68993 7.68993 7.05325 7.68745 6.6958 8.10847C4.88963 10.2359 3.80005 12.9907 3.80005 16C3.80005 22.7379 9.26218 28.2001 16 28.2001C22.7379 28.2001 28.2001 22.7379 28.2001 16C28.2001 9.26218 22.7379 3.80005 16 3.80005C15.3049 3.80005 14.6232 3.8582 13.9598 3.96989C13.2187 4.09467 12.9911 4.99106 13.5225 5.52249L13.6187 5.61865C13.8549 5.85487 14.193 5.95406 14.5236 5.90613C15.0056 5.83623 15.4986 5.80005 16 5.80005C21.6334 5.80005 26.2001 10.3667 26.2001 16C26.2001 21.6334 21.6334 26.2001 16 26.2001C10.3667 26.2001 5.80005 21.6334 5.80005 16C5.80005 13.543 6.66884 11.2888 8.11598 9.52799Z" fill="currentColor"/>
<path d="M13.6456 12.0728H12.1414L9.97235 13.4662V14.9151L12.0135 13.6111H12.0647V20.8H13.6456V12.0728ZM18.8956 20.9194C20.7408 20.9194 22.0277 19.6665 22.0277 17.9322C22.0277 16.2532 20.8601 15.0429 19.2749 15.0429C18.5675 15.0429 17.9411 15.3242 17.6172 15.7077H17.5661L17.8175 13.3938H21.5718V12.0728H16.5093L16.0533 16.5728L17.4809 16.8072C17.7749 16.4833 18.3289 16.266 18.853 16.2702C19.8118 16.2745 20.5022 16.9819 20.4979 17.9705C20.5022 18.9464 19.8289 19.641 18.8956 19.641C18.1073 19.641 17.4724 19.1424 17.417 18.4265H15.8829C15.9255 19.8753 17.1911 20.9194 18.8956 20.9194Z"/>
<path d="M16 1.85482L16 7.71774C16 8.51921 15.1043 8.99503 14.4402 8.54637L10.043 5.57583C9.45171 5.17636 9.45708 4.30389 10.0533 3.91173L14.4505 1.01936C15.1154 0.581971 16 1.05892 16 1.85482Z" fill="currentColor"/>
</svg>
