<svg width="24" height="24" viewBox="0 0 24 24" fill="none" xmlns="http://www.w3.org/2000/svg">
<rect x="20.5" y="12.5" width="16.5" height="1" rx="0.5" transform="rotate(-180 20.5 12.5)" fill="#323E48"/>
<path d="M12.1464 19.6464C11.9512 19.8417 11.9512 20.1583 12.1464 20.3536C12.3417 20.5488 12.6583 20.5488 12.8536 20.3536L12.1464 19.6464ZM12.8536 3.64645C12.6583 3.45119 12.3417 3.45119 12.1464 3.64645C11.9512 3.84171 11.9512 4.15829 12.1464 4.35355L12.8536 3.64645ZM20.5 12L20.8536 12.3536C21.0488 12.1583 21.0488 11.8417 20.8536 11.6464L20.5 12ZM12.1464 4.35355L20.1464 12.3536L20.8536 11.6464L12.8536 3.64645L12.1464 4.35355ZM20.1464 11.6464L12.1464 19.6464L12.8536 20.3536L20.8536 12.3536L20.1464 11.6464Z" fill="#323E48"/>
</svg>
