<svg width="24" height="16" viewBox="0 0 24 16" fill="none" xmlns="http://www.w3.org/2000/svg">
<path d="M4.70711 3.29289C4.31658 2.90237 3.68342 2.90237 3.29289 3.29289C2.90237 3.68342 2.90237 4.31658 3.29289 4.70711L4.70711 3.29289ZM20.7071 4.70711C21.0976 4.31658 21.0976 3.68342 20.7071 3.29289C20.3166 2.90237 19.6834 2.90237 19.2929 3.29289L20.7071 4.70711ZM12 12L11.2929 12.7071C11.6834 13.0976 12.3166 13.0976 12.7071 12.7071L12 12ZM19.2929 3.29289L11.2929 11.2929L12.7071 12.7071L20.7071 4.70711L19.2929 3.29289ZM12.7071 11.2929L4.70711 3.29289L3.29289 4.70711L11.2929 12.7071L12.7071 11.2929Z" fill="currentColor"/>
</svg>
