<svg width="40" height="40" viewBox="0 0 40 40" fill="none" xmlns="http://www.w3.org/2000/svg">
<path fill-rule="evenodd" clip-rule="evenodd" d="M10.1282 11.5411C10.4878 11.1218 10.491 10.491 10.1005 10.1005C9.70998 9.70998 9.07402 9.70789 8.71022 10.1234C6.40005 12.762 5 16.2175 5 20C5 28.2843 11.7157 35 20 35C28.2843 35 35 28.2843 35 20C35 11.7157 28.2843 5 20 5C19.0654 5 18.1508 5.08547 17.2635 5.24903C16.5206 5.38597 16.2886 6.28856 16.8227 6.82272L16.9002 6.9002C17.1396 7.13964 17.4835 7.23887 17.8174 7.18243C18.527 7.06246 19.2562 7 20 7C27.1797 7 33 12.8203 33 20C33 27.1797 27.1797 33 20 33C12.8203 33 7 27.1797 7 20C7 16.7698 8.17815 13.8147 10.1282 11.5411Z" fill="#FF224A"/>
<path d="M16.767 14.3636H14.7614L11.8693 16.2216V18.1534L14.5909 16.4148H14.6591V26H16.767V14.3636ZM23.767 26.1591C26.2273 26.1591 27.9432 24.4886 27.9432 22.1761C27.9432 19.9375 26.3864 18.3239 24.2727 18.3239C23.3295 18.3239 22.4943 18.6989 22.0625 19.2102H21.9943L22.3295 16.125H27.3352V14.3636H20.5852L19.9773 20.3636L21.8807 20.6761C22.2727 20.2443 23.0114 19.9545 23.7102 19.9602C24.9886 19.9659 25.9091 20.9091 25.9034 22.2273C25.9091 23.5284 25.0114 24.4545 23.767 24.4545C22.7159 24.4545 21.8693 23.7898 21.7955 22.8352H19.75C19.8068 24.767 21.4943 26.1591 23.767 26.1591Z" fill="white"/>
<path d="M20 1.85472L20 10.1176C20 10.9191 19.1043 11.3949 18.4402 10.9463L12.243 6.75973C11.6517 6.36026 11.6571 5.48779 12.2533 5.09563L18.4505 1.01926C19.1154 0.581875 20 1.05882 20 1.85472Z" fill="#FF224A"/>
</svg>
