<svg width="7" height="8" viewBox="0 0 7 8" fill="none" xmlns="http://www.w3.org/2000/svg">
<path d="M0.884111 3.67991C0.707329 3.46777 0.392046 3.43911 0.179908 3.61589C-0.0322307 3.79267 -0.0608927 4.10795 0.115889 4.32009L0.884111 3.67991ZM6.93189 1.25194C7.07103 1.01341 6.99046 0.707251 6.75194 0.568111C6.51341 0.42897 6.20725 0.509539 6.06811 0.748064L6.93189 1.25194ZM3 7L2.61589 7.32009C2.72026 7.44534 2.87915 7.51184 3.04162 7.49826C3.20409 7.48469 3.34974 7.39276 3.43189 7.25194L3 7ZM6.06811 0.748064L2.56811 6.74806L3.43189 7.25194L6.93189 1.25194L6.06811 0.748064ZM3.38411 6.67991L0.884111 3.67991L0.115889 4.32009L2.61589 7.32009L3.38411 6.67991Z" fill="#FF224A"/>
</svg>
