<svg width="16" height="24" viewBox="0 0 16 24" fill="none" xmlns="http://www.w3.org/2000/svg">
<path d="M4.35355 9.64645C4.15829 9.45118 3.84171 9.45118 3.64645 9.64645C3.45118 9.84171 3.45118 10.1583 3.64645 10.3536L4.35355 9.64645ZM12.3536 10.3536C12.5488 10.1583 12.5488 9.84171 12.3536 9.64645C12.1583 9.45118 11.8417 9.45118 11.6464 9.64645L12.3536 10.3536ZM8 14L7.64645 14.3536C7.84171 14.5488 8.15829 14.5488 8.35355 14.3536L8 14ZM11.6464 9.64645L7.64645 13.6464L8.35355 14.3536L12.3536 10.3536L11.6464 9.64645ZM8.35355 13.6464L4.35355 9.64645L3.64645 10.3536L7.64645 14.3536L8.35355 13.6464Z" fill="#323E48"/>
</svg>
