<svg width="32" height="32" viewBox="0 0 32 32" fill="none" xmlns="http://www.w3.org/2000/svg">
<path fill-rule="evenodd" clip-rule="evenodd" d="M23.9196 8.08045C23.5291 8.47098 23.5334 9.10131 23.8841 9.52799C25.3313 11.2888 26.2001 13.543 26.2001 16C26.2001 21.6334 21.6334 26.2001 16 26.2001C10.3667 26.2001 5.80005 21.6334 5.80005 16C5.80005 10.3667 10.3667 5.80005 16 5.80005C16.5015 5.80005 16.9945 5.83623 17.4765 5.90613C17.8071 5.95406 18.1452 5.85487 18.3814 5.61865L18.4776 5.52249C19.009 4.99106 18.7814 4.09467 18.0403 3.96989C17.3769 3.8582 16.6952 3.80005 16 3.80005C9.26217 3.80005 3.80005 9.26218 3.80005 16C3.80005 22.7379 9.26217 28.2001 16 28.2001C22.7379 28.2001 28.2001 22.7379 28.2001 16C28.2001 12.9907 27.1105 10.2359 25.3043 8.10847C24.9469 7.68745 24.3102 7.68993 23.9196 8.08045Z" fill="#FF224A"/>
<path d="M13.6456 12.0728H12.1414L9.97235 13.4662V14.9151L12.0135 13.6111H12.0647V20.8H13.6456V12.0728ZM18.8956 20.9194C20.7408 20.9194 22.0277 19.6665 22.0277 17.9322C22.0277 16.2532 20.8601 15.0429 19.2749 15.0429C18.5675 15.0429 17.9411 15.3242 17.6172 15.7077H17.5661L17.8175 13.3938H21.5718V12.0728H16.5093L16.0533 16.5728L17.4809 16.8072C17.7749 16.4833 18.3289 16.266 18.853 16.2702C19.8118 16.2745 20.5022 16.9819 20.4979 17.9705C20.5022 18.9464 19.8289 19.641 18.8956 19.641C18.1073 19.641 17.4724 19.1424 17.417 18.4265H15.8829C15.9255 19.8753 17.1911 20.9194 18.8956 20.9194Z" fill="#323E48"/>
<path d="M16 1.85482L16 7.71774C16 8.51921 16.8957 8.99503 17.5598 8.54637L21.957 5.57583C22.5483 5.17636 22.5429 4.30389 21.9467 3.91173L17.5495 1.01936C16.8846 0.581971 16 1.05892 16 1.85482Z" fill="#FF224A"/>
</svg>
