<svg width="24" height="24" viewBox="0 0 24 24" fill="none" xmlns="http://www.w3.org/2000/svg">
<rect x="4" y="11.5" width="16.5" height="1" rx="0.5" fill="#323E48"/>
<path d="M12.3536 4.35355C12.5488 4.15829 12.5488 3.84171 12.3536 3.64645C12.1583 3.45118 11.8417 3.45118 11.6464 3.64645L12.3536 4.35355ZM11.6464 20.3536C11.8417 20.5488 12.1583 20.5488 12.3536 20.3536C12.5488 20.1583 12.5488 19.8417 12.3536 19.6464L11.6464 20.3536ZM4 12L3.64645 11.6464C3.45118 11.8417 3.45118 12.1583 3.64645 12.3536L4 12ZM12.3536 19.6464L4.35355 11.6464L3.64645 12.3536L11.6464 20.3536L12.3536 19.6464ZM4.35355 12.3536L12.3536 4.35355L11.6464 3.64645L3.64645 11.6464L4.35355 12.3536Z" fill="#323E48"/>
</svg>
