<svg width="22" height="18" viewBox="0 0 22 18" fill="none" xmlns="http://www.w3.org/2000/svg">
<path d="M14.6475 12.8105L16.3438 14.7266H19.4287C20.1025 14.7266 20.624 14.542 20.9932 14.1729C21.3682 13.8037 21.5557 13.2881 21.5557 12.626V2.68555C21.5557 2.0293 21.3682 1.51367 20.9932 1.13867C20.624 0.763672 20.1025 0.576172 19.4287 0.576172H2.55371C1.8916 0.576172 1.37305 0.766602 0.998047 1.14746C0.623047 1.52246 0.435547 2.03516 0.435547 2.68555V12.626C0.435547 13.2881 0.620117 13.8037 0.989258 14.1729C1.3584 14.542 1.87988 14.7266 2.55371 14.7266H5.7002L7.39648 12.8105H3.08105C2.87598 12.8105 2.71777 12.7549 2.60645 12.6436C2.50098 12.5322 2.44824 12.374 2.44824 12.1689V3.14258C2.44824 2.9375 2.50098 2.7793 2.60645 2.66797C2.71777 2.55664 2.87598 2.50098 3.08105 2.50098H18.9014C19.1064 2.50098 19.2646 2.55664 19.376 2.66797C19.4873 2.7793 19.543 2.9375 19.543 3.14258V12.1689C19.543 12.374 19.4873 12.5322 19.376 12.6436C19.2646 12.7549 19.1064 12.8105 18.9014 12.8105H14.6475ZM16.4844 17.7236C16.707 17.7236 16.8535 17.6328 16.9238 17.4512C17 17.2695 16.9648 17.1025 16.8184 16.9502L11.3955 10.7979C11.29 10.6748 11.1553 10.6133 10.9912 10.6133C10.8271 10.6133 10.6924 10.6748 10.5869 10.7979L5.16406 16.9502C5.02344 17.1025 4.98828 17.2695 5.05859 17.4512C5.12891 17.6328 5.27539 17.7236 5.49805 17.7236H16.4844Z" fill="#FF224A"/>
</svg>
