<svg width="24" height="24" viewBox="0 0 24 24" fill="none" xmlns="http://www.w3.org/2000/svg">
<path d="M4 4V3C3.44772 3 3 3.44772 3 4H4ZM12 6L11.4453 6.83205C11.7812 7.05598 12.2188 7.05598 12.5547 6.83205L12 6ZM20 4H21C21 3.44772 20.5523 3 20 3V4ZM20 17V18C20.5523 18 21 17.5523 21 17H20ZM12 20.5L11.2929 21.2071C11.6834 21.5976 12.3166 21.5976 12.7071 21.2071L12 20.5ZM4 17H3C3 17.5523 3.44772 18 4 18V17ZM4 5C7.82502 5 10.1273 5.95338 11.4453 6.83205L12.5547 5.16795C10.8727 4.04662 8.17498 3 4 3V5ZM12.5547 6.83205C13.8597 5.96202 16.657 5 20 5V3C16.343 3 13.1403 4.03798 11.4453 5.16795L12.5547 6.83205ZM19 4C19 4.00234 19 4.00473 19 4.00715C19 4.00958 19 4.01204 19 4.01455C19 4.01705 19 4.0196 19 4.02218C19 4.02477 19 4.02739 19 4.03006C19 4.03272 19 4.03542 19 4.03817C19 4.04091 19 4.0437 19 4.04652C19 4.04934 19 4.0522 19 4.05511C19 4.05801 19 4.06095 19 4.06393C19 4.06691 19 4.06993 19 4.07299C19 4.07604 19 4.07914 19 4.08228C19 4.08541 19 4.08859 19 4.0918C19 4.09501 19 4.09826 19 4.10155C19 4.10485 19 4.10817 19 4.11154C19 4.11491 19 4.11831 19 4.12176C19 4.1252 19 4.12868 19 4.1322C19 4.13572 19 4.13928 19 4.14287C19 4.14647 19 4.1501 19 4.15377C19 4.15744 19 4.16115 19 4.16489C19 4.16864 19 4.17242 19 4.17624C19 4.18006 19 4.18392 19 4.18781C19 4.19171 19 4.19564 19 4.19961C19 4.20358 19 4.20758 19 4.21162C19 4.21567 19 4.21974 19 4.22386C19 4.22798 19 4.23213 19 4.23632C19 4.2405 19 4.24473 19 4.24899C19 4.25325 19 4.25755 19 4.26188C19 4.26622 19 4.27059 19 4.27499C19 4.2794 19 4.28384 19 4.28832C19 4.29279 19 4.29731 19 4.30186C19 4.3064 19 4.31099 19 4.31561C19 4.32023 19 4.32488 19 4.32957C19 4.33426 19 4.33899 19 4.34375C19 4.34851 19 4.35331 19 4.35814C19 4.36297 19 4.36783 19 4.37273C19 4.37763 19 4.38257 19 4.38754C19 4.39251 19 4.39751 19 4.40255C19 4.40759 19 4.41266 19 4.41777C19 4.42288 19 4.42802 19 4.4332C19 4.43837 19 4.44358 19 4.44883C19 4.45407 19 4.45935 19 4.46466C19 4.46997 19 4.47532 19 4.4807C19 4.48608 19 4.49149 19 4.49693C19 4.50238 19 4.50786 19 4.51337C19 4.51888 19 4.52443 19 4.53001C19 4.53559 19 4.5412 19 4.54685C19 4.55249 19 4.55817 19 4.56388C19 4.56959 19 4.57533 19 4.58111C19 4.58689 19 4.59269 19 4.59854C19 4.60438 19 4.61025 19 4.61616C19 4.62206 19 4.628 19 4.63397C19 4.63994 19 4.64594 19 4.65198C19 4.65801 19 4.66408 19 4.67017C19 4.67627 19 4.6824 19 4.68856C19 4.69472 19 4.70092 19 4.70714C19 4.71336 19 4.71962 19 4.72591C19 4.73219 19 4.73851 19 4.74486C19 4.75121 19 4.75759 19 4.764C19 4.77041 19 4.77685 19 4.78333C19 4.7898 19 4.7963 19 4.80284C19 4.80937 19 4.81594 19 4.82253C19 4.82913 19 4.83575 19 4.84241C19 4.84907 19 4.85575 19 4.86247C19 4.86918 19 4.87593 19 4.88271C19 4.88948 19 4.89629 19 4.90312C19 4.90996 19 4.91683 19 4.92372C19 4.93062 19 4.93754 19 4.9445C19 4.95145 19 4.95843 19 4.96545C19 4.97246 19 4.9795 19 4.98657C19 4.99365 19 5.00075 19 5.00787C19 5.015 19 5.02216 19 5.02935C19 5.03654 19 5.04375 19 5.051C19 5.05824 19 5.06551 19 5.07281C19 5.08012 19 5.08745 19 5.0948C19 5.10216 19 5.10955 19 5.11696C19 5.12438 19 5.13182 19 5.13929C19 5.14676 19 5.15426 19 5.16178C19 5.16931 19 5.17686 19 5.18445C19 5.19203 19 5.19964 19 5.20727C19 5.21491 19 5.22257 19 5.23026C19 5.23795 19 5.24567 19 5.25342C19 5.26116 19 5.26894 19 5.27674C19 5.28453 19 5.29236 19 5.30021C19 5.30807 19 5.31595 19 5.32385C19 5.33176 19 5.33969 19 5.34765C19 5.35561 19 5.3636 19 5.37161C19 5.37962 19 5.38766 19 5.39572C19 5.40379 19 5.41188 19 5.41999C19 5.42811 19 5.43625 19 5.44442C19 5.45259 19 5.46078 19 5.469C19 5.47722 19 5.48547 19 5.49374C19 5.50201 19 5.5103 19 5.51862C19 5.52695 19 5.53529 19 5.54366C19 5.55203 19 5.56043 19 5.56885C19 5.57727 19 5.58572 19 5.59419C19 5.60266 19 5.61116 19 5.61968C19 5.6282 19 5.63674 19 5.64531C19 5.65388 19 5.66248 19 5.67109C19 5.67971 19 5.68835 19 5.69702C19 5.70569 19 5.71438 19 5.72309C19 5.73181 19 5.74054 19 5.74931C19 5.75807 19 5.76685 19 5.77566C19 5.78447 19 5.7933 19 5.80216C19 5.81102 19 5.8199 19 5.8288C19 5.8377 19 5.84663 19 5.85558C19 5.86453 19 5.8735 19 5.8825C19 5.89149 19 5.90051 19 5.90955C19 5.91859 19 5.92765 19 5.93674C19 5.94583 19 5.95494 19 5.96407C19 5.9732 19 5.98235 19 5.99153C19 6.0007 19 6.0099 19 6.01912C19 6.02834 19 6.03758 19 6.04685C19 6.05611 19 6.0654 19 6.07471C19 6.08401 19 6.09334 19 6.1027C19 6.11205 19 6.12142 19 6.13081C19 6.14021 19 6.14962 19 6.15906C19 6.1685 19 6.17796 19 6.18743C19 6.19691 19 6.20641 19 6.21593C19 6.22546 19 6.235 19 6.24456C19 6.25412 19 6.26371 19 6.27331C19 6.28292 19 6.29254 19 6.30219C19 6.31183 19 6.3215 19 6.33118C19 6.34087 19 6.35057 19 6.3603C19 6.37003 19 6.37977 19 6.38954C19 6.3993 19 6.40909 19 6.4189C19 6.4287 19 6.43853 19 6.44837C19 6.45822 19 6.46808 19 6.47796C19 6.48785 19 6.49775 19 6.50767C19 6.5176 19 6.52754 19 6.5375C19 6.54746 19 6.55744 19 6.56744C19 6.57744 19 6.58746 19 6.59749C19 6.60753 19 6.61758 19 6.62766C19 6.63773 19 6.64783 19 6.65794C19 6.66805 19 6.67818 19 6.68832C19 6.69847 19 6.70864 19 6.71882C19 6.729 19 6.73921 19 6.74943C19 6.75965 19 6.76988 19 6.78014C19 6.79039 19 6.80067 19 6.81096C19 6.82125 19 6.83156 19 6.84188C19 6.85221 19 6.86255 19 6.87291C19 6.88327 19 6.89365 19 6.90405C19 6.91444 19 6.92485 19 6.93528C19 6.94571 19 6.95615 19 6.96662C19 6.97708 19 6.98756 19 6.99805C19 7.00855 19 7.01906 19 7.02959C19 7.04012 19 7.05066 19 7.06122C19 7.07179 19 7.08236 19 7.09296C19 7.10355 19 7.11416 19 7.12479C19 7.13541 19 7.14605 19 7.15671C19 7.16737 19 7.17804 19 7.18873C19 7.19942 19 7.21012 19 7.22084C19 7.23156 19 7.24229 19 7.25304C19 7.26379 19 7.27456 19 7.28534C19 7.29612 19 7.30692 19 7.31773C19 7.32854 19 7.33936 19 7.3502C19 7.36104 19 7.3719 19 7.38276C19 7.39363 19 7.40452 19 7.41542C19 7.42631 19 7.43723 19 7.44815C19 7.45908 19 7.47002 19 7.48098C19 7.49193 19 7.5029 19 7.51388C19 7.52487 19 7.53586 19 7.54688C19 7.55789 19 7.56891 19 7.57995C19 7.59099 19 7.60204 19 7.6131C19 7.62417 19 7.63525 19 7.64634C19 7.65743 19 7.66853 19 7.67965C19 7.69077 19 7.7019 19 7.71305C19 7.72419 19 7.73535 19 7.74652C19 7.75768 19 7.76887 19 7.78006C19 7.79126 19 7.80246 19 7.81368C19 7.8249 19 7.83614 19 7.84738C19 7.85862 19 7.86988 19 7.88115C19 7.89242 19 7.9037 19 7.91499C19 7.92629 19 7.93759 19 7.94891C19 7.96022 19 7.97155 19 7.98289C19 7.99423 19 8.00558 19 8.01694C19 8.02831 19 8.03968 19 8.05106C19 8.06245 19 8.07385 19 8.08525C19 8.09666 19 8.10808 19 8.11951C19 8.13094 19 8.14238 19 8.15383C19 8.16528 19 8.17674 19 8.18822C19 8.19969 19 8.21117 19 8.22266C19 8.23416 19 8.24566 19 8.25717C19 8.26869 19 8.28021 19 8.29175C19 8.30328 19 8.31483 19 8.32638C19 8.33793 19 8.3495 19 8.36107C19 8.37265 19 8.38423 19 8.39582C19 8.40742 19 8.41902 19 8.43063C19 8.44224 19 8.45386 19 8.46549C19 8.47712 19 8.48876 19 8.50041C19 8.51206 19 8.52372 19 8.53539C19 8.54705 19 8.55873 19 8.57041C19 8.5821 19 8.59379 19 8.60549C19 8.6172 19 8.62891 19 8.64062C19 8.65234 19 8.66407 19 8.67581C19 8.68754 19 8.69929 19 8.71104C19 8.72279 19 8.73455 19 8.74632C19 8.75808 19 8.76986 19 8.78164C19 8.79343 19 8.80522 19 8.81701C19 8.82881 19 8.84062 19 8.85243C19 8.86425 19 8.87607 19 8.8879C19 8.89972 19 8.91156 19 8.9234C19 8.93524 19 8.94709 19 8.95895C19 8.97081 19 8.98267 19 8.99454C19 9.00641 19 9.01828 19 9.03017C19 9.04205 19 9.05394 19 9.06584C19 9.07773 19 9.08964 19 9.10154C19 9.11345 19 9.12537 19 9.13729C19 9.14921 19 9.16114 19 9.17307C19 9.185 19 9.19694 19 9.20889C19 9.22083 19 9.23278 19 9.24474C19 9.25669 19 9.26865 19 9.28062C19 9.29259 19 9.30456 19 9.31654C19 9.32852 19 9.3405 19 9.35249C19 9.36447 19 9.37647 19 9.38846C19 9.40046 19 9.41246 19 9.42447C19 9.43648 19 9.44849 19 9.46051C19 9.47252 19 9.48454 19 9.49657C19 9.5086 19 9.52063 19 9.53266C19 9.54469 19 9.55673 19 9.56877C19 9.58082 19 9.59286 19 9.60491C19 9.61696 19 9.62902 19 9.64108C19 9.65313 19 9.66519 19 9.67726C19 9.68932 19 9.70139 19 9.71347C19 9.72554 19 9.73761 19 9.74969C19 9.76177 19 9.77385 19 9.78594C19 9.79802 19 9.81011 19 9.8222C19 9.83429 19 9.84639 19 9.85848C19 9.87058 19 9.88268 19 9.89478C19 9.90688 19 9.91899 19 9.93109C19 9.9432 19 9.95531 19 9.96742C19 9.97953 19 9.99164 19 10.0038C19 10.0159 19 10.028 19 10.0401C19 10.0522 19 10.0644 19 10.0765C19 10.0886 19 10.1007 19 10.1129C19 10.125 19 10.1371 19 10.1492C19 10.1614 19 10.1735 19 10.1856C19 10.1978 19 10.2099 19 10.222C19 10.2342 19 10.2463 19 10.2584C19 10.2706 19 10.2827 19 10.2948C19 10.307 19 10.3191 19 10.3313C19 10.3434 19 10.3555 19 10.3677C19 10.3798 19 10.392 19 10.4041C19 10.4162 19 10.4284 19 10.4405C19 10.4527 19 10.4648 19 10.4769C19 10.4891 19 10.5012 19 10.5134C19 10.5255 19 10.5376 19 10.5498C19 10.5619 19 10.5741 19 10.5862C19 10.5983 19 10.6105 19 10.6226C19 10.6347 19 10.6469 19 10.659C19 10.6712 19 10.6833 19 10.6954C19 10.7076 19 10.7197 19 10.7318C19 10.744 19 10.7561 19 10.7682C19 10.7803 19 10.7925 19 10.8046C19 10.8167 19 10.8288 19 10.841C19 10.8531 19 10.8652 19 10.8773C19 10.8894 19 10.9016 19 10.9137C19 10.9258 19 10.9379 19 10.95C19 10.9621 19 10.9742 19 10.9863C19 10.9984 19 11.0105 19 11.0226C19 11.0347 19 11.0468 19 11.0589C19 11.071 19 11.0831 19 11.0952C19 11.1073 19 11.1194 19 11.1314C19 11.1435 19 11.1556 19 11.1677C19 11.1798 19 11.1918 19 11.2039C19 11.216 19 11.228 19 11.2401C19 11.2522 19 11.2642 19 11.2763C19 11.2883 19 11.3004 19 11.3124C19 11.3245 19 11.3365 19 11.3486C19 11.3606 19 11.3726 19 11.3847C19 11.3967 19 11.4087 19 11.4207C19 11.4328 19 11.4448 19 11.4568C19 11.4688 19 11.4808 19 11.4928C19 11.5048 19 11.5168 19 11.5288C19 11.5408 19 11.5528 19 11.5648C19 11.5768 19 11.5887 19 11.6007C19 11.6127 19 11.6246 19 11.6366C19 11.6486 19 11.6605 19 11.6725C19 11.6844 19 11.6964 19 11.7083C19 11.7203 19 11.7322 19 11.7441C19 11.756 19 11.768 19 11.7799C19 11.7918 19 11.8037 19 11.8156C19 11.8275 19 11.8394 19 11.8513C19 11.8632 19 11.8751 19 11.887C19 11.8988 19 11.9107 19 11.9226C19 11.9344 19 11.9463 19 11.9581C19 11.97 19 11.9818 19 11.9937C19 12.0055 19 12.0173 19 12.0292C19 12.041 19 12.0528 19 12.0646C19 12.0764 19 12.0882 19 12.1C19 12.1118 19 12.1236 19 12.1354C19 12.1471 19 12.1589 19 12.1707C19 12.1824 19 12.1942 19 12.2059C19 12.2177 19 12.2294 19 12.2411C19 12.2529 19 12.2646 19 12.2763C19 12.288 19 12.2997 19 12.3114C19 12.3231 19 12.3348 19 12.3465C19 12.3581 19 12.3698 19 12.3815C19 12.3931 19 12.4048 19 12.4164C19 12.428 19 12.4397 19 12.4513C19 12.4629 19 12.4745 19 12.4861C19 12.4977 19 12.5093 19 12.5209C19 12.5325 19 12.5441 19 12.5557C19 12.5672 19 12.5788 19 12.5903C19 12.6019 19 12.6134 19 12.6249C19 12.6365 19 12.648 19 12.6595C19 12.671 19 12.6825 19 12.694C19 12.7054 19 12.7169 19 12.7284C19 12.7398 19 12.7513 19 12.7627C19 12.7742 19 12.7856 19 12.797C19 12.8084 19 12.8199 19 12.8313C19 12.8427 19 12.854 19 12.8654C19 12.8768 19 12.8882 19 12.8995C19 12.9109 19 12.9222 19 12.9335C19 12.9449 19 12.9562 19 12.9675C19 12.9788 19 12.9901 19 13.0014C19 13.0127 19 13.0239 19 13.0352C19 13.0464 19 13.0577 19 13.0689C19 13.0802 19 13.0914 19 13.1026C19 13.1138 19 13.125 19 13.1362C19 13.1474 19 13.1585 19 13.1697C19 13.1808 19 13.192 19 13.2031C19 13.2143 19 13.2254 19 13.2365C19 13.2476 19 13.2587 19 13.2698C19 13.2808 19 13.2919 19 13.303C19 13.314 19 13.3251 19 13.3361C19 13.3471 19 13.3581 19 13.3691C19 13.3801 19 13.3911 19 13.4021C19 13.413 19 13.424 19 13.4349C19 13.4459 19 13.4568 19 13.4677C19 13.4787 19 13.4896 19 13.5004C19 13.5113 19 13.5222 19 13.5331C19 13.5439 19 13.5548 19 13.5656C19 13.5764 19 13.5872 19 13.598C19 13.6088 19 13.6196 19 13.6304C19 13.6411 19 13.6519 19 13.6626C19 13.6734 19 13.6841 19 13.6948C19 13.7055 19 13.7162 19 13.7269C19 13.7375 19 13.7482 19 13.7588C19 13.7695 19 13.7801 19 13.7907C19 13.8013 19 13.8119 19 13.8225C19 13.8331 19 13.8436 19 13.8542C19 13.8647 19 13.8753 19 13.8858C19 13.8963 19 13.9068 19 13.9173C19 13.9278 19 13.9382 19 13.9487C19 13.9591 19 13.9696 19 13.98C19 13.9904 19 14.0008 19 14.0112C19 14.0215 19 14.0319 19 14.0422C19 14.0526 19 14.0629 19 14.0732C19 14.0835 19 14.0938 19 14.1041C19 14.1144 19 14.1246 19 14.1349C19 14.1451 19 14.1553 19 14.1656C19 14.1758 19 14.1859 19 14.1961C19 14.2063 19 14.2164 19 14.2266C19 14.2367 19 14.2468 19 14.2569C19 14.267 19 14.2771 19 14.2871C19 14.2972 19 14.3072 19 14.3173C19 14.3273 19 14.3373 19 14.3473C19 14.3572 19 14.3672 19 14.3771C19 14.3871 19 14.397 19 14.4069C19 14.4168 19 14.4267 19 14.4366C19 14.4464 19 14.4563 19 14.4661C19 14.476 19 14.4858 19 14.4956C19 14.5053 19 14.5151 19 14.5249C19 14.5346 19 14.5443 19 14.554C19 14.5638 19 14.5734 19 14.5831C19 14.5928 19 14.6024 19 14.6121C19 14.6217 19 14.6313 19 14.6409C19 14.6505 19 14.66 19 14.6696C19 14.6791 19 14.6886 19 14.6981C19 14.7076 19 14.7171 19 14.7266C19 14.7361 19 14.7455 19 14.7549C19 14.7643 19 14.7737 19 14.7831C19 14.7925 19 14.8018 19 14.8112C19 14.8205 19 14.8298 19 14.8391C19 14.8484 19 14.8577 19 14.8669C19 14.8761 19 14.8854 19 14.8946C19 14.9038 19 14.913 19 14.9221C19 14.9313 19 14.9404 19 14.9495C19 14.9586 19 14.9677 19 14.9768C19 14.9858 19 14.9949 19 15.0039C19 15.0129 19 15.0219 19 15.0309C19 15.0399 19 15.0488 19 15.0578C19 15.0667 19 15.0756 19 15.0845C19 15.0934 19 15.1022 19 15.1111C19 15.1199 19 15.1287 19 15.1375C19 15.1463 19 15.1551 19 15.1638C19 15.1725 19 15.1813 19 15.1899C19 15.1986 19 15.2073 19 15.216C19 15.2246 19 15.2332 19 15.2418C19 15.2504 19 15.259 19 15.2675C19 15.2761 19 15.2846 19 15.2931C19 15.3016 19 15.3101 19 15.3185C19 15.327 19 15.3354 19 15.3438C19 15.3522 19 15.3606 19 15.3689C19 15.3773 19 15.3856 19 15.3939C19 15.4022 19 15.4105 19 15.4187C19 15.427 19 15.4352 19 15.4434C19 15.4516 19 15.4598 19 15.4679C19 15.4761 19 15.4842 19 15.4923C19 15.5004 19 15.5084 19 15.5165C19 15.5245 19 15.5325 19 15.5405C19 15.5485 19 15.5565 19 15.5644C19 15.5724 19 15.5803 19 15.5881C19 15.596 19 15.6039 19 15.6117C19 15.6195 19 15.6274 19 15.6351C19 15.6429 19 15.6507 19 15.6584C19 15.6661 19 15.6738 19 15.6815C19 15.6891 19 15.6968 19 15.7044C19 15.712 19 15.7196 19 15.7271C19 15.7347 19 15.7422 19 15.7497C19 15.7572 19 15.7647 19 15.7721C19 15.7796 19 15.787 19 15.7944C19 15.8018 19 15.8092 19 15.8165C19 15.8238 19 15.8311 19 15.8384C19 15.8457 19 15.8529 19 15.8602C19 15.8674 19 15.8746 19 15.8817C19 15.8889 19 15.896 19 15.9031C19 15.9102 19 15.9173 19 15.9244C19 15.9314 19 15.9384 19 15.9454C19 15.9524 19 15.9593 19 15.9663C19 15.9732 19 15.9801 19 15.987C19 15.9938 19 16.0007 19 16.0075C19 16.0143 19 16.0211 19 16.0278C19 16.0346 19 16.0413 19 16.048C19 16.0547 19 16.0614 19 16.068C19 16.0746 19 16.0812 19 16.0878C19 16.0943 19 16.1009 19 16.1074C19 16.1139 19 16.1204 19 16.1268C19 16.1333 19 16.1397 19 16.1461C19 16.1525 19 16.1588 19 16.1651C19 16.1715 19 16.1777 19 16.184C19 16.1903 19 16.1965 19 16.2027C19 16.2089 19 16.2151 19 16.2212C19 16.2273 19 16.2334 19 16.2395C19 16.2456 19 16.2516 19 16.2576C19 16.2636 19 16.2696 19 16.2755C19 16.2815 19 16.2874 19 16.2933C19 16.2991 19 16.305 19 16.3108C19 16.3166 19 16.3224 19 16.3281C19 16.3339 19 16.3396 19 16.3453C19 16.351 19 16.3566 19 16.3622C19 16.3679 19 16.3734 19 16.379C19 16.3845 19 16.3901 19 16.3955C19 16.401 19 16.4065 19 16.4119C19 16.4173 19 16.4227 19 16.4281C19 16.4334 19 16.4387 19 16.444C19 16.4493 19 16.4545 19 16.4597C19 16.465 19 16.4701 19 16.4753C19 16.4804 19 16.4855 19 16.4906C19 16.4957 19 16.5007 19 16.5058C19 16.5108 19 16.5157 19 16.5207C19 16.5256 19 16.5305 19 16.5354C19 16.5403 19 16.5451 19 16.5499C19 16.5547 19 16.5595 19 16.5642C19 16.5689 19 16.5736 19 16.5783C19 16.5829 19 16.5876 19 16.5922C19 16.5968 19 16.6013 19 16.6058C19 16.6103 19 16.6148 19 16.6193C19 16.6237 19 16.6281 19 16.6325C19 16.6369 19 16.6412 19 16.6455C19 16.6498 19 16.6541 19 16.6583C19 16.6625 19 16.6667 19 16.6709C19 16.6751 19 16.6792 19 16.6833C19 16.6873 19 16.6914 19 16.6954C19 16.6994 19 16.7034 19 16.7073C19 16.7113 19 16.7152 19 16.719C19 16.7229 19 16.7267 19 16.7305C19 16.7343 19 16.738 19 16.7418C19 16.7455 19 16.7491 19 16.7528C19 16.7564 19 16.76 19 16.7636C19 16.7671 19 16.7707 19 16.7742C19 16.7776 19 16.7811 19 16.7845C19 16.7879 19 16.7913 19 16.7946C19 16.798 19 16.8012 19 16.8045C19 16.8078 19 16.811 19 16.8142C19 16.8173 19 16.8205 19 16.8236C19 16.8267 19 16.8298 19 16.8328C19 16.8358 19 16.8388 19 16.8417C19 16.8447 19 16.8476 19 16.8505C19 16.8533 19 16.8561 19 16.8589C19 16.8617 19 16.8645 19 16.8672C19 16.8699 19 16.8726 19 16.8752C19 16.8778 19 16.8804 19 16.883C19 16.8855 19 16.888 19 16.8905C19 16.893 19 16.8954 19 16.8978C19 16.9002 19 16.9025 19 16.9048C19 16.9071 19 16.9094 19 16.9116C19 16.9139 19 16.9161 19 16.9182C19 16.9204 19 16.9225 19 16.9245C19 16.9266 19 16.9286 19 16.9306C19 16.9326 19 16.9345 19 16.9364C19 16.9383 19 16.9402 19 16.942C19 16.9438 19 16.9456 19 16.9473C19 16.9491 19 16.9507 19 16.9524C19 16.954 19 16.9557 19 16.9572C19 16.9588 19 16.9603 19 16.9618C19 16.9633 19 16.9647 19 16.9661C19 16.9675 19 16.9689 19 16.9702C19 16.9715 19 16.9728 19 16.974C19 16.9752 19 16.9764 19 16.9775C19 16.9787 19 16.9798 19 16.9808C19 16.9819 19 16.9829 19 16.9839C19 16.9849 19 16.9858 19 16.9867C19 16.9875 19 16.9884 19 16.9892C19 16.99 19 16.9907 19 16.9914C19 16.9922 19 16.9928 19 16.9934C19 16.9941 19 16.9946 19 16.9952C19 16.9957 19 16.9962 19 16.9966C19 16.9971 19 16.9975 19 16.9979C19 16.9982 19 16.9985 19 16.9988C19 16.9991 19 16.9993 19 16.9995C19 16.9996 19 16.9998 19 16.9999C19 17 19 17 20 17C21 17 21 17 21 16.9999C21 16.9998 21 16.9996 21 16.9995C21 16.9993 21 16.9991 21 16.9988C21 16.9985 21 16.9982 21 16.9979C21 16.9975 21 16.9971 21 16.9966C21 16.9962 21 16.9957 21 16.9952C21 16.9946 21 16.9941 21 16.9934C21 16.9928 21 16.9922 21 16.9914C21 16.9907 21 16.99 21 16.9892C21 16.9884 21 16.9875 21 16.9867C21 16.9858 21 16.9849 21 16.9839C21 16.9829 21 16.9819 21 16.9808C21 16.9798 21 16.9787 21 16.9775C21 16.9764 21 16.9752 21 16.974C21 16.9728 21 16.9715 21 16.9702C21 16.9689 21 16.9675 21 16.9661C21 16.9647 21 16.9633 21 16.9618C21 16.9603 21 16.9588 21 16.9572C21 16.9557 21 16.954 21 16.9524C21 16.9507 21 16.9491 21 16.9473C21 16.9456 21 16.9438 21 16.942C21 16.9402 21 16.9383 21 16.9364C21 16.9345 21 16.9326 21 16.9306C21 16.9286 21 16.9266 21 16.9245C21 16.9225 21 16.9204 21 16.9182C21 16.9161 21 16.9139 21 16.9116C21 16.9094 21 16.9071 21 16.9048C21 16.9025 21 16.9002 21 16.8978C21 16.8954 21 16.893 21 16.8905C21 16.888 21 16.8855 21 16.883C21 16.8804 21 16.8778 21 16.8752C21 16.8726 21 16.8699 21 16.8672C21 16.8645 21 16.8617 21 16.8589C21 16.8561 21 16.8533 21 16.8505C21 16.8476 21 16.8447 21 16.8417C21 16.8388 21 16.8358 21 16.8328C21 16.8298 21 16.8267 21 16.8236C21 16.8205 21 16.8173 21 16.8142C21 16.811 21 16.8078 21 16.8045C21 16.8012 21 16.798 21 16.7946C21 16.7913 21 16.7879 21 16.7845C21 16.7811 21 16.7776 21 16.7742C21 16.7707 21 16.7671 21 16.7636C21 16.76 21 16.7564 21 16.7528C21 16.7491 21 16.7455 21 16.7418C21 16.738 21 16.7343 21 16.7305C21 16.7267 21 16.7229 21 16.719C21 16.7152 21 16.7113 21 16.7073C21 16.7034 21 16.6994 21 16.6954C21 16.6914 21 16.6873 21 16.6833C21 16.6792 21 16.6751 21 16.6709C21 16.6667 21 16.6625 21 16.6583C21 16.6541 21 16.6498 21 16.6455C21 16.6412 21 16.6369 21 16.6325C21 16.6281 21 16.6237 21 16.6193C21 16.6148 21 16.6103 21 16.6058C21 16.6013 21 16.5968 21 16.5922C21 16.5876 21 16.5829 21 16.5783C21 16.5736 21 16.5689 21 16.5642C21 16.5595 21 16.5547 21 16.5499C21 16.5451 21 16.5403 21 16.5354C21 16.5305 21 16.5256 21 16.5207C21 16.5157 21 16.5108 21 16.5058C21 16.5007 21 16.4957 21 16.4906C21 16.4855 21 16.4804 21 16.4753C21 16.4701 21 16.465 21 16.4597C21 16.4545 21 16.4493 21 16.444C21 16.4387 21 16.4334 21 16.4281C21 16.4227 21 16.4173 21 16.4119C21 16.4065 21 16.401 21 16.3955C21 16.3901 21 16.3845 21 16.379C21 16.3734 21 16.3679 21 16.3622C21 16.3566 21 16.351 21 16.3453C21 16.3396 21 16.3339 21 16.3281C21 16.3224 21 16.3166 21 16.3108C21 16.305 21 16.2991 21 16.2933C21 16.2874 21 16.2815 21 16.2755C21 16.2696 21 16.2636 21 16.2576C21 16.2516 21 16.2456 21 16.2395C21 16.2334 21 16.2273 21 16.2212C21 16.2151 21 16.2089 21 16.2027C21 16.1965 21 16.1903 21 16.184C21 16.1777 21 16.1715 21 16.1651C21 16.1588 21 16.1525 21 16.1461C21 16.1397 21 16.1333 21 16.1268C21 16.1204 21 16.1139 21 16.1074C21 16.1009 21 16.0943 21 16.0878C21 16.0812 21 16.0746 21 16.068C21 16.0614 21 16.0547 21 16.048C21 16.0413 21 16.0346 21 16.0278C21 16.0211 21 16.0143 21 16.0075C21 16.0007 21 15.9938 21 15.987C21 15.9801 21 15.9732 21 15.9663C21 15.9593 21 15.9524 21 15.9454C21 15.9384 21 15.9314 21 15.9244C21 15.9173 21 15.9102 21 15.9031C21 15.896 21 15.8889 21 15.8817C21 15.8746 21 15.8674 21 15.8602C21 15.8529 21 15.8457 21 15.8384C21 15.8311 21 15.8238 21 15.8165C21 15.8092 21 15.8018 21 15.7944C21 15.787 21 15.7796 21 15.7721C21 15.7647 21 15.7572 21 15.7497C21 15.7422 21 15.7347 21 15.7271C21 15.7196 21 15.712 21 15.7044C21 15.6968 21 15.6891 21 15.6815C21 15.6738 21 15.6661 21 15.6584C21 15.6507 21 15.6429 21 15.6351C21 15.6274 21 15.6195 21 15.6117C21 15.6039 21 15.596 21 15.5881C21 15.5803 21 15.5724 21 15.5644C21 15.5565 21 15.5485 21 15.5405C21 15.5325 21 15.5245 21 15.5165C21 15.5084 21 15.5004 21 15.4923C21 15.4842 21 15.4761 21 15.4679C21 15.4598 21 15.4516 21 15.4434C21 15.4352 21 15.427 21 15.4187C21 15.4105 21 15.4022 21 15.3939C21 15.3856 21 15.3773 21 15.3689C21 15.3606 21 15.3522 21 15.3438C21 15.3354 21 15.327 21 15.3185C21 15.3101 21 15.3016 21 15.2931C21 15.2846 21 15.2761 21 15.2675C21 15.259 21 15.2504 21 15.2418C21 15.2332 21 15.2246 21 15.216C21 15.2073 21 15.1986 21 15.1899C21 15.1813 21 15.1725 21 15.1638C21 15.1551 21 15.1463 21 15.1375C21 15.1287 21 15.1199 21 15.1111C21 15.1022 21 15.0934 21 15.0845C21 15.0756 21 15.0667 21 15.0578C21 15.0488 21 15.0399 21 15.0309C21 15.0219 21 15.0129 21 15.0039C21 14.9949 21 14.9858 21 14.9768C21 14.9677 21 14.9586 21 14.9495C21 14.9404 21 14.9313 21 14.9221C21 14.913 21 14.9038 21 14.8946C21 14.8854 21 14.8761 21 14.8669C21 14.8577 21 14.8484 21 14.8391C21 14.8298 21 14.8205 21 14.8112C21 14.8018 21 14.7925 21 14.7831C21 14.7737 21 14.7643 21 14.7549C21 14.7455 21 14.7361 21 14.7266C21 14.7171 21 14.7076 21 14.6981C21 14.6886 21 14.6791 21 14.6696C21 14.66 21 14.6505 21 14.6409C21 14.6313 21 14.6217 21 14.6121C21 14.6024 21 14.5928 21 14.5831C21 14.5734 21 14.5638 21 14.554C21 14.5443 21 14.5346 21 14.5249C21 14.5151 21 14.5053 21 14.4956C21 14.4858 21 14.476 21 14.4661C21 14.4563 21 14.4464 21 14.4366C21 14.4267 21 14.4168 21 14.4069C21 14.397 21 14.3871 21 14.3771C21 14.3672 21 14.3572 21 14.3473C21 14.3373 21 14.3273 21 14.3173C21 14.3072 21 14.2972 21 14.2871C21 14.2771 21 14.267 21 14.2569C21 14.2468 21 14.2367 21 14.2266C21 14.2164 21 14.2063 21 14.1961C21 14.1859 21 14.1758 21 14.1656C21 14.1553 21 14.1451 21 14.1349C21 14.1246 21 14.1144 21 14.1041C21 14.0938 21 14.0835 21 14.0732C21 14.0629 21 14.0526 21 14.0422C21 14.0319 21 14.0215 21 14.0112C21 14.0008 21 13.9904 21 13.98C21 13.9696 21 13.9591 21 13.9487C21 13.9382 21 13.9278 21 13.9173C21 13.9068 21 13.8963 21 13.8858C21 13.8753 21 13.8647 21 13.8542C21 13.8436 21 13.8331 21 13.8225C21 13.8119 21 13.8013 21 13.7907C21 13.7801 21 13.7695 21 13.7588C21 13.7482 21 13.7375 21 13.7269C21 13.7162 21 13.7055 21 13.6948C21 13.6841 21 13.6734 21 13.6626C21 13.6519 21 13.6411 21 13.6304C21 13.6196 21 13.6088 21 13.598C21 13.5872 21 13.5764 21 13.5656C21 13.5548 21 13.5439 21 13.5331C21 13.5222 21 13.5113 21 13.5004C21 13.4896 21 13.4787 21 13.4677C21 13.4568 21 13.4459 21 13.4349C21 13.424 21 13.413 21 13.4021C21 13.3911 21 13.3801 21 13.3691C21 13.3581 21 13.3471 21 13.3361C21 13.3251 21 13.314 21 13.303C21 13.2919 21 13.2808 21 13.2698C21 13.2587 21 13.2476 21 13.2365C21 13.2254 21 13.2143 21 13.2031C21 13.192 21 13.1808 21 13.1697C21 13.1585 21 13.1474 21 13.1362C21 13.125 21 13.1138 21 13.1026C21 13.0914 21 13.0802 21 13.0689C21 13.0577 21 13.0464 21 13.0352C21 13.0239 21 13.0127 21 13.0014C21 12.9901 21 12.9788 21 12.9675C21 12.9562 21 12.9449 21 12.9335C21 12.9222 21 12.9109 21 12.8995C21 12.8882 21 12.8768 21 12.8654C21 12.854 21 12.8427 21 12.8313C21 12.8199 21 12.8084 21 12.797C21 12.7856 21 12.7742 21 12.7627C21 12.7513 21 12.7398 21 12.7284C21 12.7169 21 12.7054 21 12.694C21 12.6825 21 12.671 21 12.6595C21 12.648 21 12.6365 21 12.6249C21 12.6134 21 12.6019 21 12.5903C21 12.5788 21 12.5672 21 12.5557C21 12.5441 21 12.5325 21 12.5209C21 12.5093 21 12.4977 21 12.4861C21 12.4745 21 12.4629 21 12.4513C21 12.4397 21 12.428 21 12.4164C21 12.4048 21 12.3931 21 12.3815C21 12.3698 21 12.3581 21 12.3465C21 12.3348 21 12.3231 21 12.3114C21 12.2997 21 12.288 21 12.2763C21 12.2646 21 12.2529 21 12.2411C21 12.2294 21 12.2177 21 12.2059C21 12.1942 21 12.1824 21 12.1707C21 12.1589 21 12.1471 21 12.1354C21 12.1236 21 12.1118 21 12.1C21 12.0882 21 12.0764 21 12.0646C21 12.0528 21 12.041 21 12.0292C21 12.0173 21 12.0055 21 11.9937C21 11.9818 21 11.97 21 11.9581C21 11.9463 21 11.9344 21 11.9226C21 11.9107 21 11.8988 21 11.887C21 11.8751 21 11.8632 21 11.8513C21 11.8394 21 11.8275 21 11.8156C21 11.8037 21 11.7918 21 11.7799C21 11.768 21 11.756 21 11.7441C21 11.7322 21 11.7203 21 11.7083C21 11.6964 21 11.6844 21 11.6725C21 11.6605 21 11.6486 21 11.6366C21 11.6246 21 11.6127 21 11.6007C21 11.5887 21 11.5768 21 11.5648C21 11.5528 21 11.5408 21 11.5288C21 11.5168 21 11.5048 21 11.4928C21 11.4808 21 11.4688 21 11.4568C21 11.4448 21 11.4328 21 11.4207C21 11.4087 21 11.3967 21 11.3847C21 11.3726 21 11.3606 21 11.3486C21 11.3365 21 11.3245 21 11.3124C21 11.3004 21 11.2883 21 11.2763C21 11.2642 21 11.2522 21 11.2401C21 11.228 21 11.216 21 11.2039C21 11.1918 21 11.1798 21 11.1677C21 11.1556 21 11.1435 21 11.1314C21 11.1194 21 11.1073 21 11.0952C21 11.0831 21 11.071 21 11.0589C21 11.0468 21 11.0347 21 11.0226C21 11.0105 21 10.9984 21 10.9863C21 10.9742 21 10.9621 21 10.95C21 10.9379 21 10.9258 21 10.9137C21 10.9016 21 10.8894 21 10.8773C21 10.8652 21 10.8531 21 10.841C21 10.8288 21 10.8167 21 10.8046C21 10.7925 21 10.7803 21 10.7682C21 10.7561 21 10.744 21 10.7318C21 10.7197 21 10.7076 21 10.6954C21 10.6833 21 10.6712 21 10.659C21 10.6469 21 10.6347 21 10.6226C21 10.6105 21 10.5983 21 10.5862C21 10.5741 21 10.5619 21 10.5498C21 10.5376 21 10.5255 21 10.5134C21 10.5012 21 10.4891 21 10.4769C21 10.4648 21 10.4527 21 10.4405C21 10.4284 21 10.4162 21 10.4041C21 10.392 21 10.3798 21 10.3677C21 10.3555 21 10.3434 21 10.3313C21 10.3191 21 10.307 21 10.2948C21 10.2827 21 10.2706 21 10.2584C21 10.2463 21 10.2342 21 10.222C21 10.2099 21 10.1978 21 10.1856C21 10.1735 21 10.1614 21 10.1492C21 10.1371 21 10.125 21 10.1129C21 10.1007 21 10.0886 21 10.0765C21 10.0644 21 10.0522 21 10.0401C21 10.028 21 10.0159 21 10.0038C21 9.99164 21 9.97953 21 9.96742C21 9.95531 21 9.9432 21 9.93109C21 9.91899 21 9.90688 21 9.89478C21 9.88268 21 9.87058 21 9.85848C21 9.84639 21 9.83429 21 9.8222C21 9.81011 21 9.79802 21 9.78594C21 9.77385 21 9.76177 21 9.74969C21 9.73761 21 9.72554 21 9.71347C21 9.70139 21 9.68932 21 9.67726C21 9.66519 21 9.65313 21 9.64108C21 9.62902 21 9.61696 21 9.60491C21 9.59286 21 9.58082 21 9.56877C21 9.55673 21 9.54469 21 9.53266C21 9.52063 21 9.5086 21 9.49657C21 9.48454 21 9.47252 21 9.46051C21 9.44849 21 9.43648 21 9.42447C21 9.41246 21 9.40046 21 9.38846C21 9.37647 21 9.36447 21 9.35249C21 9.3405 21 9.32852 21 9.31654C21 9.30456 21 9.29259 21 9.28062C21 9.26865 21 9.25669 21 9.24474C21 9.23278 21 9.22083 21 9.20889C21 9.19694 21 9.185 21 9.17307C21 9.16114 21 9.14921 21 9.13729C21 9.12537 21 9.11345 21 9.10154C21 9.08964 21 9.07773 21 9.06584C21 9.05394 21 9.04205 21 9.03017C21 9.01828 21 9.00641 21 8.99454C21 8.98267 21 8.97081 21 8.95895C21 8.94709 21 8.93524 21 8.9234C21 8.91156 21 8.89972 21 8.8879C21 8.87607 21 8.86425 21 8.85243C21 8.84062 21 8.82881 21 8.81701C21 8.80522 21 8.79343 21 8.78164C21 8.76986 21 8.75808 21 8.74632C21 8.73455 21 8.72279 21 8.71104C21 8.69929 21 8.68754 21 8.67581C21 8.66407 21 8.65234 21 8.64062C21 8.62891 21 8.6172 21 8.60549C21 8.59379 21 8.5821 21 8.57041C21 8.55873 21 8.54705 21 8.53539C21 8.52372 21 8.51206 21 8.50041C21 8.48876 21 8.47712 21 8.46549C21 8.45386 21 8.44224 21 8.43063C21 8.41902 21 8.40742 21 8.39582C21 8.38423 21 8.37265 21 8.36107C21 8.3495 21 8.33793 21 8.32638C21 8.31483 21 8.30328 21 8.29175C21 8.28021 21 8.26869 21 8.25717C21 8.24566 21 8.23416 21 8.22266C21 8.21117 21 8.19969 21 8.18822C21 8.17674 21 8.16528 21 8.15383C21 8.14238 21 8.13094 21 8.11951C21 8.10808 21 8.09666 21 8.08525C21 8.07385 21 8.06245 21 8.05106C21 8.03968 21 8.02831 21 8.01694C21 8.00558 21 7.99423 21 7.98289C21 7.97155 21 7.96022 21 7.94891C21 7.93759 21 7.92629 21 7.91499C21 7.9037 21 7.89242 21 7.88115C21 7.86988 21 7.85862 21 7.84738C21 7.83614 21 7.8249 21 7.81368C21 7.80246 21 7.79126 21 7.78006C21 7.76887 21 7.75768 21 7.74652C21 7.73535 21 7.72419 21 7.71305C21 7.7019 21 7.69077 21 7.67965C21 7.66853 21 7.65743 21 7.64634C21 7.63525 21 7.62417 21 7.6131C21 7.60204 21 7.59099 21 7.57995C21 7.56891 21 7.55789 21 7.54688C21 7.53586 21 7.52487 21 7.51388C21 7.5029 21 7.49193 21 7.48098C21 7.47002 21 7.45908 21 7.44815C21 7.43723 21 7.42631 21 7.41542C21 7.40452 21 7.39363 21 7.38276C21 7.3719 21 7.36104 21 7.3502C21 7.33936 21 7.32854 21 7.31773C21 7.30692 21 7.29612 21 7.28534C21 7.27456 21 7.26379 21 7.25304C21 7.24229 21 7.23156 21 7.22084C21 7.21012 21 7.19942 21 7.18873C21 7.17804 21 7.16737 21 7.15671C21 7.14605 21 7.13541 21 7.12479C21 7.11416 21 7.10355 21 7.09296C21 7.08236 21 7.07179 21 7.06122C21 7.05066 21 7.04012 21 7.02959C21 7.01906 21 7.00855 21 6.99805C21 6.98756 21 6.97708 21 6.96662C21 6.95615 21 6.94571 21 6.93528C21 6.92485 21 6.91444 21 6.90405C21 6.89365 21 6.88327 21 6.87291C21 6.86255 21 6.85221 21 6.84188C21 6.83156 21 6.82125 21 6.81096C21 6.80067 21 6.79039 21 6.78014C21 6.76988 21 6.75965 21 6.74943C21 6.73921 21 6.729 21 6.71882C21 6.70864 21 6.69847 21 6.68832C21 6.67818 21 6.66805 21 6.65794C21 6.64783 21 6.63773 21 6.62766C21 6.61758 21 6.60753 21 6.59749C21 6.58746 21 6.57744 21 6.56744C21 6.55744 21 6.54746 21 6.5375C21 6.52754 21 6.5176 21 6.50767C21 6.49775 21 6.48785 21 6.47796C21 6.46808 21 6.45822 21 6.44837C21 6.43853 21 6.4287 21 6.4189C21 6.40909 21 6.3993 21 6.38954C21 6.37977 21 6.37003 21 6.3603C21 6.35057 21 6.34087 21 6.33118C21 6.3215 21 6.31183 21 6.30219C21 6.29254 21 6.28292 21 6.27331C21 6.26371 21 6.25412 21 6.24456C21 6.235 21 6.22546 21 6.21593C21 6.20641 21 6.19691 21 6.18743C21 6.17796 21 6.1685 21 6.15906C21 6.14962 21 6.14021 21 6.13081C21 6.12142 21 6.11205 21 6.1027C21 6.09334 21 6.08401 21 6.07471C21 6.0654 21 6.05611 21 6.04685C21 6.03758 21 6.02834 21 6.01912C21 6.0099 21 6.0007 21 5.99153C21 5.98235 21 5.9732 21 5.96407C21 5.95494 21 5.94583 21 5.93674C21 5.92765 21 5.91859 21 5.90955C21 5.90051 21 5.89149 21 5.8825C21 5.8735 21 5.86453 21 5.85558C21 5.84663 21 5.8377 21 5.8288C21 5.8199 21 5.81102 21 5.80216C21 5.7933 21 5.78447 21 5.77566C21 5.76685 21 5.75807 21 5.74931C21 5.74054 21 5.73181 21 5.72309C21 5.71438 21 5.70569 21 5.69702C21 5.68835 21 5.67971 21 5.67109C21 5.66248 21 5.65388 21 5.64531C21 5.63674 21 5.6282 21 5.61968C21 5.61116 21 5.60266 21 5.59419C21 5.58572 21 5.57727 21 5.56885C21 5.56043 21 5.55203 21 5.54366C21 5.53529 21 5.52695 21 5.51862C21 5.5103 21 5.50201 21 5.49374C21 5.48547 21 5.47722 21 5.469C21 5.46078 21 5.45259 21 5.44442C21 5.43625 21 5.42811 21 5.41999C21 5.41188 21 5.40379 21 5.39572C21 5.38766 21 5.37962 21 5.37161C21 5.3636 21 5.35561 21 5.34765C21 5.33969 21 5.33176 21 5.32385C21 5.31595 21 5.30807 21 5.30021C21 5.29236 21 5.28453 21 5.27674C21 5.26894 21 5.26116 21 5.25342C21 5.24567 21 5.23795 21 5.23026C21 5.22257 21 5.21491 21 5.20727C21 5.19964 21 5.19203 21 5.18445C21 5.17686 21 5.16931 21 5.16178C21 5.15426 21 5.14676 21 5.13929C21 5.13182 21 5.12438 21 5.11696C21 5.10955 21 5.10216 21 5.0948C21 5.08745 21 5.08012 21 5.07281C21 5.06551 21 5.05824 21 5.051C21 5.04375 21 5.03654 21 5.02935C21 5.02216 21 5.015 21 5.00787C21 5.00075 21 4.99365 21 4.98657C21 4.9795 21 4.97246 21 4.96545C21 4.95843 21 4.95145 21 4.9445C21 4.93754 21 4.93062 21 4.92372C21 4.91683 21 4.90996 21 4.90312C21 4.89629 21 4.88948 21 4.88271C21 4.87593 21 4.86918 21 4.86247C21 4.85575 21 4.84907 21 4.84241C21 4.83575 21 4.82913 21 4.82253C21 4.81594 21 4.80937 21 4.80284C21 4.7963 21 4.7898 21 4.78333C21 4.77685 21 4.77041 21 4.764C21 4.75759 21 4.75121 21 4.74486C21 4.73851 21 4.73219 21 4.72591C21 4.71962 21 4.71336 21 4.70714C21 4.70092 21 4.69472 21 4.68856C21 4.6824 21 4.67627 21 4.67017C21 4.66408 21 4.65801 21 4.65198C21 4.64594 21 4.63994 21 4.63397C21 4.628 21 4.62206 21 4.61616C21 4.61025 21 4.60438 21 4.59854C21 4.59269 21 4.58689 21 4.58111C21 4.57533 21 4.56959 21 4.56388C21 4.55817 21 4.55249 21 4.54685C21 4.5412 21 4.53559 21 4.53001C21 4.52443 21 4.51888 21 4.51337C21 4.50786 21 4.50238 21 4.49693C21 4.49149 21 4.48608 21 4.4807C21 4.47532 21 4.46997 21 4.46466C21 4.45935 21 4.45407 21 4.44883C21 4.44358 21 4.43837 21 4.4332C21 4.42802 21 4.42288 21 4.41777C21 4.41266 21 4.40759 21 4.40255C21 4.39751 21 4.39251 21 4.38754C21 4.38257 21 4.37763 21 4.37273C21 4.36783 21 4.36297 21 4.35814C21 4.35331 21 4.34851 21 4.34375C21 4.33899 21 4.33426 21 4.32957C21 4.32488 21 4.32023 21 4.31561C21 4.31099 21 4.3064 21 4.30186C21 4.29731 21 4.29279 21 4.28832C21 4.28384 21 4.2794 21 4.27499C21 4.27059 21 4.26622 21 4.26188C21 4.25755 21 4.25325 21 4.24899C21 4.24473 21 4.2405 21 4.23632C21 4.23213 21 4.22798 21 4.22386C21 4.21974 21 4.21567 21 4.21162C21 4.20758 21 4.20358 21 4.19961C21 4.19564 21 4.19171 21 4.18781C21 4.18392 21 4.18006 21 4.17624C21 4.17242 21 4.16864 21 4.16489C21 4.16115 21 4.15744 21 4.15377C21 4.1501 21 4.14647 21 4.14287C21 4.13928 21 4.13572 21 4.1322C21 4.12868 21 4.1252 21 4.12176C21 4.11831 21 4.11491 21 4.11154C21 4.10817 21 4.10485 21 4.10155C21 4.09826 21 4.09501 21 4.0918C21 4.08859 21 4.08541 21 4.08228C21 4.07914 21 4.07604 21 4.07299C21 4.06993 21 4.06691 21 4.06393C21 4.06095 21 4.05801 21 4.05511C21 4.0522 21 4.04934 21 4.04652C21 4.0437 21 4.04091 21 4.03817C21 4.03542 21 4.03272 21 4.03006C21 4.02739 21 4.02477 21 4.02218C21 4.0196 21 4.01705 21 4.01455C21 4.01204 21 4.00958 21 4.00715C21 4.00473 21 4.00234 21 4H19ZM20 16C15.6194 16 12.879 18.2068 11.2929 19.7929L12.7071 21.2071C14.121 19.7932 16.3806 18 20 18V16ZM12.7071 19.7929C11.121 18.2068 8.38062 16 4 16V18C7.61938 18 9.87897 19.7932 11.2929 21.2071L12.7071 19.7929ZM5 17C5 16.9984 5 16.9968 5 16.9952C5 16.9935 5 16.9918 5 16.9901C5 16.9884 5 16.9866 5 16.9848C5 16.9829 5 16.9811 5 16.9792C5 16.9773 5 16.9753 5 16.9733C5 16.9713 5 16.9693 5 16.9672C5 16.9651 5 16.963 5 16.9609C5 16.9587 5 16.9565 5 16.9542C5 16.952 5 16.9497 5 16.9474C5 16.945 5 16.9427 5 16.9403C5 16.9378 5 16.9354 5 16.9329C5 16.9304 5 16.9278 5 16.9253C5 16.9227 5 16.9201 5 16.9174C5 16.9147 5 16.912 5 16.9093C5 16.9065 5 16.9038 5 16.9009C5 16.8981 5 16.8952 5 16.8923C5 16.8894 5 16.8865 5 16.8835C5 16.8805 5 16.8775 5 16.8744C5 16.8713 5 16.8682 5 16.865C5 16.8619 5 16.8587 5 16.8555C5 16.8522 5 16.849 5 16.8457C5 16.8423 5 16.839 5 16.8356C5 16.8322 5 16.8288 5 16.8253C5 16.8218 5 16.8183 5 16.8148C5 16.8112 5 16.8076 5 16.804C5 16.8004 5 16.7967 5 16.793C5 16.7893 5 16.7856 5 16.7818C5 16.778 5 16.7742 5 16.7703C5 16.7665 5 16.7626 5 16.7586C5 16.7547 5 16.7507 5 16.7467C5 16.7427 5 16.7386 5 16.7346C5 16.7305 5 16.7263 5 16.7222C5 16.718 5 16.7138 5 16.7096C5 16.7053 5 16.701 5 16.6967C5 16.6924 5 16.6881 5 16.6837C5 16.6793 5 16.6748 5 16.6704C5 16.6659 5 16.6614 5 16.6569C5 16.6523 5 16.6477 5 16.6431C5 16.6385 5 16.6339 5 16.6292C5 16.6245 5 16.6198 5 16.615C5 16.6103 5 16.6055 5 16.6006C5 16.5958 5 16.5909 5 16.586C5 16.5811 5 16.5762 5 16.5712C5 16.5662 5 16.5612 5 16.5562C5 16.5511 5 16.546 5 16.5409C5 16.5358 5 16.5306 5 16.5254C5 16.5202 5 16.515 5 16.5098C5 16.5045 5 16.4992 5 16.4939C5 16.4885 5 16.4832 5 16.4778C5 16.4724 5 16.4669 5 16.4614C5 16.456 5 16.4505 5 16.4449C5 16.4394 5 16.4338 5 16.4282C5 16.4226 5 16.4169 5 16.4113C5 16.4056 5 16.3999 5 16.3941C5 16.3884 5 16.3826 5 16.3768C5 16.371 5 16.3651 5 16.3592C5 16.3534 5 16.3475 5 16.3415C5 16.3356 5 16.3296 5 16.3236C5 16.3175 5 16.3115 5 16.3054C5 16.2993 5 16.2932 5 16.2871C5 16.2809 5 16.2747 5 16.2685C5 16.2623 5 16.2561 5 16.2498C5 16.2435 5 16.2372 5 16.2308C5 16.2245 5 16.2181 5 16.2117C5 16.2053 5 16.1989 5 16.1924C5 16.1859 5 16.1794 5 16.1729C5 16.1663 5 16.1598 5 16.1532C5 16.1466 5 16.1399 5 16.1333C5 16.1266 5 16.1199 5 16.1132C5 16.1065 5 16.0997 5 16.0929C5 16.0861 5 16.0793 5 16.0725C5 16.0656 5 16.0587 5 16.0518C5 16.0449 5 16.038 5 16.031C5 16.024 5 16.017 5 16.01C5 16.0029 5 15.9959 5 15.9888C5 15.9817 5 15.9745 5 15.9674C5 15.9602 5 15.953 5 15.9458C5 15.9386 5 15.9314 5 15.9241C5 15.9168 5 15.9095 5 15.9022C5 15.8948 5 15.8875 5 15.8801C5 15.8727 5 15.8652 5 15.8578C5 15.8503 5 15.8429 5 15.8353C5 15.8278 5 15.8203 5 15.8127C5 15.8052 5 15.7976 5 15.7899C5 15.7823 5 15.7746 5 15.767C5 15.7593 5 15.7516 5 15.7438C5 15.7361 5 15.7283 5 15.7205C5 15.7127 5 15.7049 5 15.697C5 15.6892 5 15.6813 5 15.6734C5 15.6655 5 15.6575 5 15.6496C5 15.6416 5 15.6336 5 15.6256C5 15.6176 5 15.6095 5 15.6014C5 15.5934 5 15.5853 5 15.5771C5 15.569 5 15.5608 5 15.5527C5 15.5445 5 15.5363 5 15.528C5 15.5198 5 15.5115 5 15.5032C5 15.4949 5 15.4866 5 15.4783C5 15.4699 5 15.4616 5 15.4532C5 15.4448 5 15.4363 5 15.4279C5 15.4194 5 15.411 5 15.4025C5 15.394 5 15.3854 5 15.3769C5 15.3683 5 15.3597 5 15.3511C5 15.3425 5 15.3339 5 15.3252C5 15.3166 5 15.3079 5 15.2992C5 15.2905 5 15.2818 5 15.273C5 15.2643 5 15.2555 5 15.2467C5 15.2379 5 15.229 5 15.2202C5 15.2113 5 15.2024 5 15.1935C5 15.1846 5 15.1757 5 15.1667C5 15.1578 5 15.1488 5 15.1398C5 15.1308 5 15.1218 5 15.1127C5 15.1037 5 15.0946 5 15.0855C5 15.0764 5 15.0673 5 15.0581C5 15.049 5 15.0398 5 15.0306C5 15.0214 5 15.0122 5 15.003C5 14.9938 5 14.9845 5 14.9752C5 14.9659 5 14.9566 5 14.9473C5 14.9379 5 14.9286 5 14.9192C5 14.9098 5 14.9004 5 14.891C5 14.8816 5 14.8721 5 14.8627C5 14.8532 5 14.8437 5 14.8342C5 14.8247 5 14.8152 5 14.8056C5 14.7961 5 14.7865 5 14.7769C5 14.7673 5 14.7576 5 14.748C5 14.7384 5 14.7287 5 14.719C5 14.7093 5 14.6996 5 14.6899C5 14.6802 5 14.6704 5 14.6606C5 14.6509 5 14.6411 5 14.6313C5 14.6214 5 14.6116 5 14.6017C5 14.5919 5 14.582 5 14.5721C5 14.5622 5 14.5523 5 14.5424C5 14.5324 5 14.5225 5 14.5125C5 14.5025 5 14.4925 5 14.4825C5 14.4725 5 14.4624 5 14.4524C5 14.4423 5 14.4322 5 14.4221C5 14.412 5 14.4019 5 14.3918C5 14.3816 5 14.3715 5 14.3613C5 14.3511 5 14.3409 5 14.3307C5 14.3205 5 14.3102 5 14.3C5 14.2897 5 14.2795 5 14.2692C5 14.2589 5 14.2486 5 14.2382C5 14.2279 5 14.2176 5 14.2072C5 14.1968 5 14.1864 5 14.176C5 14.1656 5 14.1552 5 14.1448C5 14.1343 5 14.1239 5 14.1134C5 14.1029 5 14.0924 5 14.0819C5 14.0714 5 14.0609 5 14.0503C5 14.0398 5 14.0292 5 14.0186C5 14.008 5 13.9974 5 13.9868C5 13.9762 5 13.9656 5 13.9549C5 13.9443 5 13.9336 5 13.9229C5 13.9122 5 13.9015 5 13.8908C5 13.8801 5 13.8693 5 13.8586C5 13.8478 5 13.8371 5 13.8263C5 13.8155 5 13.8047 5 13.7939C5 13.783 5 13.7722 5 13.7613C5 13.7505 5 13.7396 5 13.7287C5 13.7179 5 13.707 5 13.696C5 13.6851 5 13.6742 5 13.6633C5 13.6523 5 13.6413 5 13.6304C5 13.6194 5 13.6084 5 13.5974C5 13.5864 5 13.5754 5 13.5643C5 13.5533 5 13.5422 5 13.5312C5 13.5201 5 13.509 5 13.4979C5 13.4868 5 13.4757 5 13.4646C5 13.4535 5 13.4423 5 13.4312C5 13.42 5 13.4088 5 13.3977C5 13.3865 5 13.3753 5 13.3641C5 13.3528 5 13.3416 5 13.3304C5 13.3191 5 13.3079 5 13.2966C5 13.2854 5 13.2741 5 13.2628C5 13.2515 5 13.2402 5 13.2289C5 13.2175 5 13.2062 5 13.1949C5 13.1835 5 13.1722 5 13.1608C5 13.1494 5 13.138 5 13.1266C5 13.1152 5 13.1038 5 13.0924C5 13.081 5 13.0695 5 13.0581C5 13.0466 5 13.0352 5 13.0237C5 13.0122 5 13.0007 5 12.9893C5 12.9778 5 12.9662 5 12.9547C5 12.9432 5 12.9317 5 12.9201C5 12.9086 5 12.897 5 12.8855C5 12.8739 5 12.8623 5 12.8507C5 12.8391 5 12.8275 5 12.8159C5 12.8043 5 12.7927 5 12.781C5 12.7694 5 12.7578 5 12.7461C5 12.7344 5 12.7228 5 12.7111C5 12.6994 5 12.6877 5 12.676C5 12.6643 5 12.6526 5 12.6409C5 12.6292 5 12.6175 5 12.6057C5 12.594 5 12.5822 5 12.5705C5 12.5587 5 12.5469 5 12.5352C5 12.5234 5 12.5116 5 12.4998C5 12.488 5 12.4762 5 12.4644C5 12.4525 5 12.4407 5 12.4289C5 12.417 5 12.4052 5 12.3933C5 12.3815 5 12.3696 5 12.3578C5 12.3459 5 12.334 5 12.3221C5 12.3102 5 12.2983 5 12.2864C5 12.2745 5 12.2626 5 12.2507C5 12.2387 5 12.2268 5 12.2149C5 12.2029 5 12.191 5 12.179C5 12.1671 5 12.1551 5 12.1431C5 12.1312 5 12.1192 5 12.1072C5 12.0952 5 12.0832 5 12.0712C5 12.0592 5 12.0472 5 12.0352C5 12.0232 5 12.0111 5 11.9991C5 11.9871 5 11.975 5 11.963C5 11.9509 5 11.9389 5 11.9268C5 11.9148 5 11.9027 5 11.8906C5 11.8785 5 11.8665 5 11.8544C5 11.8423 5 11.8302 5 11.8181C5 11.806 5 11.7939 5 11.7818C5 11.7697 5 11.7576 5 11.7454C5 11.7333 5 11.7212 5 11.7091C5 11.6969 5 11.6848 5 11.6726C5 11.6605 5 11.6483 5 11.6362C5 11.624 5 11.6119 5 11.5997C5 11.5875 5 11.5754 5 11.5632C5 11.551 5 11.5388 5 11.5266C5 11.5144 5 11.5023 5 11.4901C5 11.4779 5 11.4657 5 11.4535C5 11.4413 5 11.429 5 11.4168C5 11.4046 5 11.3924 5 11.3802C5 11.368 5 11.3557 5 11.3435C5 11.3313 5 11.319 5 11.3068C5 11.2946 5 11.2823 5 11.2701C5 11.2578 5 11.2456 5 11.2333C5 11.2211 5 11.2088 5 11.1966C5 11.1843 5 11.172 5 11.1598C5 11.1475 5 11.1352 5 11.123C5 11.1107 5 11.0984 5 11.0861C5 11.0739 5 11.0616 5 11.0493C5 11.037 5 11.0247 5 11.0125C5 11.0002 5 10.9879 5 10.9756C5 10.9633 5 10.951 5 10.9387C5 10.9264 5 10.9141 5 10.9018C5 10.8895 5 10.8772 5 10.8649C5 10.8526 5 10.8403 5 10.828C5 10.8157 5 10.8034 5 10.7911C5 10.7788 5 10.7665 5 10.7541C5 10.7418 5 10.7295 5 10.7172C5 10.7049 5 10.6926 5 10.6803C5 10.668 5 10.6556 5 10.6433C5 10.631 5 10.6187 5 10.6064C5 10.5941 5 10.5817 5 10.5694C5 10.5571 5 10.5448 5 10.5325C5 10.5202 5 10.5078 5 10.4955C5 10.4832 5 10.4709 5 10.4586C5 10.4462 5 10.4339 5 10.4216C5 10.4093 5 10.397 5 10.3847C5 10.3723 5 10.36 5 10.3477C5 10.3354 5 10.3231 5 10.3108C5 10.2985 5 10.2862 5 10.2738C5 10.2615 5 10.2492 5 10.2369C5 10.2246 5 10.2123 5 10.2C5 10.1877 5 10.1754 5 10.1631C5 10.1508 5 10.1385 5 10.1262C5 10.1139 5 10.1016 5 10.0893C5 10.077 5 10.0647 5 10.0524C5 10.0401 5 10.0279 5 10.0156C5 10.0033 5 9.991 5 9.97872C5 9.96644 5 9.95416 5 9.94189C5 9.92961 5 9.91734 5 9.90507C5 9.8928 5 9.88054 5 9.86827C5 9.85601 5 9.84375 5 9.83149C5 9.81924 5 9.80698 5 9.79473C5 9.78248 5 9.77024 5 9.75799C5 9.74575 5 9.73351 5 9.72128C5 9.70904 5 9.69681 5 9.68458C5 9.67236 5 9.66013 5 9.64791C5 9.63569 5 9.62348 5 9.61127C5 9.59906 5 9.58685 5 9.57465C5 9.56245 5 9.55025 5 9.53806C5 9.52586 5 9.51367 5 9.50149C5 9.48931 5 9.47713 5 9.46496C5 9.45278 5 9.44061 5 9.42845C5 9.41629 5 9.40413 5 9.39198C5 9.37983 5 9.36768 5 9.35554C5 9.3434 5 9.33126 5 9.31913C5 9.307 5 9.29488 5 9.28276C5 9.27064 5 9.25853 5 9.24642C5 9.23431 5 9.22221 5 9.21012C5 9.19802 5 9.18594 5 9.17385C5 9.16177 5 9.1497 5 9.13763C5 9.12556 5 9.1135 5 9.10145C5 9.08939 5 9.07734 5 9.0653C5 9.05326 5 9.04123 5 9.0292C5 9.01717 5 9.00515 5 8.99314C5 8.98113 5 8.96912 5 8.95712C5 8.94513 5 8.93314 5 8.92115C5 8.90917 5 8.8972 5 8.88523C5 8.87326 5 8.8613 5 8.84935C5 8.8374 5 8.82546 5 8.81352C5 8.80159 5 8.78966 5 8.77774C5 8.76583 5 8.75392 5 8.74201C5 8.73011 5 8.71822 5 8.70634C5 8.69445 5 8.68258 5 8.67071C5 8.65884 5 8.64699 5 8.63514C5 8.62329 5 8.61145 5 8.59962C5 8.58779 5 8.57597 5 8.56416C5 8.55235 5 8.54055 5 8.52875C5 8.51696 5 8.50518 5 8.49341C5 8.48163 5 8.46987 5 8.45812C5 8.44636 5 8.43462 5 8.42289C5 8.41116 5 8.39943 5 8.38772C5 8.37601 5 8.36431 5 8.35261C5 8.34092 5 8.32924 5 8.31757C5 8.3059 5 8.29424 5 8.28259C5 8.27094 5 8.2593 5 8.24768C5 8.23605 5 8.22443 5 8.21283C5 8.20122 5 8.18963 5 8.17805C5 8.16646 5 8.15489 5 8.14333C5 8.13177 5 8.12023 5 8.10869C5 8.09715 5 8.08563 5 8.07412C5 8.0626 5 8.0511 5 8.03962C5 8.02813 5 8.01665 5 8.00519C5 7.99372 5 7.98227 5 7.97083C5 7.95939 5 7.94796 5 7.93655C5 7.92513 5 7.91373 5 7.90234C5 7.89095 5 7.87958 5 7.86821C5 7.85685 5 7.8455 5 7.83416C5 7.82283 5 7.8115 5 7.80019C5 7.78888 5 7.77758 5 7.7663C5 7.75501 5 7.74374 5 7.73249C5 7.72123 5 7.70999 5 7.69876C5 7.68753 5 7.67631 5 7.66511C5 7.65391 5 7.64272 5 7.63155C5 7.62037 5 7.60921 5 7.59807C5 7.58693 5 7.57579 5 7.56468C5 7.55356 5 7.54246 5 7.53137C5 7.52029 5 7.50922 5 7.49816C5 7.4871 5 7.47606 5 7.46503C5 7.454 5 7.44299 5 7.432C5 7.421 5 7.41002 5 7.39905C5 7.38808 5 7.37713 5 7.3662C5 7.35526 5 7.34434 5 7.33344C5 7.32254 5 7.31165 5 7.30078C5 7.2899 5 7.27905 5 7.26821C5 7.25737 5 7.24654 5 7.23574C5 7.22493 5 7.21414 5 7.20336C5 7.19259 5 7.18183 5 7.17109C5 7.16035 5 7.14962 5 7.13891C5 7.1282 5 7.11751 5 7.10684C5 7.09616 5 7.08551 5 7.07487C5 7.06422 5 7.0536 5 7.043C5 7.03239 5 7.0218 5 7.01123C5 7.00066 5 6.99011 5 6.97957C5 6.96904 5 6.95852 5 6.94802C5 6.93752 5 6.92703 5 6.91657C5 6.90611 5 6.89566 5 6.88523C5 6.8748 5 6.8644 5 6.854C5 6.84361 5 6.83324 5 6.82289C5 6.81253 5 6.8022 5 6.79188C5 6.78156 5 6.77126 5 6.76098C5 6.75071 5 6.74044 5 6.7302C5 6.71996 5 6.70974 5 6.69954C5 6.68934 5 6.67915 5 6.66899C5 6.65882 5 6.64868 5 6.63855C5 6.62843 5 6.61832 5 6.60824C5 6.59815 5 6.58809 5 6.57804C5 6.568 5 6.55797 5 6.54796C5 6.53796 5 6.52797 5 6.51801C5 6.50804 5 6.4981 5 6.48817C5 6.47825 5 6.46835 5 6.45846C5 6.44858 5 6.43872 5 6.42888C5 6.41904 5 6.40922 5 6.39942C5 6.38962 5 6.37984 5 6.37008C5 6.36032 5 6.35059 5 6.34087C5 6.33116 5 6.32146 5 6.31179C5 6.30212 5 6.29247 5 6.28284C5 6.27321 5 6.26361 5 6.25402C5 6.24444 5 6.23488 5 6.22534C5 6.21579 5 6.20628 5 6.19678C5 6.18728 5 6.17781 5 6.16836C5 6.15891 5 6.14948 5 6.14007C5 6.13066 5 6.12128 5 6.11192C5 6.10256 5 6.09322 5 6.08391C5 6.07459 5 6.0653 5 6.05603C5 6.04676 5 6.03751 5 6.02829C5 6.01907 5 6.00987 5 6.00069C5 5.99152 5 5.98236 5 5.97324C5 5.96411 5 5.955 5 5.94592C5 5.93684 5 5.92778 5 5.91875C5 5.90972 5 5.90071 5 5.89172C5 5.88274 5 5.87378 5 5.86484C5 5.8559 5 5.84699 5 5.8381C5 5.82922 5 5.82035 5 5.81152C5 5.80268 5 5.79386 5 5.78508C5 5.77629 5 5.76752 5 5.75879C5 5.75005 5 5.74133 5 5.73265C5 5.72396 5 5.71529 5 5.70666C5 5.69802 5 5.68941 5 5.68082C5 5.67224 5 5.66367 5 5.65514C5 5.6466 5 5.6381 5 5.62961C5 5.62113 5 5.61267 5 5.60424C5 5.59581 5 5.5874 5 5.57903C5 5.57065 5 5.56229 5 5.55397C5 5.54564 5 5.53734 5 5.52907C5 5.5208 5 5.51255 5 5.50433C5 5.49611 5 5.48792 5 5.47976C5 5.47159 5 5.46345 5 5.45534C5 5.44723 5 5.43915 5 5.43109C5 5.42303 5 5.41501 5 5.407C5 5.399 5 5.39103 5 5.38308C5 5.37514 5 5.36722 5 5.35933C5 5.35144 5 5.34357 5 5.33574C5 5.3279 5 5.3201 5 5.31232C5 5.30454 5 5.29679 5 5.28907C5 5.28135 5 5.27365 5 5.26599C5 5.25832 5 5.25069 5 5.24308C5 5.23547 5 5.2279 5 5.22035C5 5.2128 5 5.20528 5 5.19778C5 5.19029 5 5.18283 5 5.1754C5 5.16796 5 5.16056 5 5.15319C5 5.14581 5 5.13847 5 5.13115C5 5.12384 5 5.11655 5 5.1093C5 5.10204 5 5.09482 5 5.08762C5 5.08042 5 5.07326 5 5.06612C5 5.05899 5 5.05188 5 5.04481C5 5.03773 5 5.03069 5 5.02367C5 5.01666 5 5.00968 5 5.00272C5 4.99577 5 4.98885 5 4.98196C5 4.97506 5 4.9682 5 4.96138C5 4.95455 5 4.94775 5 4.94098C5 4.93421 5 4.92748 5 4.92077C5 4.91407 5 4.9074 5 4.90076C5 4.89411 5 4.8875 5 4.88093C5 4.87435 5 4.8678 5 4.86129C5 4.85477 5 4.84829 5 4.84184C5 4.83539 5 4.82897 5 4.82259C5 4.8162 5 4.80985 5 4.80353C5 4.79721 5 4.79092 5 4.78466C5 4.77841 5 4.77218 5 4.76599C5 4.7598 5 4.75365 5 4.74752C5 4.7414 5 4.7353 5 4.72925C5 4.72319 5 4.71716 5 4.71117C5 4.70518 5 4.69922 5 4.6933C5 4.68737 5 4.68148 5 4.67562C5 4.66976 5 4.66394 5 4.65815C5 4.65236 5 4.6466 5 4.64088C5 4.63516 5 4.62947 5 4.62382C5 4.61816 5 4.61254 5 4.60696C5 4.60137 5 4.59582 5 4.59031C5 4.58479 5 4.57931 5 4.57386C5 4.56841 5 4.563 5 4.55762C5 4.55225 5 4.5469 5 4.5416C5 4.53629 5 4.53102 5 4.52578C5 4.52054 5 4.51534 5 4.51018C5 4.50501 5 4.49988 5 4.49479C5 4.48969 5 4.48463 5 4.47961C5 4.47458 5 4.4696 5 4.46464C5 4.45969 5 4.45478 5 4.4499C5 4.44502 5 4.44017 5 4.43537C5 4.43056 5 4.42579 5 4.42106C5 4.41632 5 4.41162 5 4.40696C5 4.4023 5 4.39768 5 4.39309C5 4.3885 5 4.38395 5 4.37944C5 4.37492 5 4.37045 5 4.36601C5 4.36157 5 4.35717 5 4.3528C5 4.34844 5 4.34411 5 4.33982C5 4.33553 5 4.33128 5 4.32707C5 4.32285 5 4.31867 5 4.31454C5 4.3104 5 4.3063 5 4.30223C5 4.29817 5 4.29415 5 4.29016C5 4.28617 5 4.28223 5 4.27832C5 4.27441 5 4.27054 5 4.2667C5 4.26287 5 4.25908 5 4.25532C5 4.25157 5 4.24785 5 4.24417C5 4.2405 5 4.23686 5 4.23326C5 4.22966 5 4.2261 5 4.22258C5 4.21906 5 4.21558 5 4.21214C5 4.20869 5 4.20529 5 4.20193C5 4.19857 5 4.19524 5 4.19196C5 4.18868 5 4.18543 5 4.18223C5 4.17903 5 4.17586 5 4.17274C5 4.16962 5 4.16654 5 4.16349C5 4.16045 5 4.15745 5 4.15449C5 4.15153 5 4.14861 5 4.14572C5 4.14284 5 4.14001 5 4.13721C5 4.13441 5 4.13165 5 4.12893C5 4.12622 5 4.12354 5 4.12091C5 4.11827 5 4.11568 5 4.11313C5 4.11058 5 4.10807 5 4.1056C5 4.10313 5 4.10071 5 4.09832C5 4.09594 5 4.09359 5 4.09129C5 4.08899 5 4.08673 5 4.08451C5 4.0823 5 4.08012 5 4.07799C5 4.07586 5 4.07377 5 4.07172C5 4.06967 5 4.06767 5 4.0657C5 4.06374 5 4.06182 5 4.05994C5 4.05807 5 4.05623 5 4.05444C5 4.05265 5 4.0509 5 4.0492C5 4.04749 5 4.04583 5 4.04421C5 4.04259 5 4.04102 5 4.03949C5 4.03795 5 4.03647 5 4.03502C5 4.03358 5 4.03218 5 4.03082C5 4.02946 5 4.02815 5 4.02688C5 4.02561 5 4.02439 5 4.02321C5 4.02203 5 4.02089 5 4.0198C5 4.01871 5 4.01766 5 4.01666C5 4.01566 5 4.0147 5 4.01379C5 4.01287 5 4.012 5 4.01118C5 4.01036 5 4.00958 5 4.00885C5 4.00811 5 4.00742 5 4.00678C5 4.00614 5 4.00554 5 4.00499C5 4.00444 5 4.00393 5 4.00347C5 4.00301 5 4.00259 5 4.00222C5 4.00185 5 4.00153 5 4.00125C5 4.00097 5 4.00074 5 4.00056C5 4.00037 5 4.00023 5 4.00014C5 4.00005 5 4 4 4C3 4 3 4.00005 3 4.00014C3 4.00023 3 4.00037 3 4.00056C3 4.00074 3 4.00097 3 4.00125C3 4.00153 3 4.00185 3 4.00222C3 4.00259 3 4.00301 3 4.00347C3 4.00393 3 4.00444 3 4.00499C3 4.00554 3 4.00614 3 4.00678C3 4.00742 3 4.00811 3 4.00885C3 4.00958 3 4.01036 3 4.01118C3 4.012 3 4.01287 3 4.01379C3 4.0147 3 4.01566 3 4.01666C3 4.01766 3 4.01871 3 4.0198C3 4.02089 3 4.02203 3 4.02321C3 4.02439 3 4.02561 3 4.02688C3 4.02815 3 4.02946 3 4.03082C3 4.03218 3 4.03358 3 4.03502C3 4.03647 3 4.03795 3 4.03949C3 4.04102 3 4.04259 3 4.04421C3 4.04583 3 4.04749 3 4.0492C3 4.0509 3 4.05265 3 4.05444C3 4.05623 3 4.05807 3 4.05994C3 4.06182 3 4.06374 3 4.0657C3 4.06767 3 4.06967 3 4.07172C3 4.07377 3 4.07586 3 4.07799C3 4.08012 3 4.0823 3 4.08451C3 4.08673 3 4.08899 3 4.09129C3 4.09359 3 4.09594 3 4.09832C3 4.10071 3 4.10313 3 4.1056C3 4.10807 3 4.11058 3 4.11313C3 4.11568 3 4.11827 3 4.12091C3 4.12354 3 4.12622 3 4.12893C3 4.13165 3 4.13441 3 4.13721C3 4.14001 3 4.14284 3 4.14572C3 4.14861 3 4.15153 3 4.15449C3 4.15745 3 4.16045 3 4.16349C3 4.16654 3 4.16962 3 4.17274C3 4.17586 3 4.17903 3 4.18223C3 4.18543 3 4.18868 3 4.19196C3 4.19524 3 4.19857 3 4.20193C3 4.20529 3 4.20869 3 4.21214C3 4.21558 3 4.21906 3 4.22258C3 4.2261 3 4.22966 3 4.23326C3 4.23686 3 4.2405 3 4.24417C3 4.24785 3 4.25157 3 4.25532C3 4.25908 3 4.26287 3 4.2667C3 4.27054 3 4.27441 3 4.27832C3 4.28223 3 4.28617 3 4.29016C3 4.29415 3 4.29817 3 4.30223C3 4.3063 3 4.3104 3 4.31454C3 4.31867 3 4.32285 3 4.32707C3 4.33128 3 4.33553 3 4.33982C3 4.34411 3 4.34844 3 4.3528C3 4.35717 3 4.36157 3 4.36601C3 4.37045 3 4.37492 3 4.37944C3 4.38395 3 4.3885 3 4.39309C3 4.39768 3 4.4023 3 4.40696C3 4.41162 3 4.41632 3 4.42106C3 4.42579 3 4.43056 3 4.43537C3 4.44017 3 4.44502 3 4.4499C3 4.45478 3 4.45969 3 4.46464C3 4.4696 3 4.47458 3 4.47961C3 4.48463 3 4.48969 3 4.49479C3 4.49988 3 4.50501 3 4.51018C3 4.51534 3 4.52054 3 4.52578C3 4.53102 3 4.53629 3 4.5416C3 4.5469 3 4.55225 3 4.55762C3 4.563 3 4.56841 3 4.57386C3 4.57931 3 4.58479 3 4.59031C3 4.59582 3 4.60137 3 4.60696C3 4.61254 3 4.61816 3 4.62382C3 4.62947 3 4.63516 3 4.64088C3 4.6466 3 4.65236 3 4.65815C3 4.66394 3 4.66976 3 4.67562C3 4.68148 3 4.68737 3 4.6933C3 4.69922 3 4.70518 3 4.71117C3 4.71716 3 4.72319 3 4.72925C3 4.7353 3 4.7414 3 4.74752C3 4.75365 3 4.7598 3 4.76599C3 4.77218 3 4.77841 3 4.78466C3 4.79092 3 4.79721 3 4.80353C3 4.80985 3 4.8162 3 4.82259C3 4.82897 3 4.83539 3 4.84184C3 4.84829 3 4.85477 3 4.86129C3 4.8678 3 4.87435 3 4.88093C3 4.8875 3 4.89411 3 4.90076C3 4.9074 3 4.91407 3 4.92077C3 4.92748 3 4.93421 3 4.94098C3 4.94775 3 4.95455 3 4.96138C3 4.9682 3 4.97506 3 4.98196C3 4.98885 3 4.99577 3 5.00272C3 5.00968 3 5.01666 3 5.02367C3 5.03069 3 5.03773 3 5.04481C3 5.05188 3 5.05899 3 5.06612C3 5.07326 3 5.08042 3 5.08762C3 5.09482 3 5.10204 3 5.1093C3 5.11655 3 5.12384 3 5.13115C3 5.13847 3 5.14581 3 5.15319C3 5.16056 3 5.16796 3 5.1754C3 5.18283 3 5.19029 3 5.19778C3 5.20528 3 5.2128 3 5.22035C3 5.2279 3 5.23547 3 5.24308C3 5.25069 3 5.25832 3 5.26599C3 5.27365 3 5.28135 3 5.28907C3 5.29679 3 5.30454 3 5.31232C3 5.3201 3 5.3279 3 5.33574C3 5.34357 3 5.35144 3 5.35933C3 5.36722 3 5.37514 3 5.38308C3 5.39103 3 5.399 3 5.407C3 5.41501 3 5.42303 3 5.43109C3 5.43915 3 5.44723 3 5.45534C3 5.46345 3 5.47159 3 5.47976C3 5.48792 3 5.49611 3 5.50433C3 5.51255 3 5.5208 3 5.52907C3 5.53734 3 5.54564 3 5.55397C3 5.56229 3 5.57065 3 5.57903C3 5.5874 3 5.59581 3 5.60424C3 5.61267 3 5.62113 3 5.62961C3 5.6381 3 5.6466 3 5.65514C3 5.66367 3 5.67224 3 5.68082C3 5.68941 3 5.69802 3 5.70666C3 5.71529 3 5.72396 3 5.73265C3 5.74133 3 5.75005 3 5.75879C3 5.76752 3 5.77629 3 5.78508C3 5.79386 3 5.80268 3 5.81152C3 5.82035 3 5.82922 3 5.8381C3 5.84699 3 5.8559 3 5.86484C3 5.87378 3 5.88274 3 5.89172C3 5.90071 3 5.90972 3 5.91875C3 5.92778 3 5.93684 3 5.94592C3 5.955 3 5.96411 3 5.97324C3 5.98236 3 5.99152 3 6.00069C3 6.00987 3 6.01907 3 6.02829C3 6.03751 3 6.04676 3 6.05603C3 6.0653 3 6.07459 3 6.08391C3 6.09322 3 6.10256 3 6.11192C3 6.12128 3 6.13066 3 6.14007C3 6.14948 3 6.15891 3 6.16836C3 6.17781 3 6.18728 3 6.19678C3 6.20628 3 6.21579 3 6.22534C3 6.23488 3 6.24444 3 6.25402C3 6.26361 3 6.27321 3 6.28284C3 6.29247 3 6.30212 3 6.31179C3 6.32146 3 6.33116 3 6.34087C3 6.35059 3 6.36032 3 6.37008C3 6.37984 3 6.38962 3 6.39942C3 6.40922 3 6.41904 3 6.42888C3 6.43872 3 6.44858 3 6.45846C3 6.46835 3 6.47825 3 6.48817C3 6.4981 3 6.50804 3 6.51801C3 6.52797 3 6.53796 3 6.54796C3 6.55797 3 6.568 3 6.57804C3 6.58809 3 6.59815 3 6.60824C3 6.61832 3 6.62843 3 6.63855C3 6.64868 3 6.65882 3 6.66899C3 6.67915 3 6.68934 3 6.69954C3 6.70974 3 6.71996 3 6.7302C3 6.74044 3 6.75071 3 6.76098C3 6.77126 3 6.78156 3 6.79188C3 6.8022 3 6.81253 3 6.82289C3 6.83324 3 6.84361 3 6.854C3 6.8644 3 6.8748 3 6.88523C3 6.89566 3 6.90611 3 6.91657C3 6.92703 3 6.93752 3 6.94802C3 6.95852 3 6.96904 3 6.97957C3 6.99011 3 7.00066 3 7.01123C3 7.0218 3 7.03239 3 7.043C3 7.0536 3 7.06422 3 7.07487C3 7.08551 3 7.09616 3 7.10684C3 7.11751 3 7.1282 3 7.13891C3 7.14962 3 7.16035 3 7.17109C3 7.18183 3 7.19259 3 7.20336C3 7.21414 3 7.22493 3 7.23574C3 7.24654 3 7.25737 3 7.26821C3 7.27905 3 7.2899 3 7.30078C3 7.31165 3 7.32254 3 7.33344C3 7.34434 3 7.35526 3 7.3662C3 7.37713 3 7.38808 3 7.39905C3 7.41002 3 7.421 3 7.432C3 7.44299 3 7.454 3 7.46503C3 7.47606 3 7.4871 3 7.49816C3 7.50922 3 7.52029 3 7.53137C3 7.54246 3 7.55356 3 7.56468C3 7.57579 3 7.58693 3 7.59807C3 7.60921 3 7.62037 3 7.63155C3 7.64272 3 7.65391 3 7.66511C3 7.67631 3 7.68753 3 7.69876C3 7.70999 3 7.72123 3 7.73249C3 7.74374 3 7.75501 3 7.7663C3 7.77758 3 7.78888 3 7.80019C3 7.8115 3 7.82283 3 7.83416C3 7.8455 3 7.85685 3 7.86821C3 7.87958 3 7.89095 3 7.90234C3 7.91373 3 7.92513 3 7.93655C3 7.94796 3 7.95939 3 7.97083C3 7.98227 3 7.99372 3 8.00519C3 8.01665 3 8.02813 3 8.03962C3 8.0511 3 8.0626 3 8.07412C3 8.08563 3 8.09715 3 8.10869C3 8.12023 3 8.13177 3 8.14333C3 8.15489 3 8.16646 3 8.17805C3 8.18963 3 8.20122 3 8.21283C3 8.22443 3 8.23605 3 8.24768C3 8.2593 3 8.27094 3 8.28259C3 8.29424 3 8.3059 3 8.31757C3 8.32924 3 8.34092 3 8.35261C3 8.36431 3 8.37601 3 8.38772C3 8.39943 3 8.41116 3 8.42289C3 8.43462 3 8.44636 3 8.45812C3 8.46987 3 8.48163 3 8.49341C3 8.50518 3 8.51696 3 8.52875C3 8.54055 3 8.55235 3 8.56416C3 8.57597 3 8.58779 3 8.59962C3 8.61145 3 8.62329 3 8.63514C3 8.64699 3 8.65884 3 8.67071C3 8.68258 3 8.69445 3 8.70634C3 8.71822 3 8.73011 3 8.74201C3 8.75392 3 8.76583 3 8.77774C3 8.78966 3 8.80159 3 8.81352C3 8.82546 3 8.8374 3 8.84935C3 8.8613 3 8.87326 3 8.88523C3 8.8972 3 8.90917 3 8.92115C3 8.93314 3 8.94513 3 8.95712C3 8.96912 3 8.98113 3 8.99314C3 9.00515 3 9.01717 3 9.0292C3 9.04123 3 9.05326 3 9.0653C3 9.07734 3 9.08939 3 9.10145C3 9.1135 3 9.12556 3 9.13763C3 9.1497 3 9.16177 3 9.17385C3 9.18594 3 9.19802 3 9.21012C3 9.22221 3 9.23431 3 9.24642C3 9.25853 3 9.27064 3 9.28276C3 9.29488 3 9.307 3 9.31913C3 9.33126 3 9.3434 3 9.35554C3 9.36768 3 9.37983 3 9.39198C3 9.40413 3 9.41629 3 9.42845C3 9.44061 3 9.45278 3 9.46496C3 9.47713 3 9.48931 3 9.50149C3 9.51367 3 9.52586 3 9.53806C3 9.55025 3 9.56245 3 9.57465C3 9.58685 3 9.59906 3 9.61127C3 9.62348 3 9.63569 3 9.64791C3 9.66013 3 9.67236 3 9.68458C3 9.69681 3 9.70904 3 9.72128C3 9.73351 3 9.74575 3 9.75799C3 9.77024 3 9.78248 3 9.79473C3 9.80698 3 9.81924 3 9.83149C3 9.84375 3 9.85601 3 9.86827C3 9.88054 3 9.8928 3 9.90507C3 9.91734 3 9.92961 3 9.94189C3 9.95416 3 9.96644 3 9.97872C3 9.991 3 10.0033 3 10.0156C3 10.0279 3 10.0401 3 10.0524C3 10.0647 3 10.077 3 10.0893C3 10.1016 3 10.1139 3 10.1262C3 10.1385 3 10.1508 3 10.1631C3 10.1754 3 10.1877 3 10.2C3 10.2123 3 10.2246 3 10.2369C3 10.2492 3 10.2615 3 10.2738C3 10.2862 3 10.2985 3 10.3108C3 10.3231 3 10.3354 3 10.3477C3 10.36 3 10.3723 3 10.3847C3 10.397 3 10.4093 3 10.4216C3 10.4339 3 10.4462 3 10.4586C3 10.4709 3 10.4832 3 10.4955C3 10.5078 3 10.5202 3 10.5325C3 10.5448 3 10.5571 3 10.5694C3 10.5817 3 10.5941 3 10.6064C3 10.6187 3 10.631 3 10.6433C3 10.6556 3 10.668 3 10.6803C3 10.6926 3 10.7049 3 10.7172C3 10.7295 3 10.7418 3 10.7541C3 10.7665 3 10.7788 3 10.7911C3 10.8034 3 10.8157 3 10.828C3 10.8403 3 10.8526 3 10.8649C3 10.8772 3 10.8895 3 10.9018C3 10.9141 3 10.9264 3 10.9387C3 10.951 3 10.9633 3 10.9756C3 10.9879 3 11.0002 3 11.0125C3 11.0247 3 11.037 3 11.0493C3 11.0616 3 11.0739 3 11.0861C3 11.0984 3 11.1107 3 11.123C3 11.1352 3 11.1475 3 11.1598C3 11.172 3 11.1843 3 11.1966C3 11.2088 3 11.2211 3 11.2333C3 11.2456 3 11.2578 3 11.2701C3 11.2823 3 11.2946 3 11.3068C3 11.319 3 11.3313 3 11.3435C3 11.3557 3 11.368 3 11.3802C3 11.3924 3 11.4046 3 11.4168C3 11.429 3 11.4413 3 11.4535C3 11.4657 3 11.4779 3 11.4901C3 11.5023 3 11.5144 3 11.5266C3 11.5388 3 11.551 3 11.5632C3 11.5754 3 11.5875 3 11.5997C3 11.6119 3 11.624 3 11.6362C3 11.6483 3 11.6605 3 11.6726C3 11.6848 3 11.6969 3 11.7091C3 11.7212 3 11.7333 3 11.7454C3 11.7576 3 11.7697 3 11.7818C3 11.7939 3 11.806 3 11.8181C3 11.8302 3 11.8423 3 11.8544C3 11.8665 3 11.8785 3 11.8906C3 11.9027 3 11.9148 3 11.9268C3 11.9389 3 11.9509 3 11.963C3 11.975 3 11.9871 3 11.9991C3 12.0111 3 12.0232 3 12.0352C3 12.0472 3 12.0592 3 12.0712C3 12.0832 3 12.0952 3 12.1072C3 12.1192 3 12.1312 3 12.1431C3 12.1551 3 12.1671 3 12.179C3 12.191 3 12.2029 3 12.2149C3 12.2268 3 12.2387 3 12.2507C3 12.2626 3 12.2745 3 12.2864C3 12.2983 3 12.3102 3 12.3221C3 12.334 3 12.3459 3 12.3578C3 12.3696 3 12.3815 3 12.3933C3 12.4052 3 12.417 3 12.4289C3 12.4407 3 12.4525 3 12.4644C3 12.4762 3 12.488 3 12.4998C3 12.5116 3 12.5234 3 12.5352C3 12.5469 3 12.5587 3 12.5705C3 12.5822 3 12.594 3 12.6057C3 12.6175 3 12.6292 3 12.6409C3 12.6526 3 12.6643 3 12.676C3 12.6877 3 12.6994 3 12.7111C3 12.7228 3 12.7344 3 12.7461C3 12.7578 3 12.7694 3 12.781C3 12.7927 3 12.8043 3 12.8159C3 12.8275 3 12.8391 3 12.8507C3 12.8623 3 12.8739 3 12.8855C3 12.897 3 12.9086 3 12.9201C3 12.9317 3 12.9432 3 12.9547C3 12.9662 3 12.9778 3 12.9893C3 13.0007 3 13.0122 3 13.0237C3 13.0352 3 13.0466 3 13.0581C3 13.0695 3 13.081 3 13.0924C3 13.1038 3 13.1152 3 13.1266C3 13.138 3 13.1494 3 13.1608C3 13.1722 3 13.1835 3 13.1949C3 13.2062 3 13.2175 3 13.2289C3 13.2402 3 13.2515 3 13.2628C3 13.2741 3 13.2854 3 13.2966C3 13.3079 3 13.3191 3 13.3304C3 13.3416 3 13.3528 3 13.3641C3 13.3753 3 13.3865 3 13.3977C3 13.4088 3 13.42 3 13.4312C3 13.4423 3 13.4535 3 13.4646C3 13.4757 3 13.4868 3 13.4979C3 13.509 3 13.5201 3 13.5312C3 13.5422 3 13.5533 3 13.5643C3 13.5754 3 13.5864 3 13.5974C3 13.6084 3 13.6194 3 13.6304C3 13.6413 3 13.6523 3 13.6633C3 13.6742 3 13.6851 3 13.696C3 13.707 3 13.7179 3 13.7287C3 13.7396 3 13.7505 3 13.7613C3 13.7722 3 13.783 3 13.7939C3 13.8047 3 13.8155 3 13.8263C3 13.8371 3 13.8478 3 13.8586C3 13.8693 3 13.8801 3 13.8908C3 13.9015 3 13.9122 3 13.9229C3 13.9336 3 13.9443 3 13.9549C3 13.9656 3 13.9762 3 13.9868C3 13.9974 3 14.008 3 14.0186C3 14.0292 3 14.0398 3 14.0503C3 14.0609 3 14.0714 3 14.0819C3 14.0924 3 14.1029 3 14.1134C3 14.1239 3 14.1343 3 14.1448C3 14.1552 3 14.1656 3 14.176C3 14.1864 3 14.1968 3 14.2072C3 14.2176 3 14.2279 3 14.2382C3 14.2486 3 14.2589 3 14.2692C3 14.2795 3 14.2897 3 14.3C3 14.3102 3 14.3205 3 14.3307C3 14.3409 3 14.3511 3 14.3613C3 14.3715 3 14.3816 3 14.3918C3 14.4019 3 14.412 3 14.4221C3 14.4322 3 14.4423 3 14.4524C3 14.4624 3 14.4725 3 14.4825C3 14.4925 3 14.5025 3 14.5125C3 14.5225 3 14.5324 3 14.5424C3 14.5523 3 14.5622 3 14.5721C3 14.582 3 14.5919 3 14.6017C3 14.6116 3 14.6214 3 14.6313C3 14.6411 3 14.6509 3 14.6606C3 14.6704 3 14.6802 3 14.6899C3 14.6996 3 14.7093 3 14.719C3 14.7287 3 14.7384 3 14.748C3 14.7576 3 14.7673 3 14.7769C3 14.7865 3 14.7961 3 14.8056C3 14.8152 3 14.8247 3 14.8342C3 14.8437 3 14.8532 3 14.8627C3 14.8721 3 14.8816 3 14.891C3 14.9004 3 14.9098 3 14.9192C3 14.9286 3 14.9379 3 14.9473C3 14.9566 3 14.9659 3 14.9752C3 14.9845 3 14.9938 3 15.003C3 15.0122 3 15.0214 3 15.0306C3 15.0398 3 15.049 3 15.0581C3 15.0673 3 15.0764 3 15.0855C3 15.0946 3 15.1037 3 15.1127C3 15.1218 3 15.1308 3 15.1398C3 15.1488 3 15.1578 3 15.1667C3 15.1757 3 15.1846 3 15.1935C3 15.2024 3 15.2113 3 15.2202C3 15.229 3 15.2379 3 15.2467C3 15.2555 3 15.2643 3 15.273C3 15.2818 3 15.2905 3 15.2992C3 15.3079 3 15.3166 3 15.3252C3 15.3339 3 15.3425 3 15.3511C3 15.3597 3 15.3683 3 15.3769C3 15.3854 3 15.394 3 15.4025C3 15.411 3 15.4194 3 15.4279C3 15.4363 3 15.4448 3 15.4532C3 15.4616 3 15.4699 3 15.4783C3 15.4866 3 15.4949 3 15.5032C3 15.5115 3 15.5198 3 15.528C3 15.5363 3 15.5445 3 15.5527C3 15.5608 3 15.569 3 15.5771C3 15.5853 3 15.5934 3 15.6014C3 15.6095 3 15.6176 3 15.6256C3 15.6336 3 15.6416 3 15.6496C3 15.6575 3 15.6655 3 15.6734C3 15.6813 3 15.6892 3 15.697C3 15.7049 3 15.7127 3 15.7205C3 15.7283 3 15.7361 3 15.7438C3 15.7516 3 15.7593 3 15.767C3 15.7746 3 15.7823 3 15.7899C3 15.7976 3 15.8052 3 15.8127C3 15.8203 3 15.8278 3 15.8353C3 15.8429 3 15.8503 3 15.8578C3 15.8652 3 15.8727 3 15.8801C3 15.8875 3 15.8948 3 15.9022C3 15.9095 3 15.9168 3 15.9241C3 15.9314 3 15.9386 3 15.9458C3 15.953 3 15.9602 3 15.9674C3 15.9745 3 15.9817 3 15.9888C3 15.9959 3 16.0029 3 16.01C3 16.017 3 16.024 3 16.031C3 16.038 3 16.0449 3 16.0518C3 16.0587 3 16.0656 3 16.0725C3 16.0793 3 16.0861 3 16.0929C3 16.0997 3 16.1065 3 16.1132C3 16.1199 3 16.1266 3 16.1333C3 16.1399 3 16.1466 3 16.1532C3 16.1598 3 16.1663 3 16.1729C3 16.1794 3 16.1859 3 16.1924C3 16.1989 3 16.2053 3 16.2117C3 16.2181 3 16.2245 3 16.2308C3 16.2372 3 16.2435 3 16.2498C3 16.2561 3 16.2623 3 16.2685C3 16.2747 3 16.2809 3 16.2871C3 16.2932 3 16.2993 3 16.3054C3 16.3115 3 16.3175 3 16.3236C3 16.3296 3 16.3356 3 16.3415C3 16.3475 3 16.3534 3 16.3592C3 16.3651 3 16.371 3 16.3768C3 16.3826 3 16.3884 3 16.3941C3 16.3999 3 16.4056 3 16.4113C3 16.4169 3 16.4226 3 16.4282C3 16.4338 3 16.4394 3 16.4449C3 16.4505 3 16.456 3 16.4614C3 16.4669 3 16.4724 3 16.4778C3 16.4832 3 16.4885 3 16.4939C3 16.4992 3 16.5045 3 16.5098C3 16.515 3 16.5202 3 16.5254C3 16.5306 3 16.5358 3 16.5409C3 16.546 3 16.5511 3 16.5562C3 16.5612 3 16.5662 3 16.5712C3 16.5762 3 16.5811 3 16.586C3 16.5909 3 16.5958 3 16.6006C3 16.6055 3 16.6103 3 16.615C3 16.6198 3 16.6245 3 16.6292C3 16.6339 3 16.6385 3 16.6431C3 16.6477 3 16.6523 3 16.6569C3 16.6614 3 16.6659 3 16.6704C3 16.6748 3 16.6793 3 16.6837C3 16.6881 3 16.6924 3 16.6967C3 16.701 3 16.7053 3 16.7096C3 16.7138 3 16.718 3 16.7222C3 16.7263 3 16.7305 3 16.7346C3 16.7386 3 16.7427 3 16.7467C3 16.7507 3 16.7547 3 16.7586C3 16.7626 3 16.7665 3 16.7703C3 16.7742 3 16.778 3 16.7818C3 16.7856 3 16.7893 3 16.793C3 16.7967 3 16.8004 3 16.804C3 16.8076 3 16.8112 3 16.8148C3 16.8183 3 16.8218 3 16.8253C3 16.8288 3 16.8322 3 16.8356C3 16.839 3 16.8423 3 16.8457C3 16.849 3 16.8522 3 16.8555C3 16.8587 3 16.8619 3 16.865C3 16.8682 3 16.8713 3 16.8744C3 16.8775 3 16.8805 3 16.8835C3 16.8865 3 16.8894 3 16.8923C3 16.8952 3 16.8981 3 16.9009C3 16.9038 3 16.9065 3 16.9093C3 16.912 3 16.9147 3 16.9174C3 16.9201 3 16.9227 3 16.9253C3 16.9278 3 16.9304 3 16.9329C3 16.9354 3 16.9378 3 16.9403C3 16.9427 3 16.945 3 16.9474C3 16.9497 3 16.952 3 16.9542C3 16.9565 3 16.9587 3 16.9609C3 16.963 3 16.9651 3 16.9672C3 16.9693 3 16.9713 3 16.9733C3 16.9753 3 16.9773 3 16.9792C3 16.9811 3 16.9829 3 16.9848C3 16.9866 3 16.9884 3 16.9901C3 16.9918 3 16.9935 3 16.9952C3 16.9968 3 16.9984 3 17H5Z" fill="currentColor"/>
</svg>
