<svg width="25" height="17" viewBox="0 0 25 17" fill="none" xmlns="http://www.w3.org/2000/svg">
<path d="M5.3741 3.79289C4.98357 3.40237 4.35041 3.40237 3.95989 3.79289C3.56936 4.18342 3.56936 4.81658 3.95989 5.20711L5.3741 3.79289ZM21.3741 5.20711C21.7646 4.81658 21.7646 4.18342 21.3741 3.79289C20.9836 3.40237 20.3504 3.40237 19.9599 3.79289L21.3741 5.20711ZM12.667 12.5L11.9599 13.2071C12.3504 13.5976 12.9836 13.5976 13.3741 13.2071L12.667 12.5ZM19.9599 3.79289L11.9599 11.7929L13.3741 13.2071L21.3741 5.20711L19.9599 3.79289ZM13.3741 11.7929L5.3741 3.79289L3.95989 5.20711L11.9599 13.2071L13.3741 11.7929Z" fill="#323E48"/>
</svg>
