<svg width="24" height="24" viewBox="0 0 24 24" fill="none" xmlns="http://www.w3.org/2000/svg">
<path d="M14.4472 9.39443C14.9412 9.14744 15.1414 8.54676 14.8944 8.05279C14.6474 7.55881 14.0468 7.35858 13.5528 7.60557L14.4472 9.39443ZM13.5528 16.3944C14.0468 16.6414 14.6474 16.4412 14.8944 15.9472C15.1414 15.4532 14.9412 14.8526 14.4472 14.6056L13.5528 16.3944ZM10.4472 11.3944L14.4472 9.39443L13.5528 7.60557L9.55279 9.60557L10.4472 11.3944ZM14.4472 14.6056L10.4472 12.6056L9.55279 14.3944L13.5528 16.3944L14.4472 14.6056Z" fill="#323E48"/>
<circle cx="7" cy="12" r="3" stroke="#323E48" stroke-width="2"/>
<circle cx="17" cy="7" r="3" stroke="#323E48" stroke-width="2"/>
<circle cx="17" cy="17" r="3" stroke="#323E48" stroke-width="2"/>
</svg>
