<svg width="18" height="14" viewBox="0 0 18 14" fill="none" xmlns="http://www.w3.org/2000/svg">
<rect x="8" y="14" width="14" height="2" rx="1" transform="rotate(-90 8 14)" fill="#323E48"/>
<path d="M1.70711 4.29289C1.31658 3.90237 0.683417 3.90237 0.292893 4.29289C-0.0976311 4.68342 -0.0976311 5.31658 0.292893 5.70711L1.70711 4.29289ZM17.7071 5.70711C18.0976 5.31658 18.0976 4.68342 17.7071 4.29289C17.3166 3.90237 16.6834 3.90237 16.2929 4.29289L17.7071 5.70711ZM9 13L8.29289 13.7071C8.68342 14.0976 9.31658 14.0976 9.70711 13.7071L9 13ZM16.2929 4.29289L8.29289 12.2929L9.70711 13.7071L17.7071 5.70711L16.2929 4.29289ZM9.70711 12.2929L1.70711 4.29289L0.292893 5.70711L8.29289 13.7071L9.70711 12.2929Z" fill="#323E48"/>
</svg>
