<svg width="32" height="32" viewBox="0 0 32 32" fill="none" xmlns="http://www.w3.org/2000/svg">
<path fill-rule="evenodd" clip-rule="evenodd" d="M8.11574 9.52872C8.46641 9.10205 8.47073 8.47171 8.08021 8.08119C7.68968 7.69066 7.053 7.68819 6.69556 8.1092C4.88938 10.2366 3.7998 12.9914 3.7998 16.0008C3.7998 22.7387 9.26193 28.2008 15.9998 28.2008C22.7377 28.2008 28.1998 22.7387 28.1998 16.0008C28.1998 9.26291 22.7377 3.80078 15.9998 3.80078C15.3046 3.80078 14.623 3.85893 13.9596 3.97063C13.2184 4.0954 12.9908 4.99179 13.5222 5.52322L13.6184 5.61938C13.8546 5.8556 14.1927 5.9548 14.5233 5.90686C15.0054 5.83696 15.4984 5.80078 15.9998 5.80078C21.6331 5.80078 26.1998 10.3675 26.1998 16.0008C26.1998 21.6341 21.6331 26.2008 15.9998 26.2008C10.3665 26.2008 5.7998 21.6341 5.7998 16.0008C5.7998 13.5437 6.66859 11.2895 8.11574 9.52872Z" fill="#FF224A"/>
<path d="M13.6454 12.0735H12.1411L9.97211 13.467V14.9158L12.0133 13.6119H12.0644V20.8008H13.6454V12.0735ZM18.8954 20.9201C20.7406 20.9201 22.0275 19.6673 22.0275 17.9329C22.0275 16.2539 20.8599 15.0437 19.2747 15.0437C18.5673 15.0437 17.9409 15.3249 17.617 15.7085H17.5659L17.8173 13.3945H21.5715V12.0735H16.509L16.0531 16.5735L17.4806 16.8079C17.7747 16.484 18.3286 16.2667 18.8528 16.271C19.8116 16.2752 20.5019 16.9826 20.4977 17.9712C20.5019 18.9471 19.8286 19.6417 18.8954 19.6417C18.107 19.6417 17.4721 19.1431 17.4167 18.4272H15.8826C15.9252 19.8761 17.1909 20.9201 18.8954 20.9201Z" fill="#323E48"/>
<path d="M16 1.85433L16 7.71725C16 8.51872 15.1043 8.99454 14.4402 8.54589L10.043 5.57534C9.45171 5.17587 9.45708 4.3034 10.0533 3.91124L14.4505 1.01887C15.1154 0.581483 16 1.05843 16 1.85433Z" fill="#FF224A"/>
</svg>
