<svg width="22" height="21" viewBox="0 0 22 21" fill="none" xmlns="http://www.w3.org/2000/svg">
<path d="M0.882812 10.9492C0.882812 12.3359 1.14323 13.6413 1.66406 14.8652C2.19141 16.0827 2.90755 17.1471 3.8125 18.0586C3.98828 18.2409 4.15755 18.2344 4.32031 18.0391L4.78906 17.5117C4.9388 17.3424 4.93555 17.1764 4.7793 17.0137C4.01758 16.2259 3.41536 15.3112 2.97266 14.2695C2.52995 13.2279 2.30859 12.1211 2.30859 10.9492C2.30859 9.76432 2.5332 8.64779 2.98242 7.59961C3.43815 6.55143 4.06641 5.62695 4.86719 4.82617C5.66797 4.02539 6.59245 3.40039 7.64062 2.95117C8.6888 2.49544 9.80859 2.26758 11 2.26758C12.1914 2.26758 13.3112 2.49544 14.3594 2.95117C15.4076 3.40039 16.332 4.02539 17.1328 4.82617C17.9336 5.62695 18.5586 6.55143 19.0078 7.59961C19.4635 8.64779 19.6914 9.76432 19.6914 10.9492C19.6914 12.1211 19.4701 13.2279 19.0273 14.2695C18.5846 15.3112 17.9824 16.2259 17.2207 17.0137C17.0645 17.1764 17.0612 17.3424 17.2109 17.5117L17.6797 18.0391C17.8424 18.2344 18.0117 18.2409 18.1875 18.0586C19.0924 17.1471 19.8053 16.0827 20.3262 14.8652C20.8535 13.6413 21.1172 12.3359 21.1172 10.9492C21.1172 9.5625 20.8535 8.26042 20.3262 7.04297C19.8053 5.81901 19.0794 4.74154 18.1484 3.81055C17.224 2.87956 16.1497 2.15039 14.9258 1.62305C13.7083 1.0957 12.3997 0.832031 11 0.832031C9.60026 0.832031 8.28841 1.0957 7.06445 1.62305C5.84701 2.15039 4.77279 2.87956 3.8418 3.81055C2.91732 4.74154 2.19141 5.81901 1.66406 7.04297C1.14323 8.26042 0.882812 9.5625 0.882812 10.9492ZM3.72461 10.9492C3.72461 11.9062 3.89714 12.8112 4.24219 13.6641C4.59375 14.5104 5.07552 15.2591 5.6875 15.9102C5.86328 16.1055 6.03906 16.1055 6.21484 15.9102L6.68359 15.3926C6.83984 15.2428 6.83659 15.0736 6.67383 14.8848C6.20508 14.3639 5.83398 13.7682 5.56055 13.0977C5.29362 12.4206 5.16016 11.7044 5.16016 10.9492C5.16016 10.1549 5.3099 9.40625 5.60938 8.70312C5.91536 7.99349 6.33529 7.37174 6.86914 6.83789C7.40951 6.29753 8.03125 5.87435 8.73438 5.56836C9.44401 5.26237 10.1992 5.10938 11 5.10938C11.8008 5.10938 12.5527 5.26237 13.2559 5.56836C13.959 5.87435 14.5807 6.29753 15.1211 6.83789C15.6615 7.37174 16.0814 7.99349 16.3809 8.70312C16.6868 9.40625 16.8398 10.1549 16.8398 10.9492C16.8398 11.7044 16.7031 12.4173 16.4297 13.0879C16.1628 13.7585 15.7949 14.3542 15.3262 14.875C15.1699 15.0573 15.1667 15.2266 15.3164 15.3828L15.7949 15.9102C15.9642 16.099 16.1367 16.099 16.3125 15.9102C16.9245 15.2591 17.403 14.5104 17.748 13.6641C18.0996 12.8112 18.2754 11.9062 18.2754 10.9492C18.2754 9.94661 18.0866 9.00911 17.709 8.13672C17.3314 7.25781 16.8073 6.48633 16.1367 5.82227C15.4727 5.15169 14.7012 4.6276 13.8223 4.25C12.9434 3.86589 12.0026 3.67383 11 3.67383C9.9974 3.67383 9.05664 3.86589 8.17773 4.25C7.29883 4.6276 6.52409 5.15169 5.85352 5.82227C5.18945 6.48633 4.66862 7.25781 4.29102 8.13672C3.91341 9.00911 3.72461 9.94661 3.72461 10.9492ZM4.51562 19.875C4.35938 20.0508 4.32031 20.2363 4.39844 20.4316C4.47656 20.6335 4.63932 20.7344 4.88672 20.7344H17.1035C17.3509 20.7344 17.5137 20.6335 17.5918 20.4316C17.6699 20.2363 17.6309 20.0508 17.4746 19.875L11.4492 13.0391C11.3255 12.9023 11.1725 12.834 10.9902 12.834C10.8079 12.834 10.6582 12.9023 10.541 13.0391L4.51562 19.875ZM6.56641 10.9492C6.56641 11.4766 6.6543 11.9779 6.83008 12.4531C7.00586 12.9284 7.25326 13.3613 7.57227 13.752C7.73503 13.9473 7.90755 13.9473 8.08984 13.752L8.57812 13.2539C8.72135 13.1042 8.73112 12.9349 8.60742 12.7461C8.41211 12.4987 8.26237 12.222 8.1582 11.916C8.05404 11.6035 8.00195 11.2812 8.00195 10.9492C8.00195 10.4023 8.13867 9.9043 8.41211 9.45508C8.68555 8.99935 9.04688 8.63477 9.49609 8.36133C9.95182 8.08789 10.4531 7.95117 11 7.95117C11.5469 7.95117 12.0449 8.08789 12.4941 8.36133C12.9499 8.63477 13.3145 8.99935 13.5879 9.45508C13.8613 9.9043 13.998 10.4023 13.998 10.9492C13.998 11.2812 13.946 11.6003 13.8418 11.9062C13.7376 12.2122 13.5879 12.4922 13.3926 12.7461C13.2689 12.9349 13.2786 13.1042 13.4219 13.2539L13.9199 13.7617C14.1022 13.957 14.2715 13.9538 14.4277 13.752C14.7467 13.3613 14.9941 12.9284 15.1699 12.4531C15.3457 11.9779 15.4336 11.4766 15.4336 10.9492C15.4336 10.1419 15.2318 9.40299 14.8281 8.73242C14.431 8.05534 13.8971 7.51823 13.2266 7.12109C12.556 6.71745 11.8138 6.51562 11 6.51562C10.1862 6.51562 9.44401 6.71745 8.77344 7.12109C8.10286 7.51823 7.56576 8.05534 7.16211 8.73242C6.76497 9.40299 6.56641 10.1419 6.56641 10.9492Z" fill="currentColor"/>
</svg>
