<svg width="24" height="24" viewBox="0 0 24 24" fill="none" xmlns="http://www.w3.org/2000/svg">
<path d="M7 4V3C6.44772 3 6 3.44772 6 4H7ZM7 21H6C6 21.3603 6.19379 21.6927 6.5073 21.8702C6.82081 22.0477 7.20557 22.0429 7.5145 21.8575L7 21ZM12 18L12.5145 17.1425C12.1978 16.9525 11.8022 16.9525 11.4855 17.1425L12 18ZM17 21L16.4855 21.8575C16.7944 22.0429 17.1792 22.0477 17.4927 21.8702C17.8062 21.6927 18 21.3603 18 21H17ZM17 4H18C18 3.44772 17.5523 3 17 3V4ZM6 4V21H8V4H6ZM7.5145 21.8575L12.5145 18.8575L11.4855 17.1425L6.4855 20.1425L7.5145 21.8575ZM11.4855 18.8575L16.4855 21.8575L17.5145 20.1425L12.5145 17.1425L11.4855 18.8575ZM18 21V4H16V21H18ZM17 3H7V5H17V3Z" fill="#323E48"/>
</svg>
