<svg width="16" height="16" viewBox="0 0 16 16" fill="none" xmlns="http://www.w3.org/2000/svg">
<path d="M4.38411 7.67991C4.20733 7.46777 3.89205 7.43911 3.67991 7.61589C3.46777 7.79267 3.43911 8.10795 3.61589 8.32009L4.38411 7.67991ZM12.4319 4.25194C12.571 4.01341 12.4905 3.70725 12.2519 3.56811C12.0134 3.42897 11.7073 3.50954 11.5681 3.74806L12.4319 4.25194ZM7.33333 12L6.94922 12.3201C7.0536 12.4453 7.21248 12.5118 7.37495 12.4983C7.53742 12.4847 7.68307 12.3928 7.76522 12.2519L7.33333 12ZM11.5681 3.74806L6.90144 11.7481L7.76522 12.2519L12.4319 4.25194L11.5681 3.74806ZM7.71744 11.6799L4.38411 7.67991L3.61589 8.32009L6.94922 12.3201L7.71744 11.6799Z" fill="#323E48"/>
</svg>
