<svg width="24" height="24" viewBox="0 0 24 24" fill="none" xmlns="http://www.w3.org/2000/svg">
<path d="M6.76822 11.3598C6.41466 10.9355 5.78409 10.8782 5.35982 11.2318C4.93554 11.5853 4.87821 12.2159 5.23178 12.6402L6.76822 11.3598ZM18.8638 6.50387C19.1421 6.02682 18.9809 5.4145 18.5039 5.13622C18.0268 4.85794 17.4145 5.01908 17.1362 5.49613L18.8638 6.50387ZM11 18L10.2318 18.6402C10.4405 18.8907 10.7583 19.0237 11.0832 18.9965C11.4082 18.9694 11.6995 18.7855 11.8638 18.5039L11 18ZM17.1362 5.49613L10.1362 17.4961L11.8638 18.5039L18.8638 6.50387L17.1362 5.49613ZM11.7682 17.3598L6.76822 11.3598L5.23178 12.6402L10.2318 18.6402L11.7682 17.3598Z" fill="#323E48"/>
</svg>
