<svg width="32" height="32" viewBox="0 0 32 32" fill="none" xmlns="http://www.w3.org/2000/svg">
<path fill-rule="evenodd" clip-rule="evenodd" d="M23.9194 8.08119C23.5289 8.47171 23.5332 9.10205 23.8839 9.52872C25.331 11.2895 26.1998 13.5437 26.1998 16.0008C26.1998 21.6341 21.6331 26.2008 15.9998 26.2008C10.3665 26.2008 5.7998 21.6341 5.7998 16.0008C5.7998 10.3675 10.3665 5.80078 15.9998 5.80078C16.5012 5.80078 16.9942 5.83696 17.4763 5.90686C17.8069 5.9548 18.145 5.8556 18.3812 5.61938L18.4774 5.52322C19.0088 4.99179 18.7812 4.0954 18.0401 3.97063C17.3766 3.85893 16.695 3.80078 15.9998 3.80078C9.26193 3.80078 3.7998 9.26291 3.7998 16.0008C3.7998 22.7387 9.26193 28.2008 15.9998 28.2008C22.7377 28.2008 28.1998 22.7387 28.1998 16.0008C28.1998 12.9914 27.1102 10.2366 25.3041 8.1092C24.9466 7.68818 24.3099 7.69066 23.9194 8.08119Z" fill="#FF224A"/>
<path d="M13.6454 12.0735H12.1411L9.97211 13.467V14.9158L12.0133 13.6119H12.0644V20.8008H13.6454V12.0735ZM18.8954 20.9201C20.7406 20.9201 22.0275 19.6673 22.0275 17.9329C22.0275 16.2539 20.8599 15.0437 19.2747 15.0437C18.5673 15.0437 17.9409 15.3249 17.617 15.7085H17.5659L17.8173 13.3945H21.5715V12.0735H16.509L16.0531 16.5735L17.4806 16.8079C17.7747 16.484 18.3286 16.2667 18.8528 16.271C19.8116 16.2752 20.5019 16.9826 20.4977 17.9712C20.5019 18.9471 19.8286 19.6417 18.8954 19.6417C18.107 19.6417 17.4721 19.1431 17.4167 18.4272H15.8826C15.9252 19.8761 17.1909 20.9201 18.8954 20.9201Z" fill="#323E48"/>
<path d="M16 1.85433L16 7.71725C16 8.51872 16.8957 8.99454 17.5598 8.54589L21.957 5.57534C22.5483 5.17587 22.5429 4.3034 21.9467 3.91124L17.5495 1.01887C16.8846 0.581483 16 1.05843 16 1.85433Z" fill="#FF224A"/>
</svg>
