<svg width="24" height="24" viewBox="0 0 24 24" fill="none" xmlns="http://www.w3.org/2000/svg">
<rect x="3" y="19" width="18" height="2" rx="1" fill="#323E48"/>
<rect x="11" y="17" width="14" height="2" rx="1" transform="rotate(-90 11 17)" fill="#323E48"/>
<path d="M4.70711 7.29289C4.31658 6.90237 3.68342 6.90237 3.29289 7.29289C2.90237 7.68342 2.90237 8.31658 3.29289 8.70711L4.70711 7.29289ZM20.7071 8.70711C21.0976 8.31658 21.0976 7.68342 20.7071 7.29289C20.3166 6.90237 19.6834 6.90237 19.2929 7.29289L20.7071 8.70711ZM12 16L11.2929 16.7071C11.6834 17.0976 12.3166 17.0976 12.7071 16.7071L12 16ZM19.2929 7.29289L11.2929 15.2929L12.7071 16.7071L20.7071 8.70711L19.2929 7.29289ZM12.7071 15.2929L4.70711 7.29289L3.29289 8.70711L11.2929 16.7071L12.7071 15.2929Z" fill="#323E48"/>
</svg>
