<svg width="24" height="24" viewBox="0 0 24 24" fill="none" xmlns="http://www.w3.org/2000/svg">
<circle cx="12" cy="12" r="6" stroke="#323E48" stroke-width="2"/>
<rect x="11" y="3" width="2" height="3" rx="1" fill="#323E48"/>
<rect x="11" y="18" width="2" height="3" rx="1" fill="#323E48"/>
<rect x="21" y="11" width="2" height="3" rx="1" transform="rotate(90 21 11)" fill="#323E48"/>
<rect x="6" y="11" width="2" height="3" rx="1" transform="rotate(90 6 11)" fill="#323E48"/>
<rect x="17.6567" y="4.92969" width="2" height="3" rx="1" transform="rotate(45 17.6567 4.92969)" fill="#323E48"/>
<rect x="7.05029" y="15.5352" width="2" height="3" rx="1" transform="rotate(45 7.05029 15.5352)" fill="#323E48"/>
<rect x="19.0713" y="17.6562" width="2" height="3" rx="1" transform="rotate(135 19.0713 17.6562)" fill="#323E48"/>
<rect x="8.46436" y="7.05078" width="2" height="3" rx="1" transform="rotate(135 8.46436 7.05078)" fill="#323E48"/>
</svg>
