<svg width="24" height="24" viewBox="0 0 24 24" fill="none" xmlns="http://www.w3.org/2000/svg">
<path d="M7 21V4H17V21L12 18L7 21Z" fill="#FF224A"/>
<path d="M7 4V3.5C6.72386 3.5 6.5 3.72386 6.5 4H7ZM7 21H6.5C6.5 21.1801 6.5969 21.3463 6.75365 21.4351C6.9104 21.5239 7.10278 21.5214 7.25725 21.4287L7 21ZM12 18L12.2572 17.5713C12.0989 17.4762 11.9011 17.4762 11.7428 17.5713L12 18ZM17 21L16.7428 21.4287C16.8972 21.5214 17.0896 21.5239 17.2463 21.4351C17.4031 21.3463 17.5 21.1801 17.5 21H17ZM17 4H17.5C17.5 3.72386 17.2761 3.5 17 3.5V4ZM6.5 4V21H7.5V4H6.5ZM7.25725 21.4287L12.2572 18.4287L11.7428 17.5713L6.74275 20.5713L7.25725 21.4287ZM11.7428 18.4287L16.7428 21.4287L17.2572 20.5713L12.2572 17.5713L11.7428 18.4287ZM17.5 21V4H16.5V21H17.5ZM17 3.5H7V4.5H17V3.5Z" fill="#FF224A"/>
</svg>
