<svg width="32" height="32" viewBox="0 0 32 32" fill="none" xmlns="http://www.w3.org/2000/svg">
<path fill-rule="evenodd" clip-rule="evenodd" d="M8.25809 9.67C8.60793 9.24264 8.61235 8.61235 8.22183 8.22183C7.8313 7.8313 7.19455 7.82879 6.83768 8.25029C5.06745 10.3411 4 13.0459 4 16C4 22.6274 9.37258 28 16 28C22.6274 28 28 22.6274 28 16C28 9.37258 22.6274 4 16 4C15.3673 4 14.7461 4.04896 14.1398 4.1433C13.3934 4.25947 13.16 5.16002 13.6942 5.69419L13.7956 5.79556C14.0284 6.02841 14.3605 6.12824 14.687 6.08542C15.1167 6.02907 15.555 6 16 6C21.5228 6 26 10.4772 26 16C26 21.5228 21.5228 26 16 26C10.4772 26 6 21.5228 6 16C6 13.5981 6.84678 11.3941 8.25809 9.67Z" fill="currentColor"/>
<path d="M13.6456 12.0728H12.1414L9.97235 13.4662V14.9151L12.0135 13.6111H12.0647V20.8H13.6456V12.0728ZM18.8956 20.9194C20.7408 20.9194 22.0277 19.6665 22.0277 17.9322C22.0277 16.2532 20.8601 15.0429 19.2749 15.0429C18.5675 15.0429 17.9411 15.3242 17.6172 15.7077H17.5661L17.8175 13.3938H21.5718V12.0728H16.5093L16.0533 16.5728L17.4809 16.8072C17.7749 16.4833 18.3289 16.266 18.853 16.2702C19.8118 16.2745 20.5022 16.9819 20.4979 17.9705C20.5022 18.9464 19.8289 19.641 18.8956 19.641C18.1073 19.641 17.4724 19.1424 17.417 18.4265H15.8829C15.9255 19.8753 17.1911 20.9194 18.8956 20.9194Z"/>
<path d="M16 1.92815L16 8.04173C16 8.85797 15.0749 9.33039 14.4137 8.8518L10.1342 5.75425C9.57831 5.35192 9.58354 4.52207 10.1444 4.12678L14.4239 1.11076C15.0864 0.643863 16 1.11768 16 1.92815Z" fill="currentColor"/>
</svg>
