<svg width="161" height="23" viewBox="0 0 161 23" fill="none" xmlns="http://www.w3.org/2000/svg">
<g clip-path="url(#clip0)">
<path d="M0 14.4858V18.1739C0 18.4941 0.260892 18.7491 0.581078 18.7609C4.16241 18.8854 7.70224 20.3974 10.2637 22.8344C10.495 23.0538 10.8567 23.0597 11.0879 22.8344C11.9892 21.9865 12.9912 21.2453 14.0763 20.6405C10.5661 16.8576 5.55581 14.4858 0 14.4858Z" fill="#FF224A"/>
<path d="M0 8.08203V12.3512C6.4215 12.3512 12.1848 15.2032 16.0982 19.7036C17.5687 19.1522 19.1459 18.826 20.7943 18.7667C16.1397 12.3037 8.55607 8.08203 0 8.08203Z" fill="#FF224A"/>
<path d="M7.92163 2.66845C5.53209 2.06366 3.07141 1.73754 0.604795 1.68418C0.272751 1.67825 0 1.951 0 2.28304V5.94739C8.57386 5.94739 16.2524 9.86077 21.3457 15.9858V9.85484C17.5687 6.46917 12.9853 3.96105 7.92163 2.66845Z" fill="#FF224A"/>
<path d="M13.9629 2.54393C16.6192 3.73574 19.0977 5.25958 21.3449 7.06211V2.28304C21.3449 1.951 21.0722 1.67825 20.7402 1.68418C18.4158 1.72568 16.1449 2.02808 13.9629 2.54393Z" fill="#FF224A"/>
<path d="M43.8406 18.0073V18.7604H35.3912V18.0073C37.3657 17.7287 37.6207 17.3492 37.0811 16.0566L36.168 13.8509H29.9659L29.284 15.4696C28.6495 16.9519 29.2603 17.7227 31.2347 18.0073V18.7604H25.5781V18.0073C26.2837 17.7287 26.847 16.9756 27.3391 15.8253L33.393 1.66602H36.0257L42.2218 16.0566C42.6903 17.1417 43.1113 17.7287 43.8406 18.0073ZM35.5987 12.493L33.0847 6.48066L30.5469 12.493H35.5987Z" fill="#323E48"/>
<path d="M58.8784 17.4915V18.1497L54.0164 18.9502H53.4056L52.9372 16.4598H52.8661C51.9767 18.0785 50.4232 19.045 48.2649 19.045C45.235 19.045 44.0135 17.284 44.0135 14.349V9.60548C44.0135 8.4789 43.5451 7.49463 42.3711 7.25745V6.59929L47.7016 5.79883H48.4309V14.1592C48.4309 16.0151 49.0416 16.8334 50.3105 16.8334C51.9292 16.8334 52.8246 15.2858 52.8246 12.748V9.60548C52.8246 8.4789 52.3561 7.49463 51.1821 7.25745V6.59929L56.5126 5.79883H57.2419V15.3807C57.236 16.5073 57.4732 17.2544 58.8784 17.4915Z" fill="#323E48"/>
<path d="M74.5842 17.4917V18.1498L69.7221 18.9503H69.1114L68.643 16.5785H68.5481C67.7239 18.1261 66.3186 19.0451 64.4865 19.0451C61.6226 19.0451 59.1797 16.8157 59.1797 12.7778C59.1797 8.34265 62.1147 5.80488 66.2001 5.80488C67.0005 5.80488 67.7951 5.89975 68.5244 6.10728V4.67237C68.5244 3.54579 68.0559 2.56152 66.8819 2.32435V1.66619L72.2124 0.865723H72.9417V15.3749C72.9417 16.5074 73.1789 17.2545 74.5842 17.4917ZM68.5303 12.7482V7.93352C67.801 7.3228 67.0302 7.06191 66.3246 7.06191C64.777 7.06191 63.7394 8.18849 63.7394 11.9714C63.7394 15.2563 64.5635 16.8335 66.0874 16.8335C67.6112 16.8335 68.5303 15.3097 68.5303 12.7482Z" fill="#323E48"/>
<path d="M75.8535 18.1023C77.2647 17.8652 77.4959 17.5865 77.4959 16.4599V9.60557C77.4959 8.47899 77.0275 7.49471 75.8535 7.25754V6.59938L81.184 5.79892H81.9133V16.4599C81.9133 17.5865 82.2869 17.8711 83.4134 18.1023V18.7605H75.8535V18.1023ZM77.1698 2.34803C77.1698 1.03171 78.1778 0 79.589 0C81.0002 0 82.0082 0.824181 82.0082 2.25316C82.0082 3.59319 81.0002 4.6249 79.589 4.6249C78.1778 4.6249 77.1698 3.78293 77.1698 2.34803Z" fill="#323E48"/>
<path d="M83.6504 12.6059C83.6504 8.49683 86.8167 5.7041 90.9731 5.7041C94.9636 5.7041 97.8038 8.26559 97.8038 12.1375C97.8038 16.2465 94.6316 19.0392 90.5047 19.0392C86.4906 19.0392 83.6504 16.4837 83.6504 12.6059ZM93.1611 12.8668C93.1611 9.06012 92.3843 6.92555 90.5344 6.92555C88.7971 6.92555 88.3049 8.78144 88.3049 11.8529C88.3049 15.6595 89.0817 17.8178 90.9316 17.8178C92.669 17.8178 93.1611 15.9678 93.1611 12.8668Z" fill="#323E48"/>
<path d="M113.167 1.66602V2.41904C112.367 2.70365 111.922 3.33217 111.406 4.60105L105.583 18.7604H102.957L96.9859 4.36981C96.4938 3.19579 96.1617 2.70365 95.3672 2.41904V1.66602H104.054V2.41904C102.079 2.70365 101.753 3.59306 102.269 4.88566L105.862 13.8094L109.052 5.78099C109.781 3.9251 108.536 2.70365 107.41 2.42497V1.66602H113.167Z" fill="#323E48"/>
<path d="M123.661 15.6121C121.9 18.2625 119.718 19.0392 117.512 19.0392C114.061 19.0392 110.842 17.1596 110.842 12.677C110.842 8.37824 113.777 5.7041 118.117 5.7041C122.718 5.7041 123.774 8.68657 123.566 11.9952H115.396C115.514 15.4935 117.109 16.6201 119.178 16.6201C120.352 16.6201 121.781 16.2702 122.867 15.1436L123.661 15.6121ZM115.419 10.7322H119.552C119.623 8.08178 118.941 6.93148 117.767 6.93148C116.404 6.92555 115.585 8.49683 115.419 10.7322Z" fill="#323E48"/>
<path d="M135.87 7.46512C135.87 8.147 135.609 9.10756 135.141 9.97917L133.546 9.22614C132.911 8.92375 132.466 8.80516 132.045 8.80516C130.824 8.80516 130.45 9.69456 130.45 10.7085V16.46C130.45 17.5865 130.824 17.8712 132.188 18.1024V18.7606H124.391V18.1024C125.802 17.8652 126.033 17.5865 126.033 16.46V9.60562C126.033 8.47904 125.565 7.49477 124.391 7.25759V6.59944L129.721 5.79897H130.332V8.73401H130.427C131.156 6.94927 132.425 5.7041 133.972 5.7041C135.283 5.7041 135.87 6.4097 135.87 7.46512Z" fill="#323E48"/>
<path d="M136.576 18.1973V14.6752H137.305C138.153 16.8335 140.193 17.8652 141.652 17.8652C142.731 17.8652 143.626 17.2545 143.626 16.2228C143.626 15.5646 143.205 15.0013 141.604 14.4381L140.62 14.0882C138.106 13.2225 136.701 12.1375 136.701 9.8843C136.701 7.25759 138.812 5.7041 141.984 5.7041C144.118 5.7041 146.093 6.33854 146.49 6.52828V9.65306H145.761C144.871 7.98691 143.46 6.88404 141.889 6.88404C140.691 6.88404 140.104 7.51849 140.104 8.36046C140.104 9.08977 140.62 9.62934 142.126 10.1689L143.134 10.5187C145.808 11.4556 147.03 12.4932 147.03 14.6752C147.03 17.3968 144.824 19.0452 141.468 19.0452C139.321 19.0392 137.116 18.4759 136.576 18.1973Z" fill="#323E48"/>
<path d="M160.548 15.6121C158.787 18.2625 156.605 19.0392 154.393 19.0392C150.942 19.0392 147.723 17.1596 147.723 12.677C147.723 8.37824 150.658 5.7041 155.004 5.7041C159.605 5.7041 160.661 8.68657 160.453 11.9952H152.282C152.401 15.4935 153.996 16.6201 156.065 16.6201C157.239 16.6201 158.674 16.2702 159.753 15.1436L160.548 15.6121ZM152.306 10.7322H156.439C156.51 8.08178 155.828 6.93148 154.654 6.93148C153.29 6.92555 152.472 8.49683 152.306 10.7322Z" fill="#323E48"/>
</g>
<defs>
<clipPath id="clip0">
<rect width="160.549" height="23" fill="white"/>
</clipPath>
</defs>
</svg>
