<svg width="271" height="39" viewBox="0 0 271 39" fill="none" xmlns="http://www.w3.org/2000/svg">
<g clip-path="url(#clip0)">
<path d="M60.0972 21.0378L55.8447 10.9102L51.5923 21.0378H60.0972ZM73.9737 30.3261V31.613H59.7056V30.3261C63.0068 29.8785 63.4544 29.207 62.5592 27.0248L60.9925 23.3319H50.6411L49.466 26.0736C48.4029 28.5915 49.4101 29.8785 52.7673 30.3261V31.613H43.1992V30.3261C44.3742 29.8785 45.3255 28.5915 46.1648 26.6331L56.4043 2.79688H60.8246L71.288 27.0248C72.0713 28.8713 72.7428 29.8785 73.9737 30.3261Z" fill="#323E48"/>
<path d="M99.3194 29.488V30.607L91.1502 31.9499H90.143L89.3597 27.7534H89.2478C87.737 30.4951 85.1072 32.1178 81.4702 32.1178C76.3784 32.1178 74.3081 29.1522 74.3081 24.2283V16.171C74.3081 14.2686 73.5248 12.59 71.5664 12.1983V11.0792L80.5749 9.73633H81.8059V23.8367C81.8059 26.9701 82.8131 28.3689 84.9953 28.3689C87.737 28.3689 89.2478 25.7391 89.2478 21.4866V16.171C89.2478 14.2686 88.4644 12.59 86.506 12.1983V11.0792L95.5146 9.73633H96.7456V25.851C96.5777 27.8094 96.9694 29.0963 99.3194 29.488Z" fill="#323E48"/>
<path d="M115.602 21.4865V13.3732C114.371 12.366 113.084 11.9184 111.909 11.9184C109.279 11.9184 107.545 13.8208 107.545 20.1996C107.545 25.739 108.943 28.3688 111.517 28.3688C114.035 28.3688 115.602 25.7949 115.602 21.4865ZM124.666 29.4879V30.6069L117.616 31.9498H116.609L115.826 27.9771H115.658C114.259 30.6069 111.909 32.1177 108.831 32.1177C104.019 32.1177 99.8789 28.3688 99.8789 21.5424C99.8789 14.0447 104.803 9.79217 111.685 9.79217C113.028 9.79217 114.371 9.96004 115.602 10.2958V7.88975C115.602 5.98733 114.819 4.30872 112.86 3.91704V2.79797L121.869 1.45508H123.1V25.9068C123.044 27.8093 123.491 28.9843 124.666 29.4879Z" fill="#323E48"/>
<path d="M127.913 3.97271C127.913 1.73456 129.591 0 131.997 0C134.347 0 136.082 1.39884 136.082 3.80485C136.082 6.043 134.403 7.77756 131.997 7.77756C129.647 7.77756 127.913 6.37872 127.913 3.97271ZM126.402 30.4947C128.136 30.159 128.472 29.5995 128.472 27.6971V16.1706C128.472 14.2682 127.689 12.5896 125.73 12.1979V11.0788L134.739 9.73594H135.97V27.6971C135.97 29.5995 136.585 30.0471 138.488 30.4947V31.6138H126.458V30.4947H126.402Z" fill="#323E48"/>
<path d="M154.883 21.6531C154.883 15.2184 153.596 11.6374 150.463 11.6374C147.553 11.6374 146.714 14.7708 146.714 19.9185C146.714 26.3532 148.001 29.9902 151.134 29.9902C154.044 30.0461 154.883 26.9127 154.883 21.6531ZM138.824 21.2614C138.824 14.3232 144.14 9.62305 151.19 9.62305C157.904 9.62305 162.716 13.9315 162.716 20.4781C162.716 27.4163 157.401 32.1164 150.407 32.1164C143.636 32.0605 138.824 27.752 138.824 21.2614Z" fill="#323E48"/>
<path d="M188.565 2.79688V4.08381C187.222 4.53144 186.495 5.65051 185.6 7.77675L175.808 31.613H171.388L161.316 7.38508C160.477 5.4267 159.917 4.58739 158.574 4.08381V2.79688H173.234V4.08381C169.933 4.53144 169.373 6.04219 170.213 8.22438L176.256 23.2759L181.627 9.73513C182.858 6.60172 180.732 4.53144 178.885 4.08381V2.79688H188.565Z" fill="#323E48"/>
<path d="M192.37 18.0714H199.308C199.42 13.5951 198.301 11.6367 196.287 11.6367C194.049 11.6926 192.65 14.3225 192.37 18.0714ZM206.247 26.2966C203.281 30.7728 199.588 32.0598 195.895 32.0598C190.076 32.0598 184.648 28.8704 184.648 21.3167C184.648 14.0987 189.572 9.56641 196.902 9.56641C204.68 9.56641 206.414 14.6022 206.079 20.1416H192.314C192.538 26.0168 195.224 27.9192 198.693 27.9192C200.651 27.9192 203.057 27.3037 204.904 25.4013L206.247 26.2966Z" fill="#323E48"/>
<path d="M226.84 12.5879C226.84 13.7629 226.393 15.3296 225.609 16.8404L222.924 15.5534C221.861 15.0499 221.077 14.8261 220.406 14.8261C218.335 14.8261 217.72 16.3368 217.72 18.0154V27.6954C217.72 29.5978 218.335 30.0455 220.63 30.4931V31.6122H207.48V30.4931C209.831 30.1014 210.222 29.5978 210.222 27.6954V16.1689C210.222 14.2665 209.439 12.5879 207.48 12.1962V11.0772L216.489 9.73427H217.496V14.6582H217.664C218.895 11.6367 221.021 9.56641 223.651 9.56641C225.833 9.62236 226.84 10.7974 226.84 12.5879Z" fill="#323E48"/>
<path d="M228.016 30.6609V24.7299H229.247C230.645 28.3668 234.115 30.1014 236.577 30.1014C238.423 30.1014 239.878 29.0942 239.878 27.3597C239.878 26.2406 239.15 25.2894 236.465 24.3382L234.786 23.7227C230.534 22.2679 228.183 20.4214 228.183 16.6166C228.183 12.1962 231.765 9.56641 237.08 9.56641C240.661 9.56641 244.018 10.6295 244.69 10.9652V16.2249H243.515C242.004 13.4272 239.654 11.5807 236.968 11.5807C234.954 11.5807 233.947 12.6439 233.947 14.0987C233.947 15.3296 234.842 16.2249 237.36 17.1202L239.039 17.7356C243.571 19.3023 245.585 21.0369 245.585 24.7299C245.585 29.3181 241.892 32.1157 236.185 32.1157C232.66 32.0598 228.967 31.1086 228.016 30.6609Z" fill="#323E48"/>
<path d="M254.538 18.0714H261.476C261.588 13.5951 260.469 11.6367 258.455 11.6367C256.217 11.6926 254.818 14.3225 254.538 18.0714ZM268.415 26.2966C265.449 30.7728 261.756 32.0598 258.063 32.0598C252.244 32.0598 246.816 28.8704 246.816 21.3167C246.816 14.0987 251.74 9.56641 259.07 9.56641C266.848 9.56641 268.582 14.6022 268.247 20.1416H254.482C254.706 26.0168 257.392 27.9192 260.861 27.9192C262.819 27.9192 265.225 27.3037 267.072 25.4013L268.415 26.2966Z" fill="#323E48"/>
<path d="M0.113281 24.3945V30.6054C0.113281 31.1649 0.560911 31.5566 1.06449 31.6126C7.10749 31.8364 13.0386 34.3543 17.403 38.4949C17.7946 38.8865 18.4101 38.8865 18.8018 38.4949C20.3126 37.0401 21.9912 35.8091 23.8376 34.8019C17.9065 28.4232 9.45754 24.3945 0.113281 24.3945Z" fill="#FF224A"/>
<path d="M0.113281 13.5957V20.8137C10.9123 20.8137 20.6483 25.6257 27.2508 33.1795C29.7128 32.2283 32.3985 31.7247 35.1403 31.6128C27.3068 20.7578 14.5493 13.5957 0.113281 13.5957Z" fill="#FF224A"/>
<path d="M13.4862 4.47549C9.45754 3.46832 5.31697 2.90878 1.1764 2.79688C0.560911 2.85283 0.113281 3.30046 0.113281 3.85999V10.0149C14.5493 10.0149 27.4746 16.6174 36.0915 26.9129V16.6174C29.7128 10.9102 21.9912 6.65768 13.4862 4.47549Z" fill="#FF224A"/>
<path d="M23.668 4.30831C28.1443 6.32264 32.3408 8.89651 36.0897 11.918V3.86068C36.0897 3.30115 35.6421 2.85352 35.0825 2.85352C31.1658 2.90947 27.305 3.41305 23.668 4.30831Z" fill="#FF224A"/>
</g>
<defs>
<clipPath id="clip0">
<rect width="270.77" height="38.79" fill="white" transform="translate(0.113281)"/>
</clipPath>
</defs>
</svg>
