<svg width="271" height="39" viewBox="0 0 271 39" fill="none" xmlns="http://www.w3.org/2000/svg">
<g clip-path="url(#clip0)">
<path d="M0.113281 24.4297V30.6497C0.113281 31.1897 0.553281 31.6197 1.09328 31.6397C7.13328 31.8497 13.1033 34.3997 17.4233 38.5097C17.8133 38.8797 18.4233 38.8897 18.8133 38.5097C20.3333 37.0797 22.0233 35.8297 23.8533 34.8097C17.9333 28.4297 9.48328 24.4297 0.113281 24.4297Z" fill="#FF224A"/>
<path d="M0.113281 13.6309V20.8309C10.9433 20.8309 20.6633 25.6409 27.2633 33.2309C29.7433 32.3009 32.4033 31.7509 35.1833 31.6509C27.3333 20.7509 14.5433 13.6309 0.113281 13.6309Z" fill="#FF224A"/>
<path d="M13.4733 4.5C9.44328 3.48 5.29328 2.93 1.13328 2.84C0.573281 2.83 0.113281 3.29 0.113281 3.85V10.03C14.5733 10.03 27.5233 16.63 36.1133 26.96V16.62C29.7433 10.91 22.0133 6.68 13.4733 4.5Z" fill="#FF224A"/>
<path d="M23.6641 4.29C28.1441 6.3 32.3241 8.87 36.1141 11.91V3.85C36.1141 3.29 35.6541 2.83 35.0941 2.84C31.1741 2.91 27.3441 3.42 23.6641 4.29Z" fill="#FF224A"/>
<path d="M74.0539 30.3705V31.6405H59.8039V30.3705C63.1339 29.9005 63.5639 29.2605 62.6539 27.0805L61.1139 23.3605H50.6539L49.5039 26.0905C48.4339 28.5905 49.4639 29.8905 52.7939 30.3705V31.6405H43.2539V30.3705C44.4439 29.9005 45.3939 28.6305 46.2239 26.6905L56.4339 2.81055H60.8739L71.3239 27.0805C72.1139 28.9105 72.8239 29.9005 74.0539 30.3705ZM60.1539 21.0705L55.9139 10.9305L51.6339 21.0705H60.1539Z" fill="#323E48"/>
<path d="M99.4142 29.4993V30.6093L91.2142 31.9593H90.1842L89.3942 27.7593H89.2742C87.7742 30.4893 85.1542 32.1193 81.5142 32.1193C76.4042 32.1193 74.3442 29.1493 74.3442 24.1993V16.1993C74.3442 14.2993 73.5542 12.6393 71.5742 12.2393V11.1293L80.5642 9.7793H81.7942V23.8793C81.7942 27.0093 82.8242 28.3893 84.9642 28.3893C87.6942 28.3893 89.2042 25.7793 89.2042 21.4993V16.1993C89.2042 14.2993 88.4142 12.6393 86.4342 12.2393V11.1293L95.4242 9.7793H96.6542V25.9393C96.6442 27.8393 97.0442 29.0993 99.4142 29.4993Z" fill="#323E48"/>
<path d="M125.906 29.5009V30.6109L117.706 31.9609H116.676L115.886 27.9609H115.726C114.336 30.5709 111.966 32.1209 108.876 32.1209C104.046 32.1209 99.9258 28.3609 99.9258 21.5509C99.9258 14.0709 104.876 9.79094 111.766 9.79094C113.116 9.79094 114.456 9.95094 115.686 10.3009V7.88094C115.686 5.98094 114.896 4.32094 112.916 3.92094V2.81094L121.906 1.46094H123.136V25.9309C123.136 27.8409 123.536 29.1009 125.906 29.5009ZM115.696 21.5009V13.3809C114.466 12.3509 113.166 11.9109 111.976 11.9109C109.366 11.9109 107.616 13.8109 107.616 20.1909C107.616 25.7309 109.006 28.3909 111.576 28.3909C114.146 28.3909 115.696 25.8209 115.696 21.5009Z" fill="#323E48"/>
<path d="M128.043 30.53C130.423 30.13 130.813 29.66 130.813 27.76V16.2C130.813 14.3 130.023 12.64 128.043 12.24V11.13L137.033 9.78H138.263V27.76C138.263 29.66 138.893 30.14 140.793 30.53V31.64H128.043V30.53ZM130.263 3.96C130.263 1.74 131.963 0 134.343 0C136.723 0 138.423 1.39 138.423 3.8C138.423 6.06 136.723 7.8 134.343 7.8C131.963 7.8 130.263 6.38 130.263 3.96Z" fill="#323E48"/>
<path d="M141.195 21.2591C141.195 14.3291 146.535 9.61914 153.545 9.61914C160.275 9.61914 165.065 13.9391 165.065 20.4691C165.065 27.3991 159.715 32.1091 152.755 32.1091C145.985 32.1091 141.195 27.7991 141.195 21.2591ZM157.235 21.6991C157.235 15.2791 155.925 11.6791 152.805 11.6791C149.875 11.6791 149.045 14.8091 149.045 19.9891C149.045 26.4091 150.355 30.0491 153.475 30.0491C156.405 30.0491 157.235 26.9291 157.235 21.6991Z" fill="#323E48"/>
<path d="M190.973 2.81055V4.08055C189.623 4.56055 188.873 5.62055 188.003 7.76055L178.183 31.6405H173.753L163.683 7.37055C162.853 5.39055 162.293 4.56055 160.953 4.08055V2.81055H175.603V4.08055C172.273 4.56055 171.723 6.06055 172.593 8.24055L178.653 23.2905L184.033 9.75055C185.263 6.62055 183.163 4.56055 181.263 4.09055V2.81055H190.973Z" fill="#323E48"/>
<path d="M208.675 26.3291C205.705 30.7991 202.025 32.1091 198.305 32.1091C192.485 32.1091 187.055 28.9391 187.055 21.3791C187.055 14.1291 192.005 9.61914 199.325 9.61914C207.085 9.61914 208.865 14.6491 208.515 20.2291H194.735C194.935 26.1291 197.625 28.0291 201.115 28.0291C203.095 28.0291 205.505 27.4391 207.335 25.5391L208.675 26.3291ZM194.775 18.0991H201.745C201.865 13.6291 200.715 11.6891 198.735 11.6891C196.435 11.6791 195.055 14.3291 194.775 18.0991Z" fill="#323E48"/>
<path d="M229.262 12.5891C229.262 13.7391 228.822 15.3591 228.032 16.8291L225.342 15.5591C224.272 15.0491 223.522 14.8491 222.812 14.8491C220.752 14.8491 220.122 16.3491 220.122 18.0591V27.7591C220.122 29.6591 220.752 30.1391 223.052 30.5291V31.6391H209.902V30.5291C212.282 30.1291 212.672 29.6591 212.672 27.7591V16.1991C212.672 14.2991 211.882 12.6391 209.902 12.2391V11.1291L218.892 9.77914H219.922V14.7291H220.082C221.312 11.7191 223.452 9.61914 226.062 9.61914C228.272 9.61914 229.262 10.8091 229.262 12.5891Z" fill="#323E48"/>
<path d="M230.453 30.6891V24.7491H231.683C233.113 28.3891 236.553 30.1291 239.013 30.1291C240.833 30.1291 242.343 29.0991 242.343 27.3591C242.343 26.2491 241.633 25.2991 238.933 24.3491L237.273 23.7591C233.033 22.2991 230.663 20.4691 230.663 16.6691C230.663 12.2391 234.223 9.61914 239.573 9.61914C243.173 9.61914 246.503 10.6891 247.173 11.0091V16.2791H245.943C244.443 13.4691 242.063 11.6091 239.413 11.6091C237.393 11.6091 236.403 12.6791 236.403 14.0991C236.403 15.3291 237.273 16.2391 239.813 17.1491L241.513 17.7391C246.023 19.3191 248.083 21.0691 248.083 24.7491C248.083 29.3391 244.363 32.1191 238.703 32.1191C235.083 32.1091 231.363 31.1591 230.453 30.6891Z" fill="#323E48"/>
<path d="M270.884 26.3291C267.914 30.7991 264.234 32.1091 260.504 32.1091C254.684 32.1091 249.254 28.9391 249.254 21.3791C249.254 14.1291 254.204 9.61914 261.534 9.61914C269.294 9.61914 271.074 14.6491 270.724 20.2291H256.944C257.144 26.1291 259.834 28.0291 263.324 28.0291C265.304 28.0291 267.724 27.4391 269.544 25.5391L270.884 26.3291ZM256.984 18.0991H263.954C264.074 13.6291 262.924 11.6891 260.944 11.6891C258.644 11.6791 257.264 14.3291 256.984 18.0991Z" fill="#323E48"/>
</g>
<defs>
<clipPath id="clip0">
<rect width="270.77" height="38.79" fill="white" transform="translate(0.113281)"/>
</clipPath>
</defs>
</svg>
