<svg width="271" height="39" viewBox="0 0 271 39" fill="none" xmlns="http://www.w3.org/2000/svg">
<g clip-path="url(#clip0)">
<path d="M59.9822 21.0378L55.7298 10.9102L51.4773 21.0378H59.9822ZM73.8587 30.3261V31.613H59.5906V30.3261C62.8918 29.8785 63.3395 29.207 62.4442 27.0248L60.8775 23.3319H50.5261L49.351 26.0736C48.2879 28.5915 49.2951 29.8785 52.6523 30.3261V31.613H43.0842V30.3261C44.2593 29.8785 45.2105 28.5915 46.0498 26.6331L56.2893 2.79688H60.7096L71.173 27.0248C71.9563 28.8713 72.6278 29.8785 73.8587 30.3261Z" fill="#323E48"/>
<path d="M99.2059 29.488V30.607L91.0367 31.9499H90.0295L89.2461 27.7534H89.1342C87.6235 30.4951 84.9937 32.1178 81.3567 32.1178C76.2649 32.1178 74.1946 29.1522 74.1946 24.2283V16.171C74.1946 14.2686 73.4113 12.59 71.4529 12.1983V11.0792L80.4614 9.73633H81.6924V23.8367C81.6924 26.9701 82.6996 28.3689 84.8818 28.3689C87.6235 28.3689 89.1342 25.7391 89.1342 21.4866V16.171C89.1342 14.2686 88.3509 12.59 86.3925 12.1983V11.0792L95.4011 9.73633H96.632V25.851C96.4642 27.8094 96.8558 29.0963 99.2059 29.488Z" fill="#323E48"/>
<path d="M115.488 21.4865V13.3732C114.257 12.366 112.97 11.9184 111.795 11.9184C109.165 11.9184 107.431 13.8208 107.431 20.1996C107.431 25.739 108.83 28.3688 111.404 28.3688C113.921 28.3688 115.488 25.7949 115.488 21.4865ZM124.553 29.4879V30.6069L117.502 31.9498H116.495L115.712 27.9771H115.544C114.145 30.6069 111.795 32.1177 108.718 32.1177C103.906 32.1177 99.7651 28.3688 99.7651 21.5424C99.7651 14.0447 104.689 9.79217 111.571 9.79217C112.914 9.79217 114.257 9.96004 115.488 10.2958V7.88975C115.488 5.98733 114.705 4.30872 112.746 3.91704V2.79797L121.755 1.45508H122.986V25.9068C122.93 27.8093 123.378 28.9843 124.553 29.4879Z" fill="#323E48"/>
<path d="M127.798 3.97271C127.798 1.73456 129.477 0 131.883 0C134.233 0 135.967 1.39884 135.967 3.80485C135.967 6.043 134.289 7.77756 131.883 7.77756C129.533 7.77756 127.798 6.37872 127.798 3.97271ZM126.287 30.4947C128.022 30.159 128.358 29.5995 128.358 27.6971V16.1706C128.358 14.2682 127.574 12.5896 125.616 12.1979V11.0788L134.625 9.73594H135.855V27.6971C135.855 29.5995 136.471 30.0471 138.373 30.4947V31.6138H126.343V30.4947H126.287Z" fill="#323E48"/>
<path d="M154.768 21.6531C154.768 15.2184 153.481 11.6374 150.347 11.6374C147.438 11.6374 146.598 14.7708 146.598 19.9185C146.598 26.3532 147.885 29.9902 151.019 29.9902C153.928 30.0461 154.768 26.9127 154.768 21.6531ZM138.709 21.2614C138.709 14.3232 144.025 9.62305 151.075 9.62305C157.789 9.62305 162.601 13.9315 162.601 20.4781C162.601 27.4163 157.286 32.1164 150.291 32.1164C143.521 32.0605 138.709 27.752 138.709 21.2614Z" fill="#323E48"/>
<path d="M188.452 2.79688V4.08381C187.109 4.53144 186.382 5.65051 185.486 7.77675L175.694 31.613H171.274L161.202 7.38508C160.363 5.4267 159.804 4.58739 158.461 4.08381V2.79688H173.121V4.08381C169.819 4.53144 169.26 6.04219 170.099 8.22438L176.142 23.2759L181.514 9.73513C182.745 6.60172 180.618 4.53144 178.772 4.08381V2.79688H188.452Z" fill="#323E48"/>
<path d="M192.257 18.0714H199.195C199.307 13.5951 198.188 11.6367 196.174 11.6367C193.935 11.6926 192.537 14.3225 192.257 18.0714ZM206.133 26.2966C203.168 30.7728 199.475 32.0598 195.782 32.0598C189.963 32.0598 184.535 28.8704 184.535 21.3167C184.535 14.0987 189.459 9.56641 196.789 9.56641C204.567 9.56641 206.301 14.6022 205.965 20.1416H192.201C192.425 26.0168 195.11 27.9192 198.58 27.9192C200.538 27.9192 202.944 27.3037 204.79 25.4013L206.133 26.2966Z" fill="#323E48"/>
<path d="M226.724 12.5879C226.724 13.7629 226.277 15.3296 225.493 16.8404L222.807 15.5534C221.744 15.0499 220.961 14.8261 220.29 14.8261C218.219 14.8261 217.604 16.3368 217.604 18.0154V27.6954C217.604 29.5978 218.219 30.0455 220.513 30.4931V31.6122H207.364V30.4931C209.714 30.1014 210.106 29.5978 210.106 27.6954V16.1689C210.106 14.2665 209.323 12.5879 207.364 12.1962V11.0772L216.373 9.73427H217.38V14.6582H217.548C218.779 11.6367 220.905 9.56641 223.535 9.56641C225.717 9.62236 226.724 10.7974 226.724 12.5879Z" fill="#323E48"/>
<path d="M227.899 30.6609V24.7299H229.13C230.529 28.3668 233.998 30.1014 236.46 30.1014C238.307 30.1014 239.762 29.0942 239.762 27.3597C239.762 26.2406 239.034 25.2894 236.348 24.3382L234.67 23.7227C230.417 22.2679 228.067 20.4214 228.067 16.6166C228.067 12.1962 231.648 9.56641 236.964 9.56641C240.545 9.56641 243.902 10.6295 244.574 10.9652V16.2249H243.399C241.888 13.4272 239.538 11.5807 236.852 11.5807C234.838 11.5807 233.831 12.6439 233.831 14.0987C233.831 15.3296 234.726 16.2249 237.244 17.1202L238.922 17.7356C243.455 19.3023 245.469 21.0369 245.469 24.7299C245.469 29.3181 241.776 32.1157 236.069 32.1157C232.544 32.0598 228.851 31.1086 227.899 30.6609Z" fill="#323E48"/>
<path d="M254.421 18.0714H261.359C261.471 13.5951 260.352 11.6367 258.338 11.6367C256.1 11.6926 254.701 14.3225 254.421 18.0714ZM268.298 26.2966C265.332 30.7728 261.639 32.0598 257.946 32.0598C252.127 32.0598 246.699 28.8704 246.699 21.3167C246.699 14.0987 251.623 9.56641 258.953 9.56641C266.731 9.56641 268.465 14.6022 268.13 20.1416H254.365C254.589 26.0168 257.275 27.9192 260.744 27.9192C262.702 27.9192 265.108 27.3037 266.955 25.4013L268.298 26.2966Z" fill="#323E48"/>
<path d="M0 24.3945V30.6054C0 31.1649 0.447629 31.5566 0.951212 31.6126C6.99421 31.8364 12.9253 34.3543 17.2897 38.4949C17.6814 38.8865 18.2969 38.8865 18.6885 38.4949C20.1993 37.0401 21.8779 35.8091 23.7244 34.8019C17.7933 28.4232 9.34426 24.3945 0 24.3945Z" fill="#FF224A"/>
<path d="M0 13.5957V20.8137C10.7991 20.8137 20.535 25.6257 27.1375 33.1795C29.5995 32.2283 32.2853 31.7247 35.027 31.6128C27.1935 20.7578 14.436 13.5957 0 13.5957Z" fill="#FF224A"/>
<path d="M13.3732 4.47549C9.34451 3.46832 5.20393 2.90878 1.06336 2.79688C0.447873 2.85283 0.000244141 3.30046 0.000244141 3.85999V10.0149C14.4363 10.0149 27.3616 16.6174 35.9785 26.9129V16.6174C29.5997 10.9102 21.8781 6.65768 13.3732 4.47549Z" fill="#FF224A"/>
<path d="M23.5564 4.30831C28.0327 6.32264 32.2292 8.89651 35.9781 11.918V3.86068C35.9781 3.30115 35.5305 2.85352 34.9709 2.85352C31.0542 2.90947 27.1934 3.41305 23.5564 4.30831Z" fill="#FF224A"/>
</g>
<defs>
<clipPath id="clip0">
<rect width="270.77" height="38.79" fill="white"/>
</clipPath>
</defs>
</svg>
