<svg width="648" height="49" viewBox="0 0 648 49" fill="none" xmlns="http://www.w3.org/2000/svg">
<g clip-path="url(#clip0)">
<path d="M1 48V11" stroke="#FF224A" stroke-width="2" stroke-miterlimit="10" stroke-linecap="round"/>
<path d="M7 48V19" stroke="#FF224A" stroke-width="2" stroke-miterlimit="10" stroke-linecap="round"/>
<path d="M13 48V5" stroke="#FF224A" stroke-width="2" stroke-miterlimit="10" stroke-linecap="round"/>
<path d="M19 48V15" stroke="#FF224A" stroke-width="2" stroke-miterlimit="10" stroke-linecap="round"/>
<path d="M25 48V14" stroke="#FF224A" stroke-width="2" stroke-miterlimit="10" stroke-linecap="round"/>
<path d="M31 48V12" stroke="#FF224A" stroke-width="2" stroke-miterlimit="10" stroke-linecap="round"/>
<path d="M37 48V9" stroke="#FF224A" stroke-width="2" stroke-miterlimit="10" stroke-linecap="round"/>
<path d="M43 48V5" stroke="#FF224A" stroke-width="2" stroke-miterlimit="10" stroke-linecap="round"/>
<path d="M49 48V17" stroke="#FF224A" stroke-width="2" stroke-miterlimit="10" stroke-linecap="round"/>
<path d="M55 48V6" stroke="#FF224A" stroke-width="2" stroke-miterlimit="10" stroke-linecap="round"/>
<path d="M61 48V3" stroke="#FF224A" stroke-width="2" stroke-miterlimit="10" stroke-linecap="round"/>
<path d="M67 48V2" stroke="#FF224A"/>
<path d="M67 48V2" stroke="#FF224A" stroke-width="2" stroke-miterlimit="10" stroke-linecap="round"/>
<path d="M73 48V2" stroke="#FF224A"/>
<path d="M73 48V2" stroke="#FF224A" stroke-width="2" stroke-miterlimit="10" stroke-linecap="round"/>
<path d="M79 48V1" stroke="#FF224A"/>
<path d="M601 48V1" stroke="#FF224A"/>
<path d="M79 48V1" stroke="#FF224A" stroke-width="2" stroke-miterlimit="10" stroke-linecap="round"/>
<path d="M601 48V1" stroke="#FF224A" stroke-width="2" stroke-miterlimit="10" stroke-linecap="round"/>
<path d="M85 48V1" stroke="#FF224A"/>
<path d="M607 48V1" stroke="#FF224A"/>
<path d="M343 48V1" stroke="#FF224A"/>
<path d="M85 48V1" stroke="#FF224A" stroke-width="2" stroke-miterlimit="10" stroke-linecap="round"/>
<path d="M607 48V1" stroke="#FF224A" stroke-width="2" stroke-miterlimit="10" stroke-linecap="round"/>
<path d="M343 48V1" stroke="#FF224A" stroke-width="2" stroke-miterlimit="10" stroke-linecap="round"/>
<path d="M91 48V16" stroke="#FF224A"/>
<path d="M613 48V16" stroke="#FF224A"/>
<path d="M349 48V16" stroke="#FF224A"/>
<path d="M91 48V16" stroke="#FF224A" stroke-width="2" stroke-miterlimit="10" stroke-linecap="round"/>
<path d="M613 48V16" stroke="#FF224A" stroke-width="2" stroke-miterlimit="10" stroke-linecap="round"/>
<path d="M349 48V16" stroke="#FF224A" stroke-width="2" stroke-miterlimit="10" stroke-linecap="round"/>
<path d="M97 48V18" stroke="#FF224A"/>
<path d="M619 48V18" stroke="#FF224A"/>
<path d="M355 48V18" stroke="#FF224A"/>
<path d="M97 48V18" stroke="#FF224A" stroke-width="2" stroke-miterlimit="10" stroke-linecap="round"/>
<path d="M619 48V18" stroke="#FF224A" stroke-width="2" stroke-miterlimit="10" stroke-linecap="round"/>
<path d="M355 48V18" stroke="#FF224A" stroke-width="2" stroke-miterlimit="10" stroke-linecap="round"/>
<path d="M103 48V10" stroke="#FF224A"/>
<path d="M625 48V10" stroke="#FF224A"/>
<path d="M361 48V10" stroke="#FF224A"/>
<path d="M103 48V10" stroke="#FF224A" stroke-width="2" stroke-miterlimit="10" stroke-linecap="round"/>
<path d="M625 48V10" stroke="#FF224A" stroke-width="2" stroke-miterlimit="10" stroke-linecap="round"/>
<path d="M361 48V10" stroke="#FF224A" stroke-width="2" stroke-miterlimit="10" stroke-linecap="round"/>
<path d="M109 48V4" stroke="#FF224A"/>
<path d="M631 48V4" stroke="#FF224A"/>
<path d="M367 48V4" stroke="#FF224A"/>
<path d="M109 48V4" stroke="#FF224A" stroke-width="2" stroke-miterlimit="10" stroke-linecap="round"/>
<path d="M631 48V4" stroke="#FF224A" stroke-width="2" stroke-miterlimit="10" stroke-linecap="round"/>
<path d="M367 48V4" stroke="#FF224A" stroke-width="2" stroke-miterlimit="10" stroke-linecap="round"/>
<path d="M115 48V16" stroke="#FF224A"/>
<path d="M637 48V16" stroke="#FF224A"/>
<path d="M373 48V16" stroke="#FF224A"/>
<path d="M115 48V16" stroke="#FF224A" stroke-width="2" stroke-miterlimit="10" stroke-linecap="round"/>
<path d="M637 48V16" stroke="#FF224A" stroke-width="2" stroke-miterlimit="10" stroke-linecap="round"/>
<path d="M373 48V16" stroke="#FF224A" stroke-width="2" stroke-miterlimit="10" stroke-linecap="round"/>
<path d="M121 48V15" stroke="#FF224A"/>
<path d="M643 48V15" stroke="#FF224A"/>
<path d="M379 48V15" stroke="#FF224A"/>
<path d="M121 48V15" stroke="#FF224A" stroke-width="2" stroke-miterlimit="10" stroke-linecap="round"/>
<path d="M643 48V15" stroke="#FF224A" stroke-width="2" stroke-miterlimit="10" stroke-linecap="round"/>
<path d="M379 48V15" stroke="#FF224A" stroke-width="2" stroke-miterlimit="10" stroke-linecap="round"/>
<path d="M127 48V3" stroke="#FF224A"/>
<path d="M385 48V3" stroke="#FF224A"/>
<path d="M127 48V3" stroke="#FF224A" stroke-width="2" stroke-miterlimit="10" stroke-linecap="round"/>
<path d="M385 48V3" stroke="#FF224A" stroke-width="2" stroke-miterlimit="10" stroke-linecap="round"/>
<path d="M133 48V8" stroke="#FF224A"/>
<path d="M391 48V8" stroke="#FF224A"/>
<path d="M133 48V8" stroke="#FF224A" stroke-width="2" stroke-miterlimit="10" stroke-linecap="round"/>
<path d="M391 48V8" stroke="#FF224A" stroke-width="2" stroke-miterlimit="10" stroke-linecap="round"/>
<path d="M139 48V3" stroke="#FF224A"/>
<path d="M397 48V3" stroke="#FF224A"/>
<path d="M139 48V3" stroke="#FF224A" stroke-width="2" stroke-miterlimit="10" stroke-linecap="round"/>
<path d="M397 48V3" stroke="#FF224A" stroke-width="2" stroke-miterlimit="10" stroke-linecap="round"/>
<path d="M145 48V2" stroke="#FF224A"/>
<path d="M403 48V2" stroke="#FF224A"/>
<path d="M145 48V2" stroke="#FF224A" stroke-width="2" stroke-miterlimit="10" stroke-linecap="round"/>
<path d="M403 48V2" stroke="#FF224A" stroke-width="2" stroke-miterlimit="10" stroke-linecap="round"/>
<path d="M151 48V6" stroke="#FF224A"/>
<path d="M409 48V6" stroke="#FF224A"/>
<path d="M151 48V6" stroke="#FF224A" stroke-width="2" stroke-miterlimit="10" stroke-linecap="round"/>
<path d="M409 48V6" stroke="#FF224A" stroke-width="2" stroke-miterlimit="10" stroke-linecap="round"/>
<path d="M157 48V7" stroke="#FF224A"/>
<path d="M415 48V7" stroke="#FF224A"/>
<path d="M157 48V7" stroke="#FF224A" stroke-width="2" stroke-miterlimit="10" stroke-linecap="round"/>
<path d="M415 48V7" stroke="#FF224A" stroke-width="2" stroke-miterlimit="10" stroke-linecap="round"/>
<path d="M163 48V3" stroke="#FF224A"/>
<path d="M421 48V3" stroke="#FF224A"/>
<path d="M163 48V3" stroke="#FF224A" stroke-width="2" stroke-miterlimit="10" stroke-linecap="round"/>
<path d="M421 48V3" stroke="#FF224A" stroke-width="2" stroke-miterlimit="10" stroke-linecap="round"/>
<path d="M169 48V14" stroke="#FF224A"/>
<path d="M427 48V14" stroke="#FF224A"/>
<path d="M169 48V14" stroke="#FF224A" stroke-width="2" stroke-miterlimit="10" stroke-linecap="round"/>
<path d="M427 48V14" stroke="#FF224A" stroke-width="2" stroke-miterlimit="10" stroke-linecap="round"/>
<path d="M175 48V19" stroke="#FF224A"/>
<path d="M433 48V19" stroke="#FF224A"/>
<path d="M175 48V19" stroke="#FF224A" stroke-width="2" stroke-miterlimit="10" stroke-linecap="round"/>
<path d="M433 48V19" stroke="#FF224A" stroke-width="2" stroke-miterlimit="10" stroke-linecap="round"/>
<path d="M181 48V8" stroke="#FF224A"/>
<path d="M439 48V8" stroke="#FF224A"/>
<path d="M181 48V8" stroke="#FF224A" stroke-width="2" stroke-miterlimit="10" stroke-linecap="round"/>
<path d="M439 48V8" stroke="#FF224A" stroke-width="2" stroke-miterlimit="10" stroke-linecap="round"/>
<path d="M187 48V1" stroke="#FF224A"/>
<path d="M445 48V1" stroke="#FF224A"/>
<path d="M187 48V1" stroke="#FF224A" stroke-width="2" stroke-miterlimit="10" stroke-linecap="round"/>
<path d="M445 48V1" stroke="#FF224A" stroke-width="2" stroke-miterlimit="10" stroke-linecap="round"/>
<path d="M193 48V7" stroke="#FF224A"/>
<path d="M451 48V7" stroke="#FF224A"/>
<path d="M193 48V7" stroke="#FF224A" stroke-width="2" stroke-miterlimit="10" stroke-linecap="round"/>
<path d="M451 48V7" stroke="#FF224A" stroke-width="2" stroke-miterlimit="10" stroke-linecap="round"/>
<path d="M199 48V16" stroke="#FF224A"/>
<path d="M457 48V16" stroke="#FF224A"/>
<path d="M199 48V16" stroke="#FF224A" stroke-width="2" stroke-miterlimit="10" stroke-linecap="round"/>
<path d="M457 48V16" stroke="#FF224A" stroke-width="2" stroke-miterlimit="10" stroke-linecap="round"/>
<path d="M205 48V4" stroke="#FF224A"/>
<path d="M463 48V4" stroke="#FF224A"/>
<path d="M205 48V4" stroke="#FF224A" stroke-width="2" stroke-miterlimit="10" stroke-linecap="round"/>
<path d="M463 48V4" stroke="#FF224A" stroke-width="2" stroke-miterlimit="10" stroke-linecap="round"/>
<path d="M211 48V19" stroke="#FF224A"/>
<path d="M469 48V19" stroke="#FF224A"/>
<path d="M211 48V19" stroke="#FF224A" stroke-width="2" stroke-miterlimit="10" stroke-linecap="round"/>
<path d="M469 48V19" stroke="#FF224A" stroke-width="2" stroke-miterlimit="10" stroke-linecap="round"/>
<path d="M217 48V8" stroke="#FF224A"/>
<path d="M475 48V8" stroke="#FF224A"/>
<path d="M217 48V8" stroke="#FF224A" stroke-width="2" stroke-miterlimit="10" stroke-linecap="round"/>
<path d="M475 48V8" stroke="#FF224A" stroke-width="2" stroke-miterlimit="10" stroke-linecap="round"/>
<path d="M223 48V13" stroke="#FF224A"/>
<path d="M481 48V13" stroke="#FF224A"/>
<path d="M223 48V13" stroke="#FF224A" stroke-width="2" stroke-miterlimit="10" stroke-linecap="round"/>
<path d="M481 48V13" stroke="#FF224A" stroke-width="2" stroke-miterlimit="10" stroke-linecap="round"/>
<path d="M229 48V20" stroke="#FF224A"/>
<path d="M487 48V20" stroke="#FF224A"/>
<path d="M229 48V20" stroke="#FF224A" stroke-width="2" stroke-miterlimit="10" stroke-linecap="round"/>
<path d="M487 48V20" stroke="#FF224A" stroke-width="2" stroke-miterlimit="10" stroke-linecap="round"/>
<path d="M235 48V1" stroke="#FF224A"/>
<path d="M493 48V1" stroke="#FF224A"/>
<path d="M235 48V1" stroke="#FF224A" stroke-width="2" stroke-miterlimit="10" stroke-linecap="round"/>
<path d="M493 48V1" stroke="#FF224A" stroke-width="2" stroke-miterlimit="10" stroke-linecap="round"/>
<path d="M289 48V1" stroke="#FF224A" stroke-width="2" stroke-miterlimit="10" stroke-linecap="round"/>
<path d="M547 48V1" stroke="#FF224A" stroke-width="2" stroke-miterlimit="10" stroke-linecap="round"/>
<path d="M241 48V12" stroke="#FF224A"/>
<path d="M499 48V12" stroke="#FF224A"/>
<path d="M241 48V12" stroke="#FF224A" stroke-width="2" stroke-miterlimit="10" stroke-linecap="round"/>
<path d="M499 48V12" stroke="#FF224A" stroke-width="2" stroke-miterlimit="10" stroke-linecap="round"/>
<path d="M295 48V12" stroke="#FF224A" stroke-width="2" stroke-miterlimit="10" stroke-linecap="round"/>
<path d="M553 48V12" stroke="#FF224A" stroke-width="2" stroke-miterlimit="10" stroke-linecap="round"/>
<path d="M247 48V16" stroke="#FF224A"/>
<path d="M505 48V16" stroke="#FF224A"/>
<path d="M247 48V16" stroke="#FF224A" stroke-width="2" stroke-miterlimit="10" stroke-linecap="round"/>
<path d="M505 48V16" stroke="#FF224A" stroke-width="2" stroke-miterlimit="10" stroke-linecap="round"/>
<path d="M301 48V16" stroke="#FF224A" stroke-width="2" stroke-miterlimit="10" stroke-linecap="round"/>
<path d="M559 48V16" stroke="#FF224A" stroke-width="2" stroke-miterlimit="10" stroke-linecap="round"/>
<path d="M253 48V1" stroke="#FF224A"/>
<path d="M511 48V1" stroke="#FF224A"/>
<path d="M253 48V1" stroke="#FF224A" stroke-width="2" stroke-miterlimit="10" stroke-linecap="round"/>
<path d="M511 48V1" stroke="#FF224A" stroke-width="2" stroke-miterlimit="10" stroke-linecap="round"/>
<path d="M307 48V1" stroke="#FF224A" stroke-width="2" stroke-miterlimit="10" stroke-linecap="round"/>
<path d="M565 48V1" stroke="#FF224A" stroke-width="2" stroke-miterlimit="10" stroke-linecap="round"/>
<path d="M259 48V2" stroke="#FF224A"/>
<path d="M517 48V2" stroke="#FF224A"/>
<path d="M259 48V2" stroke="#FF224A" stroke-width="2" stroke-miterlimit="10" stroke-linecap="round"/>
<path d="M517 48V2" stroke="#FF224A" stroke-width="2" stroke-miterlimit="10" stroke-linecap="round"/>
<path d="M313 48V2" stroke="#FF224A" stroke-width="2" stroke-miterlimit="10" stroke-linecap="round"/>
<path d="M571 48V2" stroke="#FF224A" stroke-width="2" stroke-miterlimit="10" stroke-linecap="round"/>
<path d="M265 48V15" stroke="#FF224A"/>
<path d="M523 48V15" stroke="#FF224A"/>
<path d="M265 48V15" stroke="#FF224A" stroke-width="2" stroke-miterlimit="10" stroke-linecap="round"/>
<path d="M523 48V15" stroke="#FF224A" stroke-width="2" stroke-miterlimit="10" stroke-linecap="round"/>
<path d="M319 48V15" stroke="#FF224A" stroke-width="2" stroke-miterlimit="10" stroke-linecap="round"/>
<path d="M577 48V15" stroke="#FF224A" stroke-width="2" stroke-miterlimit="10" stroke-linecap="round"/>
<path d="M271 48V4" stroke="#FF224A"/>
<path d="M529 48V4" stroke="#FF224A"/>
<path d="M271 48V4" stroke="#FF224A" stroke-width="2" stroke-miterlimit="10" stroke-linecap="round"/>
<path d="M529 48V4" stroke="#FF224A" stroke-width="2" stroke-miterlimit="10" stroke-linecap="round"/>
<path d="M325 48V4" stroke="#FF224A" stroke-width="2" stroke-miterlimit="10" stroke-linecap="round"/>
<path d="M583 48V4" stroke="#FF224A" stroke-width="2" stroke-miterlimit="10" stroke-linecap="round"/>
<path d="M277 48V3" stroke="#FF224A"/>
<path d="M535 48V3" stroke="#FF224A"/>
<path d="M277 48V3" stroke="#FF224A" stroke-width="2" stroke-miterlimit="10" stroke-linecap="round"/>
<path d="M535 48V3" stroke="#FF224A" stroke-width="2" stroke-miterlimit="10" stroke-linecap="round"/>
<path d="M331 48V3" stroke="#FF224A" stroke-width="2" stroke-miterlimit="10" stroke-linecap="round"/>
<path d="M589 48V3" stroke="#FF224A" stroke-width="2" stroke-miterlimit="10" stroke-linecap="round"/>
<path d="M283 48V12" stroke="#FF224A"/>
<path d="M541 48V12" stroke="#FF224A"/>
<path d="M283 48V12" stroke="#FF224A" stroke-width="2" stroke-miterlimit="10" stroke-linecap="round"/>
<path d="M541 48V12" stroke="#FF224A" stroke-width="2" stroke-miterlimit="10" stroke-linecap="round"/>
<path d="M337 48V12" stroke="#FF224A" stroke-width="2" stroke-miterlimit="10" stroke-linecap="round"/>
<path d="M595 48V12" stroke="#FF224A" stroke-width="2" stroke-miterlimit="10" stroke-linecap="round"/>
<path d="M289 48V20" stroke="#FF224A"/>
<path d="M547 48V20" stroke="#FF224A"/>
</g>
<defs>
<clipPath id="clip0">
<rect width="648" height="49" fill="white"/>
</clipPath>
</defs>
</svg>
